# This file uses centimeters as units for non-parametric coordinates.

mtllib back_button.mtl
g default
v -0.367177 0.293343 -0.667935
v -0.367120 0.290418 -0.711543
v -0.324668 0.294150 -0.667934
v -0.324689 0.291853 -0.710024
v -0.314099 0.292539 -0.703432
v -0.312828 0.294065 -0.676285
v -0.367178 0.293359 -0.688727
v -0.331578 0.294240 -0.688727
v -0.308594 0.293517 -0.688713
v -0.367057 0.287187 -0.661937
v -0.324256 0.287926 -0.662588
v -0.309225 0.287800 -0.671941
v -0.303160 0.286923 -0.688726
v -0.310386 0.286191 -0.707472
v -0.324856 0.285432 -0.715619
v -0.367002 0.284383 -0.716183
v -0.366889 0.278580 -0.661725
v -0.323297 0.279020 -0.662284
v -0.309063 0.279350 -0.671874
v -0.302999 0.278617 -0.688726
v -0.310054 0.277305 -0.707363
v -0.324038 0.276428 -0.715583
v -0.366824 0.275234 -0.716355
v -0.409686 0.292487 -0.667934
v -0.409575 0.290192 -0.710024
v -0.420185 0.290464 -0.703432
v -0.421514 0.291939 -0.676285
v -0.402785 0.292847 -0.688727
v -0.425724 0.291226 -0.688713
v -0.409854 0.286252 -0.662588
v -0.424869 0.285538 -0.671941
v -0.430895 0.284424 -0.688726
v -0.423646 0.283975 -0.707472
v -0.409158 0.283783 -0.715619
v -0.410464 0.277315 -0.662284
v -0.424700 0.277088 -0.671874
v -0.430731 0.276118 -0.688726
v -0.423630 0.275083 -0.707363
v -0.409622 0.274754 -0.715583
vt 0.000000 0.000000
vt 1.000000 0.000000
vt 1.000000 0.526712
vt 0.000000 0.526712
vt 0.473288 1.000000
vt 0.473288 0.000000
vt 1.000000 0.000000
vt 1.000000 1.000000
vt 1.000000 1.000000
vt 0.000000 1.000000
vt 0.000000 0.000000
vt 0.000000 1.000000
vt 0.000000 0.000000
vt 1.000000 0.000000
vt 1.000000 0.481997
vt 0.000000 0.481997
vt 0.000000 0.000000
vt 1.000000 0.000000
vt 1.000000 0.481997
vt 0.000000 0.481997
vt 0.000000 0.000000
vt 1.000000 0.000000
vt 1.000000 0.481997
vt 0.000000 0.481997
vt 0.000000 0.000000
vt 1.000000 0.000000
vt 1.000000 0.481997
vt 0.000000 0.481997
vt 0.000000 0.000000
vt 1.000000 0.000000
vt 1.000000 0.481997
vt 0.000000 0.481997
vt 0.000000 0.000000
vt 1.000000 0.000000
vt 1.000000 0.481997
vt 0.000000 0.481997
vt 0.000000 0.000000
vt 1.000000 0.000000
vt 1.000000 1.000000
vt 0.000000 1.000000
vt 0.000000 0.000000
vt 1.000000 0.000000
vt 1.000000 1.000000
vt 0.000000 1.000000
vt 0.000000 0.000000
vt 1.000000 0.000000
vt 1.000000 1.000000
vt 0.000000 1.000000
vt 0.000000 0.000000
vt 1.000000 0.000000
vt 1.000000 1.000000
vt 0.000000 1.000000
vt 0.000000 0.000000
vt 1.000000 0.000000
vt 1.000000 1.000000
vt 0.000000 1.000000
vt 0.000000 0.000000
vt 1.000000 0.000000
vt 1.000000 1.000000
vt 0.000000 1.000000
vt 0.000000 0.000000
vt 0.000000 0.526712
vt 1.000000 0.526712
vt 1.000000 0.000000
vt 0.473288 1.000000
vt 1.000000 1.000000
vt 1.000000 0.000000
vt 0.473288 0.000000
vt 0.000000 1.000000
vt 1.000000 1.000000
vt 0.000000 0.000000
vt 0.000000 1.000000
vt 0.000000 0.000000
vt 0.000000 0.481997
vt 1.000000 0.481997
vt 1.000000 0.000000
vt 0.000000 0.000000
vt 0.000000 0.481997
vt 1.000000 0.481997
vt 1.000000 0.000000
vt 0.000000 0.000000
vt 0.000000 0.481997
vt 1.000000 0.481997
vt 1.000000 0.000000
vt 0.000000 0.000000
vt 0.000000 0.481997
vt 1.000000 0.481997
vt 1.000000 0.000000
vt 0.000000 0.000000
vt 0.000000 0.481997
vt 1.000000 0.481997
vt 1.000000 0.000000
vt 0.000000 0.000000
vt 0.000000 0.481997
vt 1.000000 0.481997
vt 1.000000 0.000000
vt 0.000000 0.000000
vt 0.000000 1.000000
vt 1.000000 1.000000
vt 1.000000 0.000000
vt 0.000000 0.000000
vt 0.000000 1.000000
vt 1.000000 1.000000
vt 1.000000 0.000000
vt 0.000000 0.000000
vt 0.000000 1.000000
vt 1.000000 1.000000
vt 1.000000 0.000000
vt 0.000000 0.000000
vt 0.000000 1.000000
vt 1.000000 1.000000
vt 1.000000 0.000000
vt 0.000000 0.000000
vt 0.000000 1.000000
vt 1.000000 1.000000
vt 1.000000 0.000000
vt 0.000000 0.000000
vt 0.000000 1.000000
vt 1.000000 1.000000
vt 1.000000 0.000000
vn 0.030096 0.937970 -0.345408
vn -0.018451 0.943137 -0.331893
vn -0.019523 0.997926 -0.061343
vn -0.016030 0.998076 -0.059886
vn 0.339400 0.938812 -0.058645
vn 0.258085 0.931056 -0.257928
vn -0.018952 0.968733 0.247382
vn 0.043409 0.956517 0.288430
vn 0.265804 0.949175 0.168565
vn 0.121572 0.312670 -0.942050
vn -0.006225 0.318178 -0.948011
vn -0.007159 0.365936 0.930613
vn 0.137674 0.354110 0.925015
vn 0.738809 0.319268 0.593489
vn 0.953083 0.299384 -0.044749
vn 0.732512 0.299205 -0.611476
vn -0.000588 0.030071 0.999547
vn 0.181141 0.038527 0.982702
vn 0.542368 0.052959 0.838470
vn 0.940832 0.019474 0.338314
vn 0.940832 0.019474 0.338314
vn 0.933430 0.024490 -0.357923
vn 0.933430 0.024490 -0.357923
vn 0.497393 0.024902 -0.867168
vn 0.158283 0.013441 -0.987302
vn -0.000157 0.008014 -0.999968
vn -0.066755 0.936075 -0.345408
vn -0.023019 0.997940 -0.059885
vn -0.294297 0.920251 -0.257929
vn -0.375861 0.924819 -0.058641
vn -0.080786 0.954088 0.288428
vn -0.302720 0.938054 0.168569
vn -0.133712 0.307674 -0.942050
vn -0.151415 0.348456 0.925015
vn -0.964064 0.261873 -0.044745
vn -0.750725 0.290135 0.593493
vn -0.743652 0.270322 -0.611480
vn -0.182515 0.031419 0.982701
vn -0.544026 0.031725 0.838469
vn -0.940871 -0.017333 0.338320
vn -0.940871 -0.017333 0.338320
vn -0.933673 -0.012052 -0.357924
vn -0.933673 -0.012052 -0.357924
vn -0.158684 0.007237 -0.987303
vn -0.497983 0.005421 -0.867170
s 1
g back_button group1
usemtl initialShadingGroup
f 4/1/1 2/2/2 7/3/3 8/4/4
f 8/5/4 9/6/5 5/7/6 4/8/1
f 8/4/4 7/3/3 1/9/7 3/10/8
f 6/11/9 9/6/5 8/5/4 3/12/8
f 2/13/2 4/14/1 15/15/10 16/16/11
f 3/17/8 1/18/7 10/19/12 11/20/13
f 9/21/5 6/22/9 12/23/14 13/24/15
f 4/25/1 5/26/6 14/27/16 15/28/10
f 6/29/9 3/30/8 11/31/13 12/32/14
f 5/33/6 9/34/5 13/35/15 14/36/16
f 11/37/13 10/38/12 17/39/17 18/40/18
f 12/41/14 11/42/13 18/43/18 19/44/19
f 13/45/15 12/46/14 19/47/20 20/48/21
f 14/49/16 13/50/15 20/51/22 21/52/23
f 15/53/10 14/54/16 21/55/24 22/56/25
f 16/57/11 15/58/10 22/59/25 23/60/26
f 25/61/27 28/62/28 7/63/3 2/64/2
f 28/65/28 25/66/27 26/67/29 29/68/30
f 28/62/28 24/69/31 1/70/7 7/63/3
f 27/71/32 24/72/31 28/65/28 29/68/30
f 2/73/2 16/74/11 34/75/33 25/76/27
f 24/77/31 30/78/34 10/79/12 1/80/7
f 29/81/30 32/82/35 31/83/36 27/84/32
f 25/85/27 34/86/33 33/87/37 26/88/29
f 27/89/32 31/90/36 30/91/34 24/92/31
f 26/93/29 33/94/37 32/95/35 29/96/30
f 30/97/34 35/98/38 17/99/17 10/100/12
f 31/101/36 36/102/39 35/103/38 30/104/34
f 32/105/35 37/106/40 36/107/41 31/108/36
f 33/109/37 38/110/42 37/111/43 32/112/35
f 34/113/33 39/114/44 38/115/45 33/116/37
f 16/117/11 23/118/26 39/119/44 34/120/33
