o dpad_down
v -0.635851 0.257901 -0.389124
v -0.636581 0.296612 -0.403755
v -0.636400 0.286404 -0.501014
v -0.685145 0.285440 -0.494005
v -0.675372 0.287556 -0.475133
v -0.687206 0.255602 -0.474354
v -0.694955 0.254685 -0.485234
v -0.575697 0.267215 -0.486650
v -0.584586 0.266430 -0.476161
v -0.599911 0.294793 -0.477265
v -0.586930 0.295106 -0.496733
v -0.675423 0.253599 -0.394418
v -0.682051 0.253018 -0.399373
v -0.685376 0.253554 -0.407835
v -0.674051 0.292577 -0.408394
v -0.587145 0.263605 -0.407445
v -0.591030 0.262988 -0.398786
v -0.599564 0.261392 -0.393631
v -0.601885 0.299845 -0.407579
v -0.636350 0.284368 -0.390846
v -0.674694 0.280967 -0.396052
v -0.681315 0.279608 -0.400564
v -0.685073 0.278504 -0.409741
v -0.686703 0.274681 -0.474002
v -0.694070 0.274177 -0.485145
v -0.576267 0.285851 -0.487124
v -0.585080 0.284292 -0.476288
v -0.587539 0.287980 -0.409020
v -0.591736 0.288053 -0.400091
v -0.599895 0.287354 -0.395223
v -0.636466 0.290090 -0.475429
v -0.587004 0.264998 -0.441804
v -0.587306 0.285904 -0.443565
v -0.601438 0.298063 -0.445987
v -0.636545 0.294455 -0.441818
v -0.674820 0.291340 -0.441928
v -0.685244 0.276581 -0.441872
v -0.685533 0.254727 -0.441088
v -0.636348 0.283420 -0.539921
vn -0.0390 0.3337 0.9419
vn -0.2144 0.3134 0.9251
vn -0.2281 0.0626 0.9716
vn -0.0250 0.0637 0.9977
vn 0.9993 0.0191 0.0319
vn 0.9096 0.4155 0.0047
vn 0.9216 0.3839 0.0576
vn 0.9931 0.0237 0.1150
vn -0.9549 0.2969 0.0030
vn -0.9996 0.0160 0.0239
vn -0.9942 0.0208 0.1058
vn -0.9614 0.2679 0.0625
vn 0.1554 0.3321 0.9303
vn 0.1875 0.0643 0.9802
vn -0.0262 0.9997 0.0007
vn -0.1013 0.9919 -0.0762
vn -0.0995 0.9904 -0.0958
vn -0.0981 0.9880 -0.1189
vn 0.0435 0.9966 -0.0706
vn -0.2412 0.9672 -0.0800
vn -0.1631 0.9861 -0.0302
vn -0.9219 0.3554 0.1544
vn -0.7893 0.4028 0.4634
vn -0.8250 0.0232 0.5647
vn -0.9789 0.0215 0.2033
vn 0.9726 0.0273 0.2310
vn 0.7672 0.0329 0.6405
vn 0.6502 0.5342 0.5402
vn 0.8508 0.4801 0.2137
vn -0.7958 0.0512 0.6034
vn -0.7866 0.1812 0.5902
vn 0.7197 0.0550 0.6921
vn 0.7235 0.2243 0.6529
vn -0.2895 0.9434 0.1616
vn -0.0939 0.9691 0.2282
vn -0.0970 0.9919 -0.0816
vn -0.3192 0.9451 -0.0701
vn 0.1214 0.9813 0.1494
vn 0.1419 0.9872 -0.0724
vt 0.498667 0.129828
vt 0.408794 0.129828
vt 0.405260 -0.000000
vt 0.498667 0.000000
vt 0.664691 0.000000
vt 0.664625 0.129828
vt 0.635813 0.129828
vt 0.635649 0.000000
vt 0.335394 0.129828
vt 0.335324 0.000000
vt 0.364351 0.000000
vt 0.364052 0.129828
vt 0.591885 0.129828
vt 0.594725 0.000000
vt 0.693939 0.250119
vt 0.498667 0.374372
vt 0.498666 0.331254
vt 0.498667 0.316509
vt 0.625000 0.318164
vt 0.645025 0.326017
vt 0.375000 0.317856
vt 0.355362 0.324681
vt 0.306737 0.129828
vt 0.293746 0.129828
vt 0.293746 0.000000
vt 0.306297 0.000000
vt 0.693733 0.000000
vt 0.706254 0.000000
vt 0.706254 0.129828
vt 0.693438 0.129828
vt 0.375000 0.000000
vt 0.375000 0.129828
vt 0.625000 0.000000
vt 0.625000 0.129828
vt 0.383326 0.237330
vt 0.498667 0.250000
vt 0.498667 0.283254
vt 0.379163 0.277593
vt 0.616040 0.236184
vt 0.620520 0.277174
vt 0.345235 0.243665
vt 0.307144 0.250000
vt 0.306368 0.251955
vt 0.693164 0.250000
vt 0.654602 0.243092
s 1
f 20/1/1 21/2/2 12/3/3 1/4/4
f 32/5/5 33/6/6 28/7/7 16/8/8
f 37/9/9 38/10/10 14/11/11 23/12/12
f 30/13/13 20/1/1 1/4/4 18/14/14
f 11/15/15 39/16/16 3/17/17
f 3/17/17 31/18/18 10/19/19 11/20/15
f 5/21/20 31/18/18 3/17/17 4/22/21
f 24/23/22 25/24/23 7/25/24 6/26/25
f 9/27/26 8/28/27 26/29/28 27/30/29
f 14/11/11 13/31/30 22/32/31 23/12/12
f 13/31/30 12/3/3 21/2/2 22/32/31
f 18/14/14 17/33/32 29/34/33 30/13/13
f 17/33/32 16/8/8 28/7/7 29/34/33
f 15/35/34 2/36/35 35/37/36 36/38/37
f 2/36/35 19/39/38 34/40/39 35/37/36
f 15/35/34 21/2/2 20/1/1 2/36/35
f 22/32/31 21/2/2 15/35/34
f 23/12/12 22/32/31 15/35/34
f 23/12/12 15/35/34 36/41/37 37/9/9
f 5/42/20 4/43/21 25/24/23 24/23/22
f 27/30/29 26/29/28 11/15/15 10/44/19
f 33/6/6 34/45/39 19/39/38 28/7/7
f 29/34/33 28/7/7 19/39/38
f 30/13/13 29/34/33 19/39/38
f 2/36/35 20/1/1 30/13/13 19/39/38
f 4/22/21 3/17/17 39/16/16
f 27/30/29 33/6/6 32/5/5 9/27/26
f 10/44/19 34/45/39 33/6/6 27/30/29
f 35/37/36 34/40/39 10/19/19 31/18/18
f 36/38/37 35/37/36 31/18/18 5/21/20
f 37/9/9 36/41/37 5/42/20 24/23/22
f 6/26/25 38/10/10 37/9/9 24/23/22
