o dpad_up
v -0.636414 0.286696 -0.582960
v -0.636571 0.294494 -0.677585
v -0.635835 0.255314 -0.691819
v -0.636348 0.283420 -0.539921
v -0.684104 0.285561 -0.588791
v -0.673264 0.288354 -0.611767
v -0.692599 0.253696 -0.597868
v -0.685818 0.254085 -0.612126
v -0.586940 0.265277 -0.614078
v -0.578818 0.267945 -0.596759
v -0.600249 0.295577 -0.611843
v -0.590880 0.294615 -0.587434
v -0.673800 0.289803 -0.673572
v -0.685526 0.250701 -0.671249
v -0.682211 0.249709 -0.681312
v -0.674524 0.250895 -0.686838
v -0.600127 0.298409 -0.672361
v -0.596865 0.260017 -0.686386
v -0.590880 0.260803 -0.682009
v -0.587094 0.261896 -0.672805
v -0.692336 0.274153 -0.597423
v -0.685507 0.275575 -0.611576
v -0.684972 0.277582 -0.671977
v -0.682562 0.277307 -0.678601
v -0.675502 0.278291 -0.684523
v -0.636363 0.283356 -0.689907
v -0.597528 0.288276 -0.684438
v -0.591429 0.288827 -0.679806
v -0.587709 0.288371 -0.670821
v -0.587433 0.285362 -0.613749
v -0.579456 0.284979 -0.596526
v -0.636499 0.291024 -0.612546
v -0.685533 0.252391 -0.641687
v -0.685204 0.276578 -0.641777
v -0.673481 0.290716 -0.642611
v -0.636564 0.294321 -0.643622
v -0.600242 0.298479 -0.641991
v -0.587422 0.286883 -0.642284
v -0.587003 0.263726 -0.643449
vt 0.405163 0.750000
vt 0.407826 0.620172
vt 0.498667 0.620172
vt 0.498667 0.750000
vt 0.164666 0.000000
vt 0.164697 0.129828
vt 0.135987 0.129828
vt 0.135571 0.000000
vt 0.835065 0.129828
vt 0.835013 0.000000
vt 0.864340 0.000000
vt 0.863553 0.129828
vt 0.591966 0.620172
vt 0.594016 0.750000
vt 0.206254 0.129828
vt 0.193407 0.129828
vt 0.193762 0.000000
vt 0.206254 0.000000
vt 0.793746 0.000000
vt 0.805686 0.000000
vt 0.806577 0.129828
vt 0.793746 0.129828
vt 0.221871 0.257856
vt 0.498667 0.374372
vt 0.498667 0.418746
vt 0.245172 0.490344
vt 0.375000 0.750000
vt 0.375000 0.620172
vt 0.375000 0.750000
vt 0.745172 0.259656
vt 0.875000 0.000000
vt 0.875000 0.129828
vt 0.875000 0.000000
vt 0.498667 0.500000
vt 0.387481 0.506690
vt 0.381240 0.469306
vt 0.498667 0.470536
vt 0.622477 0.459373
vt 0.619954 0.486343
vt 0.221871 0.257856
vt 0.193078 0.250000
vt 0.170209 0.264217
vt 0.147339 0.278433
vt 0.391074 0.515123
vt 0.868040 0.210057
vt 0.837721 0.230029
vt 0.807403 0.250000
vt 0.779378 0.255468
vt 0.655692 0.394269
vt 0.375000 0.431922
vt 0.365740 0.419347
vt 0.498667 0.441072
vt 0.625000 0.432403
vn -0.242336 0.070032 -0.967661
vn -0.237853 0.288505 -0.927465
vn -0.030099 0.321983 -0.946267
vn -0.012871 0.071693 -0.997344
vn -0.999851 0.015828 -0.006842
vn -0.950404 0.310978 0.004889
vn -0.956957 0.283483 -0.062214
vn -0.996214 0.016952 -0.085263
vn 0.931354 0.363817 0.014705
vn 0.999767 0.021186 -0.004181
vn 0.991592 0.030409 -0.125781
vn 0.941576 0.328089 -0.076101
vn 0.161509 0.337066 -0.927524
vn 0.198042 0.071839 -0.977557
vn -0.847870 0.387892 -0.361464
vn -0.922439 0.364432 -0.127658
vn -0.989125 0.017146 -0.146071
vn -0.902194 0.022567 -0.430739
vn 0.905007 0.033994 -0.424035
vn 0.989317 0.025900 -0.143460
vn 0.888604 0.442544 -0.120575
vn 0.798555 0.495811 -0.341294
vn -0.171318 0.984195 0.044828
vn -0.097136 0.992389 0.075687
vn -0.097746 0.990296 0.098789
vn -0.806974 0.145507 -0.572382
vn -0.799869 0.039434 -0.598877
vn 0.793085 0.211296 -0.571288
vn 0.788459 0.062638 -0.611889
vn -0.106805 0.956837 -0.270287
vn -0.295849 0.930258 -0.217012
vn -0.317421 0.947634 0.035120
vn -0.106850 0.993340 0.043102
vn 0.118808 0.991648 0.050184
vn 0.085579 0.978215 -0.189134
vn -0.238208 0.968344 0.074610
vn 0.050007 0.995744 0.077421
vn -0.018443 0.998555 0.050466
vn -0.100167 0.988990 0.108928
s 1
f 16/1/1 25/2/2 26/3/3 3/4/4
f 33/5/5 34/6/6 23/7/7 14/8/8
f 38/9/9 39/10/10 20/11/11 29/12/12
f 3/4/4 26/3/3 27/13/13 18/14/14
f 21/15/15 22/16/16 8/17/17 7/18/18
f 10/19/19 9/20/20 30/21/21 31/22/22
f 5/23/23 4/24/24 1/25/25
f 23/7/7 24/26/26 15/27/27 14/8/8
f 24/28/26 25/2/2 16/1/1 15/29/27
f 27/13/13 28/30/28 19/31/29 18/14/14
f 28/32/28 29/12/12 20/11/11 19/33/29
f 2/34/30 13/35/31 35/36/32 36/37/33
f 36/37/33 37/38/34 17/39/35 2/34/30
f 5/40/23 6/41/36 22/16/16 21/15/15
f 34/6/6 35/42/32 13/43/31 23/7/7
f 13/43/31 24/26/26 23/7/7
f 13/35/31 25/2/2 24/28/26
f 26/3/3 25/2/2 13/44/31 2/34/30
f 27/13/13 26/3/3 2/34/30 17/39/35
f 17/39/35 28/30/28 27/13/13
f 17/45/35 29/12/12 28/32/28
f 29/12/12 17/45/35 37/46/34 38/9/9
f 31/22/22 30/21/21 11/47/37 12/48/38
f 12/49/38 1/25/25 4/24/24
f 6/50/36 5/51/23 1/25/25 32/52/39
f 11/53/37 32/52/39 1/25/25 12/49/38
f 22/16/16 34/6/6 33/5/5 8/17/17
f 6/41/36 35/42/32 34/6/6 22/16/16
f 36/37/33 35/36/32 6/50/36 32/52/39
f 11/53/37 37/38/34 36/37/33 32/52/39
f 38/9/9 37/46/34 11/47/37 30/21/21
f 9/20/20 39/10/10 38/9/9 30/21/21
