o dpad_left
v -0.787654 0.233166 -0.539921
v -0.774867 0.276419 -0.539921
v -0.678033 0.282565 -0.539921
v -0.705546 0.284787 -0.578019
v -0.708244 0.251375 -0.589965
v -0.708438 0.284422 -0.501200
v -0.707137 0.252824 -0.490814
v -0.770420 0.276437 -0.576625
v -0.782944 0.233182 -0.577905
v -0.777643 0.234534 -0.586055
v -0.766687 0.237810 -0.589747
v -0.770193 0.278019 -0.505022
v -0.768919 0.239442 -0.491265
v -0.776347 0.237320 -0.493944
v -0.783060 0.235261 -0.503474
v -0.707909 0.273586 -0.491386
v -0.766129 0.266979 -0.491701
v -0.774081 0.266581 -0.494290
v -0.780945 0.266001 -0.503822
v -0.785418 0.264857 -0.539921
v -0.781096 0.264519 -0.576412
v -0.776169 0.264034 -0.585125
v -0.766194 0.264675 -0.589295
v -0.706376 0.272955 -0.589850
v -0.708094 0.283853 -0.539921
v -0.738199 0.246938 -0.491189
v -0.737019 0.270283 -0.491502
v -0.739953 0.283510 -0.502941
v -0.741200 0.282951 -0.539921
v -0.738285 0.282974 -0.577879
v -0.736285 0.268812 -0.589425
v -0.737654 0.245426 -0.589738
v -0.684103 0.285561 -0.588791
v -0.692336 0.274153 -0.597423
v -0.692599 0.253696 -0.597869
v -0.685145 0.285440 -0.494005
v -0.636348 0.283420 -0.539921
v -0.694070 0.274177 -0.485145
v -0.694955 0.254685 -0.485234
vn -0.9976 0.0688 -0.0042
vn -0.9623 0.2721 -0.0047
vn -0.9466 0.2654 -0.1832
vn -0.9776 0.0680 -0.1992
vn -0.0471 0.9882 -0.1456
vn -0.0114 0.9999 -0.0006
vn -0.0031 1.0000 0.0015
vn -0.0605 0.9957 -0.0703
vn -0.1269 0.2814 -0.9512
vn -0.0533 0.3237 -0.9447
vn -0.0083 0.0134 -0.9999
vn -0.1411 0.0233 -0.9897
vn -0.1126 0.0243 0.9933
vn -0.0090 0.0173 0.9998
vn -0.0500 0.3121 0.9487
vn -0.1034 0.2910 0.9511
vn -0.9735 0.0703 0.2175
vn -0.9412 0.2664 0.2076
vn -0.0371 0.9979 0.0530
vn -0.0205 0.9998 0.0028
vn -0.0403 0.9868 0.1571
vn -0.2061 0.3839 -0.9000
vn -0.4394 0.4084 -0.8001
vn -0.4653 0.0354 -0.8844
vn -0.1433 0.0179 -0.9895
vn -0.3598 0.4157 0.8353
vn -0.1569 0.3564 0.9211
vn -0.1229 0.0183 0.9923
vn -0.4145 0.0121 0.9100
vn -0.6261 0.1632 -0.7625
vn -0.6746 0.0564 -0.7360
vn -0.6301 0.1844 0.7543
vn -0.6936 0.0613 0.7178
vn -0.1082 0.9696 0.2194
vn -0.3383 0.9244 0.1762
vn -0.4046 0.9144 -0.0154
vn -0.3375 0.9159 -0.2174
vn -0.1182 0.9619 -0.2465
vn -0.1144 0.9934 -0.0098
vt 0.250628 0.000000
vt 0.250628 0.129828
vt 0.217910 0.129828
vt 0.217076 0.000000
vt 0.206254 0.250000
vt 0.250628 0.250000
vt 0.221871 0.257856
vt 0.206254 0.129828
vt 0.206254 0.000000
vt 0.293746 0.000000
vt 0.293746 0.129828
vt 0.282904 0.000000
vt 0.282129 0.129828
vt 0.306368 0.251955
vt 0.498667 0.374372
vt 0.375000 0.374372
vt 0.293746 0.250000
vt 0.290872 0.237544
vt 0.287998 0.225088
vt 0.211816 0.224309
vt 0.209035 0.237155
s 1
f 1/1/1 20/2/2 21/3/3 9/4/4
f 4/5/5 25/6/6 3/6/7 33/7/8
f 23/8/9 31/8/10 32/9/11 11/9/12
f 13/10/13 26/10/14 27/11/15 17/11/16
f 15/12/17 19/13/18 20/2/2 1/1/1
f 36/14/19 37/15/20 3/16/7
f 6/17/21 36/14/19 3/6/7 25/6/6
f 24/8/22 34/8/23 35/9/24 5/9/25
f 38/11/26 16/11/27 7/10/28 39/10/29
f 21/3/3 22/8/30 10/9/31 9/4/4
f 22/8/30 23/8/9 11/9/12 10/9/31
f 17/11/16 18/11/32 14/10/33 13/10/13
f 18/11/32 19/13/18 15/12/17 14/10/33
f 36/14/19 6/17/21 16/11/27 38/11/26
f 27/11/15 28/18/34 12/19/35 17/11/16
f 12/19/35 18/11/32 17/11/16
f 12/19/35 19/13/18 18/11/32
f 20/2/2 19/13/18 12/19/35 2/6/36
f 21/3/3 20/2/2 2/6/36 8/20/37
f 8/20/37 22/8/30 21/3/3
f 8/20/37 23/8/9 22/8/30
f 8/20/37 30/21/38 31/8/10 23/8/9
f 4/5/5 33/7/8 34/8/23 24/8/22
f 33/7/8 3/16/7 37/15/20
f 29/6/39 30/21/38 8/20/37 2/6/36
f 12/19/35 28/18/34 29/6/39 2/6/36
f 27/11/15 26/10/14 7/10/28 16/11/27
f 16/11/27 6/17/21 28/18/34 27/11/15
f 29/6/39 28/18/34 6/17/21 25/6/6
f 25/6/6 4/5/5 30/21/38 29/6/39
f 31/8/10 30/21/38 4/5/5 24/8/22
f 32/9/11 31/8/10 24/8/22 5/9/25
