# This file uses centimeters as units for non-parametric coordinates.

mtllib dpad_left.mtl
g default
v -0.787654 0.233166 -0.539921
v -0.774867 0.276419 -0.539921
v -0.678033 0.282565 -0.539921
v -0.705546 0.284787 -0.578019
v -0.708244 0.251375 -0.589965
v -0.708438 0.284422 -0.501200
v -0.707137 0.252824 -0.490814
v -0.770420 0.276437 -0.576625
v -0.782944 0.233182 -0.577905
v -0.777643 0.234534 -0.586055
v -0.766687 0.237810 -0.589747
v -0.770193 0.278019 -0.505022
v -0.768919 0.239442 -0.491265
v -0.776347 0.237320 -0.493944
v -0.783060 0.235261 -0.503474
v -0.707909 0.273586 -0.491386
v -0.766129 0.266979 -0.491701
v -0.774081 0.266581 -0.494290
v -0.780945 0.266001 -0.503822
v -0.785418 0.264857 -0.539921
v -0.781096 0.264519 -0.576412
v -0.776169 0.264034 -0.585125
v -0.766194 0.264675 -0.589295
v -0.706376 0.272955 -0.589850
v -0.708094 0.283853 -0.539921
v -0.738199 0.246938 -0.491189
v -0.737019 0.270283 -0.491502
v -0.739953 0.283510 -0.502941
v -0.741200 0.282951 -0.539921
v -0.738285 0.282974 -0.577879
v -0.736285 0.268812 -0.589425
v -0.737654 0.245426 -0.589738
v -0.684103 0.285561 -0.588791
v -0.692336 0.274153 -0.597423
v -0.692599 0.253696 -0.597869
v -0.685145 0.285440 -0.494005
v -0.636348 0.283420 -0.539921
v -0.694070 0.274177 -0.485145
v -0.694955 0.254685 -0.485234
vt 0.250628 0.000000
vt 0.250628 0.129828
vt 0.217910 0.129828
vt 0.217076 0.000000
vt 0.206254 0.250000
vt 0.250628 0.250000
vt 0.250628 0.250000
vt 0.221871 0.257856
vt 0.206254 0.129828
vt 0.206254 0.129828
vt 0.206254 0.000000
vt 0.206254 0.000000
vt 0.293746 0.000000
vt 0.293746 0.000000
vt 0.293746 0.129828
vt 0.293746 0.129828
vt 0.282904 0.000000
vt 0.282129 0.129828
vt 0.306368 0.251955
vt 0.498667 0.374372
vt 0.375000 0.374372
vt 0.293746 0.250000
vt 0.306368 0.251955
vt 0.206254 0.129828
vt 0.206254 0.129828
vt 0.206254 0.000000
vt 0.206254 0.000000
vt 0.293746 0.129828
vt 0.293746 0.129828
vt 0.293746 0.000000
vt 0.293746 0.000000
vt 0.206254 0.129828
vt 0.206254 0.000000
vt 0.293746 0.129828
vt 0.293746 0.000000
vt 0.290872 0.237544
vt 0.287998 0.225088
vt 0.250628 0.250000
vt 0.211816 0.224309
vt 0.209035 0.237155
vt 0.221871 0.257856
vt 0.250628 0.250000
vn -0.997621 0.068802 -0.004249
vn -0.962278 0.272030 -0.004641
vn -0.946590 0.265362 -0.183167
vn -0.977601 0.067987 -0.199181
vn -0.047089 0.988228 -0.145559
vn -0.011498 0.999934 -0.000591
vn -0.003159 0.999994 0.001478
vn -0.060548 0.995692 -0.070231
vn -0.126893 0.281395 -0.951165
vn -0.053285 0.323714 -0.944653
vn -0.008051 0.013485 -0.999877
vn -0.141036 0.023330 -0.989730
vn -0.112599 0.024296 0.993343
vn -0.008865 0.017173 0.999813
vn -0.049983 0.312104 0.948732
vn -0.103385 0.290956 0.951134
vn -0.973531 0.070325 0.217466
vn -0.941246 0.266385 0.207594
vn -0.037086 0.997910 0.052926
vn -0.020510 0.999786 0.002790
vn -0.040351 0.986759 0.157091
vn -0.206125 0.383933 -0.900060
vn -0.439427 0.408390 -0.800076
vn -0.465313 0.035390 -0.884439
vn -0.143220 0.017849 -0.989530
vn -0.359806 0.415735 0.835287
vn -0.156852 0.356448 0.921055
vn -0.122876 0.018266 0.992254
vn -0.414508 0.012065 0.909966
vn -0.626076 0.163145 -0.762504
vn -0.674597 0.056369 -0.736030
vn -0.630109 0.184380 0.754299
vn -0.693573 0.061328 0.717771
vn -0.108208 0.969623 0.219366
vn -0.338253 0.924416 0.176184
vn -0.404567 0.914379 -0.015374
vn -0.337461 0.915893 -0.217395
vn -0.118243 0.961915 -0.246453
vn -0.114383 0.993389 -0.009753
s 1
g dpad_left group1
usemtl initialShadingGroup
f 1/1/1 20/2/2 21/3/3 9/4/4
f 4/5/5 25/6/6 3/7/7 33/8/8
f 23/9/9 31/10/10 32/11/11 11/12/12
f 13/13/13 26/14/14 27/15/15 17/16/16
f 15/17/17 19/18/18 20/2/2 1/1/1
f 36/19/19 37/20/20 3/21/7
f 6/22/21 36/23/19 3/7/7 25/6/6
f 24/24/22 34/25/23 35/26/24 5/27/25
f 38/28/26 16/29/27 7/30/28 39/31/29
f 21/3/3 22/32/30 10/33/31 9/4/4
f 22/32/30 23/9/9 11/12/12 10/33/31
f 17/16/16 18/34/32 14/35/33 13/13/13
f 18/34/32 19/18/18 15/17/17 14/35/33
f 36/23/19 6/22/21 16/29/27 38/28/26
f 27/15/15 28/36/34 12/37/35 17/16/16
f 12/37/35 18/34/32 17/16/16
f 12/37/35 19/18/18 18/34/32
f 20/2/2 19/18/18 12/37/35 2/38/36
f 21/3/3 20/2/2 2/38/36 8/39/37
f 8/39/37 22/32/30 21/3/3
f 8/39/37 23/9/9 22/32/30
f 8/39/37 30/40/38 31/10/10 23/9/9
f 4/5/5 33/8/8 34/25/23 24/24/22
f 33/41/8 3/21/7 37/20/20
f 29/42/39 30/40/38 8/39/37 2/38/36
f 12/37/35 28/36/34 29/42/39 2/38/36
f 27/15/15 26/14/14 7/30/28 16/29/27
f 16/29/27 6/22/21 28/36/34 27/15/15
f 29/42/39 28/36/34 6/22/21 25/6/6
f 25/6/6 4/5/5 30/40/38 29/42/39
f 31/10/10 30/40/38 4/5/5 24/24/22
f 32/11/11 31/10/10 24/24/22 5/27/25
