o dpad_up
v -0.636414 0.286696 -0.582960
v -0.636571 0.294494 -0.677585
v -0.635835 0.255314 -0.691819
v -0.636348 0.283420 -0.539921
v -0.684104 0.285561 -0.588791
v -0.673264 0.288354 -0.611767
v -0.692599 0.253696 -0.597868
v -0.685818 0.254085 -0.612126
v -0.586940 0.265277 -0.614078
v -0.578818 0.267945 -0.596759
v -0.600249 0.295577 -0.611843
v -0.590880 0.294615 -0.587434
v -0.673800 0.289803 -0.673572
v -0.685526 0.250701 -0.671249
v -0.682211 0.249709 -0.681312
v -0.674524 0.250895 -0.686838
v -0.600127 0.298409 -0.672361
v -0.596865 0.260017 -0.686386
v -0.590880 0.260803 -0.682009
v -0.587094 0.261896 -0.672805
v -0.692336 0.274153 -0.597423
v -0.685507 0.275575 -0.611576
v -0.684972 0.277582 -0.671977
v -0.682562 0.277307 -0.678601
v -0.675502 0.278291 -0.684523
v -0.636363 0.283356 -0.689907
v -0.597528 0.288276 -0.684438
v -0.591429 0.288827 -0.679806
v -0.587709 0.288371 -0.670821
v -0.587433 0.285362 -0.613749
v -0.579456 0.284979 -0.596526
v -0.636499 0.291024 -0.612546
v -0.685533 0.252391 -0.641687
v -0.685204 0.276578 -0.641777
v -0.673481 0.290716 -0.642611
v -0.636564 0.294321 -0.643622
v -0.600242 0.298479 -0.641991
v -0.587422 0.286883 -0.642284
v -0.587003 0.263726 -0.643449
vn -0.2424 0.0700 -0.9677
vn -0.2379 0.2885 -0.9274
vn -0.0301 0.3220 -0.9463
vn -0.0130 0.0717 -0.9973
vn -0.9999 0.0157 -0.0070
vn -0.9504 0.3110 0.0049
vn -0.9570 0.2835 -0.0622
vn -0.9962 0.0170 -0.0853
vn 0.9314 0.3638 0.0150
vn 0.9998 0.0212 -0.0040
vn 0.9916 0.0304 -0.1258
vn 0.9416 0.3281 -0.0761
vn 0.1616 0.3371 -0.9275
vn 0.1981 0.0718 -0.9776
vn -0.8479 0.3879 -0.3615
vn -0.9224 0.3644 -0.1277
vn -0.9891 0.0164 -0.1461
vn -0.9022 0.0226 -0.4307
vn 0.9050 0.0340 -0.4240
vn 0.9893 0.0259 -0.1435
vn 0.8886 0.4426 -0.1206
vn 0.7986 0.4958 -0.3413
vn -0.1713 0.9842 0.0448
vn -0.0972 0.9924 0.0757
vn -0.0977 0.9903 0.0988
vn -0.8070 0.1455 -0.5724
vn -0.7999 0.0394 -0.5989
vn 0.7931 0.2114 -0.5713
vn 0.7885 0.0626 -0.6119
vn -0.1068 0.9568 -0.2703
vn -0.2959 0.9302 -0.2170
vn -0.3175 0.9476 0.0351
vn -0.1068 0.9933 0.0430
vn 0.1188 0.9916 0.0502
vn 0.0856 0.9782 -0.1891
vn -0.2382 0.9683 0.0746
vn 0.0501 0.9957 0.0774
vn -0.0184 0.9986 0.0505
vn -0.1003 0.9890 0.1090
vt 0.405163 0.750000
vt 0.407826 0.620172
vt 0.498667 0.620172
vt 0.498667 0.750000
vt 0.164666 0.000000
vt 0.164697 0.129828
vt 0.135987 0.129828
vt 0.135571 0.000000
vt 0.835065 0.129828
vt 0.835013 0.000000
vt 0.864340 0.000000
vt 0.863553 0.129828
vt 0.591966 0.620172
vt 0.594016 0.750000
vt 0.206254 0.129828
vt 0.193407 0.129828
vt 0.193762 0.000000
vt 0.206254 0.000000
vt 0.793746 0.000000
vt 0.805686 0.000000
vt 0.806577 0.129828
vt 0.793746 0.129828
vt 0.221871 0.257856
vt 0.498667 0.374372
vt 0.498667 0.418746
vt 0.245172 0.490344
vt 0.375000 0.750000
vt 0.375000 0.620172
vt 0.745172 0.259656
vt 0.875000 0.000000
vt 0.875000 0.129828
vt 0.498667 0.500000
vt 0.387481 0.506690
vt 0.381240 0.469306
vt 0.498667 0.470536
vt 0.622477 0.459373
vt 0.619954 0.486343
vt 0.193078 0.250000
vt 0.170209 0.264217
vt 0.147339 0.278433
vt 0.391074 0.515123
vt 0.868040 0.210057
vt 0.837721 0.230029
vt 0.807403 0.250000
vt 0.779378 0.255468
vt 0.655692 0.394269
vt 0.375000 0.431922
vt 0.365740 0.419347
vt 0.498667 0.441072
vt 0.625000 0.432403
s 1
f 16/1/1 25/2/2 26/3/3 3/4/4
f 33/5/5 34/6/6 23/7/7 14/8/8
f 38/9/9 39/10/10 20/11/11 29/12/12
f 3/4/4 26/3/3 27/13/13 18/14/14
f 21/15/15 22/16/16 8/17/17 7/18/18
f 10/19/19 9/20/20 30/21/21 31/22/22
f 5/23/23 4/24/24 1/25/25
f 23/7/7 24/26/26 15/27/27 14/8/8
f 24/28/26 25/2/2 16/1/1 15/27/27
f 27/13/13 28/29/28 19/30/29 18/14/14
f 28/31/28 29/12/12 20/11/11 19/30/29
f 2/32/30 13/33/31 35/34/32 36/35/33
f 36/35/33 37/36/34 17/37/35 2/32/30
f 5/23/23 6/38/36 22/16/16 21/15/15
f 34/6/6 35/39/32 13/40/31 23/7/7
f 13/40/31 24/26/26 23/7/7
f 13/33/31 25/2/2 24/28/26
f 26/3/3 25/2/2 13/41/31 2/32/30
f 27/13/13 26/3/3 2/32/30 17/37/35
f 17/37/35 28/29/28 27/13/13
f 17/42/35 29/12/12 28/31/28
f 29/12/12 17/42/35 37/43/34 38/9/9
f 31/22/22 30/21/21 11/44/37 12/45/38
f 12/46/38 1/25/25 4/24/24
f 6/47/36 5/48/23 1/25/25 32/49/39
f 11/50/37 32/49/39 1/25/25 12/46/38
f 22/16/16 34/6/6 33/5/5 8/17/17
f 6/38/36 35/39/32 34/6/6 22/16/16
f 36/35/33 35/34/32 6/47/36 32/49/39
f 11/50/37 37/36/34 36/35/33 32/49/39
f 38/9/9 37/43/34 11/44/37 30/21/21
f 9/20/20 39/10/10 38/9/9 30/21/21
