o east_button
v 0.491704 0.306416 -0.515799
v 0.539713 0.304719 -0.514871
v 0.540636 0.304850 -0.563923
v 0.537343 0.300267 -0.491723
v 0.552414 0.299863 -0.502270
v 0.468172 0.302913 -0.518574
v 0.479252 0.302561 -0.502823
v 0.490576 0.306594 -0.562522
v 0.563978 0.299713 -0.560835
v 0.563225 0.299787 -0.518460
v 0.552568 0.299944 -0.578084
v 0.494587 0.301921 -0.491857
v 0.492825 0.302068 -0.587714
v 0.477676 0.302042 -0.578126
v 0.466427 0.302509 -0.560651
v 0.537278 0.300771 -0.587848
v 0.494485 0.275746 -0.483209
v 0.540036 0.273617 -0.484053
v 0.559151 0.272784 -0.496818
v 0.572228 0.272196 -0.515740
v 0.573813 0.272008 -0.561232
v 0.561765 0.272495 -0.581386
v 0.541419 0.273430 -0.596266
v 0.491599 0.276047 -0.596530
v 0.471695 0.277175 -0.582506
v 0.458549 0.277906 -0.561073
v 0.460715 0.277638 -0.514583
v 0.474363 0.276822 -0.495764
v 0.577430 0.271924 -0.539709
v 0.568572 0.299425 -0.539709
v 0.541569 0.306207 -0.539709
v 0.490239 0.307782 -0.539709
v 0.463599 0.303135 -0.539709
v 0.454992 0.278060 -0.539709
v 0.515463 0.274806 -0.479239
v 0.515457 0.301256 -0.487492
v 0.515457 0.307095 -0.514006
v 0.515457 0.308962 -0.539709
v 0.515456 0.307368 -0.564538
v 0.515457 0.302002 -0.590920
v 0.515457 0.274721 -0.601696
v 0.539189 0.288163 -0.483959
v 0.558815 0.286884 -0.496815
v 0.571523 0.285139 -0.514728
v 0.577196 0.286069 -0.539708
v 0.572641 0.286671 -0.563600
v 0.559149 0.287879 -0.583768
v 0.539568 0.289781 -0.596676
v 0.515457 0.291122 -0.601306
v 0.491283 0.292915 -0.595707
v 0.472147 0.293330 -0.582175
v 0.459826 0.293892 -0.562755
v 0.455810 0.294847 -0.539709
v 0.461154 0.294131 -0.515301
v 0.474375 0.292994 -0.496429
v 0.492673 0.291223 -0.484295
v 0.515457 0.289553 -0.479475
vn -0.084992 0.989592 0.116125
vn -0.103577 0.994617 0.003116
vn -0.388990 0.921193 0.009553
vn -0.380492 0.907062 0.180181
vn 0.033393 0.990145 0.136009
vn 0.032906 0.999449 0.004371
vn -0.153749 0.880294 0.448824
vn 0.033538 0.875049 0.482871
vn -0.334702 0.865031 0.373760
vn 0.148754 0.981386 0.121465
vn 0.511000 0.834149 0.207543
vn 0.538738 0.842287 0.017709
vn 0.166842 0.985974 0.004399
vn 0.231624 0.846803 0.478827
vn 0.445746 0.791681 0.417793
vn 0.030311 0.991428 -0.127091
vn 0.028986 0.907576 -0.418887
vn -0.147060 0.902209 -0.405453
vn -0.093616 0.989298 -0.111915
vn 0.152259 0.981993 -0.111832
vn 0.501204 0.844186 -0.190118
vn 0.431236 0.814889 -0.387287
vn 0.212661 0.876812 -0.431251
vn 0.360965 0.273082 0.891701
vn 0.679708 0.282859 0.676748
vn -0.356772 0.280982 0.890934
vn 0.015251 0.285217 0.958342
vn 0.880040 0.286419 0.378806
vn -0.877004 0.288202 0.384453
vn -0.659925 0.278926 0.697638
vn -0.953119 0.300712 0.033702
vn -0.340920 0.871622 -0.352204
vn -0.392719 0.903805 -0.170028
vn 0.884032 0.301206 -0.357439
vn 0.685491 0.280143 -0.672028
vn 0.951271 0.307142 0.027331
vn 0.358659 0.295596 -0.885430
vn -0.358753 0.304018 -0.882536
vn -0.699494 0.253640 -0.668113
vn 0.005496 0.317686 -0.948180
vn -0.892014 0.275995 -0.357963
vn 0.382347 0.015526 0.923888
vn 0.696079 0.015355 0.717801
vn 0.924934 0.019227 0.379640
vn 0.999291 0.030164 0.022537
vn 0.937580 0.028792 -0.346575
vn 0.739849 0.016328 -0.672575
vn 0.403251 0.009537 -0.915040
vn -0.000739 0.022025 -0.999757
vn -0.390440 0.032978 -0.920038
vn -0.722008 0.027827 -0.691325
vn -0.936676 0.040226 -0.347879
vn -0.998078 0.048367 0.038742
vn -0.913835 0.039530 0.404158
vn -0.686171 0.026131 0.726971
vn -0.360012 0.024539 0.932625
vn 0.009585 0.020422 0.999746
s 1
f 1//1 32//2 33//3 6//4
f 1//1 37//5 38//6 32//2
f 1//1 12//7 36//8 37//5
f 1//1 6//4 7//9 12//7
f 2//10 10//11 30//12 31//13
f 2//10 4//14 5//15 10//11
f 39//16 40//17 13//18 8//19
f 3//20 9//21 11//22 16//23
f 4//14 42//24 43//25 5//15
f 56//26 57//27 36//8 12//7
f 5//15 43//25 44//28 10//11
f 6//4 54//29 55//30 7//9
f 6//4 33//3 53//31 54//29
f 7//9 55//30 56//26 12//7
f 8//19 13//18 14//32 15//33
f 9//21 46//34 47//35 11//22
f 44//28 45//36 30//12 10//11
f 11//22 47//35 48//37 16//23
f 13//18 50//38 51//39 14//32
f 13//18 40//17 49//40 50//38
f 14//32 51//39 52//41 15//33
f 9//21 30//12 45//36 46//34
f 31//13 30//12 9//21 3//20
f 32//2 38//6 39//16 8//19
f 33//3 32//2 8//19 15//33
f 52//41 53//31 33//3 15//33
f 4//14 36//8 57//27 42//24
f 37//5 36//8 4//14 2//10
f 38//6 37//5 2//10 31//13
f 39//16 38//6 31//13 3//20
f 3//20 16//23 40//17 39//16
f 48//37 49//40 40//17 16//23
f 43//25 42//24 18//42 19//43
f 44//28 43//25 19//43 20//44
f 29//45 45//36 44//28 20//44
f 46//34 45//36 29//45 21//46
f 47//35 46//34 21//46 22//47
f 48//37 47//35 22//47 23//48
f 41//49 49//40 48//37 23//48
f 50//38 49//40 41//49 24//50
f 51//39 50//38 24//50 25//51
f 52//41 51//39 25//51 26//52
f 34//53 53//31 52//41 26//52
f 54//29 53//31 34//53 27//54
f 55//30 54//29 27//54 28//55
f 56//26 55//30 28//55 17//56
f 35//57 57//27 56//26 17//56
f 42//24 57//27 35//57 18//42
