o east_button
v 0.732987 0.281250 -0.515799
v 0.780997 0.271333 -0.514871
v 0.781919 0.271306 -0.563923
v 0.778627 0.267287 -0.491723
v 0.793697 0.264303 -0.502270
v 0.709455 0.281776 -0.518574
v 0.720536 0.279527 -0.502823
v 0.731859 0.281621 -0.562522
v 0.805261 0.262173 -0.560835
v 0.804508 0.262376 -0.518460
v 0.793851 0.264357 -0.578084
v 0.735870 0.276261 -0.491857
v 0.734108 0.276710 -0.587714
v 0.718959 0.279278 -0.578126
v 0.707711 0.281671 -0.560651
v 0.778561 0.267802 -0.587848
v 0.735768 0.251366 -0.483209
v 0.781319 0.235223 -0.484053
v 0.800434 0.229663 -0.496818
v 0.813511 0.226510 -0.515740
v 0.815096 0.224535 -0.561232
v 0.803048 0.227085 -0.581386
v 0.782703 0.232916 -0.596266
v 0.732882 0.250899 -0.596530
v 0.712978 0.255435 -0.582506
v 0.699832 0.258417 -0.561073
v 0.701998 0.257778 -0.514583
v 0.715647 0.254625 -0.495764
v 0.818713 0.224727 -0.539709
v 0.809855 0.261098 -0.539709
v 0.782852 0.272504 -0.539709
v 0.731522 0.282867 -0.539709
v 0.704883 0.282781 -0.539709
v 0.696275 0.259180 -0.539709
v 0.756746 0.243135 -0.479239
v 0.756740 0.272023 -0.487492
v 0.756740 0.277862 -0.514006
v 0.756740 0.279729 -0.539709
v 0.756739 0.278135 -0.564538
v 0.756740 0.272769 -0.590920
v 0.756740 0.242296 -0.601696
v 0.780472 0.254867 -0.483959
v 0.800098 0.250228 -0.496815
v 0.812806 0.246307 -0.514728
v 0.818479 0.246266 -0.539708
v 0.813924 0.247648 -0.563600
v 0.800433 0.251166 -0.583768
v 0.780851 0.256420 -0.596676
v 0.756740 0.261889 -0.601306
v 0.732566 0.267821 -0.595707
v 0.713430 0.271512 -0.582175
v 0.701109 0.274184 -0.562755
v 0.697093 0.275827 -0.539709
v 0.702438 0.274196 -0.515301
v 0.715658 0.270795 -0.496429
v 0.733956 0.265891 -0.484295
v 0.756740 0.260320 -0.479475
vn 0.0835 0.9897 0.1159
vn 0.0657 0.9978 0.0031
vn -0.2715 0.9624 0.0107
vn -0.2578 0.9461 0.1962
vn 0.1979 0.9711 0.1333
vn 0.1988 0.9800 0.0043
vn -0.0144 0.8878 0.4600
vn 0.1671 0.8627 0.4773
vn -0.2070 0.8960 0.3928
vn 0.3040 0.9455 0.1168
vn 0.5973 0.7789 0.1912
vn 0.6199 0.7845 0.0161
vn 0.3213 0.9470 0.0043
vn 0.3520 0.8162 0.4581
vn 0.5403 0.7430 0.3951
vn 0.1947 0.9729 -0.1250
vn 0.1753 0.8937 -0.4130
vn -0.0088 0.9093 -0.4161
vn 0.0749 0.9909 -0.1120
vn 0.3073 0.9455 -0.1074
vn 0.5899 0.7885 -0.1742
vn 0.5300 0.7654 -0.3649
vn 0.3364 0.8466 -0.4124
vn 0.3971 0.2606 0.8800
vn 0.7032 0.2621 0.6610
vn -0.3164 0.2915 0.9027
vn 0.0617 0.2830 0.9571
vn 0.8932 0.2604 0.3666
vn -0.8579 0.3265 0.3968
vn -0.6249 0.3032 0.7194
vn -0.9389 0.3426 0.0328
vn -0.2148 0.9030 -0.3720
vn -0.2735 0.9437 -0.1861
vn 0.8995 0.2703 -0.3432
vn 0.7135 0.2555 -0.6524
vn 0.9610 0.2754 0.0262
vn 0.4029 0.2785 -0.8718
vn -0.3138 0.3171 -0.8950
vn -0.6689 0.2793 -0.6889
vn 0.0526 0.3152 -0.9476
vn -0.8736 0.3121 -0.3733
vn 0.4105 0.0139 0.9118
vn 0.7107 0.0122 0.7034
vn 0.9281 0.0123 0.3722
vn 0.9997 0.0198 0.0172
vn 0.9371 0.0190 -0.3485
vn 0.7467 0.0120 -0.6651
vn 0.4313 0.0093 -0.9022
vn 0.0416 0.0166 -0.9990
vn -0.3618 0.0304 -0.9318
vn -0.7098 0.0279 -0.7038
vn -0.9335 0.0395 -0.3563
vn -0.9981 0.0483 0.0394
vn -0.9092 0.0401 0.4145
vn -0.6756 0.0264 0.7368
vn -0.3336 0.0257 0.9424
vn 0.0504 0.0151 0.9986
vt 0.000000 0.000000
vt 1.000000 0.000000
vt 1.000000 1.000000
vt 0.000000 1.000000
s 1
f 1/1/1 32/2/2 33/3/3 6/4/4
f 1/1/1 37/2/5 38/3/6 32/4/2
f 1/1/1 12/2/7 36/3/8 37/4/5
f 1/1/1 6/2/4 7/3/9 12/4/7
f 2/1/10 10/2/11 30/3/12 31/4/13
f 2/1/10 4/2/14 5/3/15 10/4/11
f 39/1/16 40/2/17 13/3/18 8/4/19
f 3/1/20 9/2/21 11/3/22 16/4/23
f 4/1/14 42/2/24 43/3/25 5/4/15
f 56/1/26 57/2/27 36/3/8 12/4/7
f 5/1/15 43/2/25 44/3/28 10/4/11
f 6/1/4 54/2/29 55/3/30 7/4/9
f 6/1/4 33/2/3 53/3/31 54/4/29
f 7/1/9 55/2/30 56/3/26 12/4/7
f 8/1/19 13/2/18 14/3/32 15/4/33
f 9/1/21 46/2/34 47/3/35 11/4/22
f 44/1/28 45/2/36 30/3/12 10/4/11
f 11/1/22 47/2/35 48/3/37 16/4/23
f 13/1/18 50/2/38 51/3/39 14/4/32
f 13/1/18 40/2/17 49/3/40 50/4/38
f 14/1/32 51/2/39 52/3/41 15/4/33
f 9/1/21 30/2/12 45/3/36 46/4/34
f 31/1/13 30/2/12 9/3/21 3/4/20
f 32/1/2 38/2/6 39/3/16 8/4/19
f 33/1/3 32/2/2 8/3/19 15/4/33
f 52/1/41 53/2/31 33/3/3 15/4/33
f 4/1/14 36/2/8 57/3/27 42/4/24
f 37/1/5 36/2/8 4/3/14 2/4/10
f 38/1/6 37/2/5 2/3/10 31/4/13
f 39/1/16 38/2/6 31/3/13 3/4/20
f 3/1/20 16/2/23 40/3/17 39/4/16
f 48/1/37 49/2/40 40/3/17 16/4/23
f 43/1/25 42/2/24 18/3/42 19/4/43
f 44/1/28 43/2/25 19/3/43 20/4/44
f 29/1/45 45/2/36 44/3/28 20/4/44
f 46/1/34 45/2/36 29/3/45 21/4/46
f 47/1/35 46/2/34 21/3/46 22/4/47
f 48/1/37 47/2/35 22/3/47 23/4/48
f 41/1/49 49/2/40 48/3/37 23/4/48
f 50/1/38 49/2/40 41/3/49 24/4/50
f 51/1/39 50/2/38 24/3/50 25/4/51
f 52/1/41 51/2/39 25/3/51 26/4/52
f 34/1/53 53/2/31 52/3/41 26/4/52
f 54/1/29 53/2/31 34/3/53 27/4/54
f 55/1/30 54/2/29 27/3/54 28/4/55
f 56/1/26 55/2/30 28/3/55 17/4/56
f 35/1/57 57/2/27 56/3/26 17/4/56
f 42/1/24 57/2/27 35/3/57 18/4/42
