o left_stick_base
v -0.056991 0.117689 0.059253
v -0.079970 0.117503 -0.000081
v 0.000016 0.117620 0.081527
v -0.042703 0.114880 0.045059
v 0.000016 0.114767 0.062601
v -0.061279 0.115158 -0.000081
v -0.042927 0.078340 0.045343
v 0.000016 0.078202 0.063050
v -0.061494 0.078531 -0.000081
v -0.077331 0.050210 0.079675
v 0.000016 0.049652 0.110991
v -0.111035 0.051005 -0.000081
v -0.056306 0.115007 0.025215
v -0.042645 0.096633 0.045128
v -0.022706 0.078257 0.058569
v 0.000016 0.096575 0.062627
v -0.061258 0.096836 -0.000081
v -0.056548 0.078436 0.025386
v -0.041230 0.049986 0.102837
v -0.101699 0.050735 0.043906
v -0.030567 0.117639 0.075770
v -0.073856 0.117575 0.032908
v -0.022542 0.114795 0.058187
v -0.022474 0.096581 0.058236
v -0.056264 0.096723 0.025298
v -0.061062 0.070596 0.063363
v -0.032543 0.070568 0.081546
v 0.000016 0.070430 0.087892
v -0.087359 0.071233 -0.000081
v -0.080141 0.071013 0.035089
v -0.085979 0.026559 0.088593
v -0.045842 0.026310 0.114345
v 0.000016 0.025939 0.123411
v -0.123451 0.027443 -0.000081
v -0.113072 0.027142 0.048825
v -0.090499 -0.000211 0.093254
v -0.048252 -0.000473 0.120360
v 0.000016 -0.000863 0.129902
v -0.129941 0.000719 -0.000081
v -0.119016 0.000403 0.051396
v 0.057023 0.117689 0.059253
v 0.080002 0.117503 -0.000081
v 0.042735 0.114880 0.045059
v 0.061311 0.115158 -0.000081
v 0.042959 0.078340 0.045343
v 0.061526 0.078531 -0.000081
v 0.077363 0.050210 0.079675
v 0.111067 0.051005 -0.000081
v 0.056338 0.115007 0.025215
v 0.042677 0.096633 0.045128
v 0.022738 0.078257 0.058569
v 0.061290 0.096836 -0.000081
v 0.056580 0.078436 0.025386
v 0.041262 0.049986 0.102837
v 0.101731 0.050735 0.043906
v 0.030599 0.117639 0.075770
v 0.073888 0.117575 0.032908
v 0.022574 0.114795 0.058187
v 0.022506 0.096581 0.058236
v 0.056296 0.096723 0.025298
v 0.061094 0.070596 0.063363
v 0.032575 0.070568 0.081546
v 0.087391 0.071233 -0.000081
v 0.080173 0.071013 0.035089
v 0.086011 0.026559 0.088593
v 0.045874 0.026310 0.114345
v 0.123483 0.027443 -0.000081
v 0.113104 0.027142 0.048825
v 0.090531 -0.000211 0.093254
v 0.048284 -0.000473 0.120360
v 0.129973 0.000719 -0.000081
v 0.119048 0.000403 0.051396
v -0.056991 0.117689 -0.059415
v 0.000016 0.117620 -0.081689
v -0.042703 0.114880 -0.045221
v 0.000016 0.114767 -0.062763
v -0.042927 0.078340 -0.045505
v 0.000016 0.078202 -0.063212
v -0.077331 0.050210 -0.079837
v 0.000016 0.049652 -0.111153
v -0.056306 0.115007 -0.025377
v -0.042645 0.096633 -0.045290
v -0.022706 0.078257 -0.058731
v 0.000016 0.096575 -0.062790
v -0.056548 0.078436 -0.025548
v -0.041230 0.049986 -0.102999
v -0.101699 0.050735 -0.044068
v -0.030567 0.117639 -0.075932
v -0.073856 0.117575 -0.033070
v -0.022542 0.114795 -0.058349
v -0.022474 0.096581 -0.058398
v -0.056264 0.096723 -0.025461
v -0.061062 0.070596 -0.063525
v -0.032543 0.070568 -0.081708
v 0.000016 0.070430 -0.088054
v -0.080141 0.071013 -0.035251
v -0.085979 0.026559 -0.088755
v -0.045842 0.026310 -0.114508
v 0.000016 0.025939 -0.123573
v -0.113072 0.027142 -0.048987
v -0.090499 -0.000211 -0.093416
v -0.048252 -0.000473 -0.120522
v 0.000016 -0.000863 -0.130064
v -0.119016 0.000403 -0.051558
v 0.057023 0.117689 -0.059415
v 0.042735 0.114880 -0.045221
v 0.042959 0.078340 -0.045505
v 0.077363 0.050210 -0.079837
v 0.056338 0.115007 -0.025377
v 0.042677 0.096633 -0.045290
v 0.022738 0.078257 -0.058731
v 0.056580 0.078436 -0.025548
v 0.041262 0.049986 -0.102999
v 0.101731 0.050735 -0.044068
v 0.030599 0.117639 -0.075932
v 0.073888 0.117575 -0.033070
v 0.022574 0.114795 -0.058349
v 0.022506 0.096581 -0.058398
v 0.056296 0.096723 -0.025461
v 0.061094 0.070596 -0.063525
v 0.032575 0.070568 -0.081708
v 0.080173 0.071013 -0.035251
v 0.086011 0.026559 -0.088755
v 0.045874 0.026310 -0.114508
v 0.113104 0.027142 -0.048987
v 0.090531 -0.000211 -0.093416
v 0.048284 -0.000473 -0.120522
v 0.119048 0.000403 -0.051558
vn -0.0000 -0.9890 0.1479
vn -0.0558 -0.9895 0.1333
vn -0.0544 -0.9895 0.1340
vn -0.0975 -0.9904 0.0979
vn -0.0972 -0.9904 0.0982
vn -0.1222 -0.9912 0.0502
vn -0.1225 -0.9913 0.0490
vn -0.1295 -0.9916 -0.0000
vn -0.0000 0.0017 1.0000
vn -0.3806 0.0013 0.9247
vn -0.3794 0.0113 0.9252
vn -0.0000 0.0118 0.9999
vn -0.6992 0.0005 0.7149
vn -0.6983 0.0098 0.7157
vn -0.6988 0.0192 0.7150
vn -0.3802 0.0212 0.9246
vn -0.0000 0.0218 0.9998
vn -0.9253 -0.0005 0.3792
vn -0.9248 0.0078 0.3804
vn -1.0000 -0.0013 -0.0000
vn -1.0000 0.0067 -0.0000
vn -0.9999 0.0147 -0.0000
vn -0.9249 0.0162 0.3798
vn -0.0000 0.9548 0.2974
vn -0.1079 0.9557 0.2740
vn -0.2030 0.8347 0.5120
vn -0.0000 0.8321 0.5547
vn -0.1976 0.9574 0.2105
vn -0.3772 0.8375 0.3953
vn -0.2556 0.9601 0.1134
vn -0.4930 0.8434 0.2138
vn -0.2744 0.9616 -0.0000
vn -0.5325 0.8465 -0.0000
vn -0.5532 0.6039 0.5739
vn -0.2962 0.6024 0.7412
vn -0.0000 0.6008 0.7994
vn -0.7917 0.6109 -0.0000
vn -0.7297 0.6082 0.3125
vn -0.6540 0.3413 0.6752
vn -0.3507 0.3412 0.8721
vn -0.0000 0.3405 0.9402
vn -0.9396 0.3424 -0.0000
vn -0.8645 0.3417 0.3686
vn -0.6759 0.2357 0.6983
vn -0.3625 0.2352 0.9018
vn -0.0000 0.2354 0.9719
vn -0.9718 0.2360 -0.0000
vn -0.8939 0.2354 0.3815
vn 0.0544 -0.9895 0.1341
vn 0.0559 -0.9895 0.1332
vn 0.0972 -0.9904 0.0982
vn 0.0975 -0.9904 0.0979
vn 0.1224 -0.9913 0.0493
vn 0.1222 -0.9912 0.0502
vn 0.1295 -0.9916 -0.0000
vn 0.3794 0.0113 0.9252
vn 0.3806 0.0013 0.9247
vn 0.6983 0.0098 0.7157
vn 0.6992 0.0005 0.7149
vn 0.3802 0.0212 0.9246
vn 0.6988 0.0192 0.7150
vn 0.9248 0.0078 0.3804
vn 0.9253 -0.0006 0.3792
vn 1.0000 0.0067 -0.0000
vn 1.0000 -0.0013 -0.0000
vn 0.9249 0.0162 0.3798
vn 0.9999 0.0147 -0.0000
vn 0.2030 0.8347 0.5120
vn 0.1080 0.9557 0.2740
vn 0.3772 0.8375 0.3953
vn 0.1973 0.9574 0.2107
vn 0.4930 0.8434 0.2138
vn 0.2556 0.9601 0.1134
vn 0.5325 0.8465 -0.0000
vn 0.2744 0.9616 -0.0000
vn 0.2962 0.6024 0.7412
vn 0.5532 0.6039 0.5739
vn 0.7297 0.6082 0.3125
vn 0.7918 0.6108 -0.0000
vn 0.3507 0.3412 0.8721
vn 0.6540 0.3413 0.6752
vn 0.8645 0.3417 0.3686
vn 0.9396 0.3424 -0.0000
vn 0.3625 0.2352 0.9018
vn 0.6759 0.2357 0.6983
vn 0.8939 0.2354 0.3815
vn 0.9718 0.2360 -0.0000
vn -0.0000 -0.9890 -0.1479
vn -0.0544 -0.9895 -0.1341
vn -0.0559 -0.9895 -0.1332
vn -0.0972 -0.9904 -0.0982
vn -0.0975 -0.9904 -0.0979
vn -0.1225 -0.9913 -0.0490
vn -0.1222 -0.9912 -0.0502
vn -0.0000 0.0017 -1.0000
vn -0.0000 0.0118 -0.9999
vn -0.3794 0.0113 -0.9252
vn -0.3806 0.0013 -0.9247
vn -0.6983 0.0098 -0.7157
vn -0.6992 0.0005 -0.7150
vn -0.3802 0.0212 -0.9247
vn -0.6988 0.0192 -0.7150
vn -0.0000 0.0218 -0.9998
vn -0.9248 0.0078 -0.3804
vn -0.9253 -0.0006 -0.3792
vn -0.9249 0.0162 -0.3798
vn -0.0000 0.9548 -0.2974
vn -0.0000 0.8321 -0.5547
vn -0.2030 0.8347 -0.5120
vn -0.1080 0.9557 -0.2740
vn -0.3772 0.8375 -0.3953
vn -0.1976 0.9574 -0.2105
vn -0.4930 0.8434 -0.2138
vn -0.2556 0.9601 -0.1134
vn -0.2962 0.6024 -0.7412
vn -0.5531 0.6039 -0.5739
vn -0.0000 0.6008 -0.7994
vn -0.7297 0.6082 -0.3125
vn -0.3507 0.3412 -0.8721
vn -0.6540 0.3413 -0.6752
vn -0.0000 0.3405 -0.9402
vn -0.8645 0.3417 -0.3686
vn -0.3625 0.2352 -0.9018
vn -0.6760 0.2357 -0.6982
vn -0.0000 0.2354 -0.9719
vn -0.8939 0.2354 -0.3815
vn 0.0560 -0.9895 -0.1332
vn 0.0543 -0.9895 -0.1341
vn 0.0975 -0.9904 -0.0979
vn 0.0972 -0.9904 -0.0982
vn 0.1223 -0.9912 -0.0499
vn 0.1224 -0.9913 -0.0493
vn 0.3806 0.0013 -0.9247
vn 0.3794 0.0113 -0.9252
vn 0.6992 0.0005 -0.7150
vn 0.6983 0.0098 -0.7157
vn 0.6988 0.0192 -0.7150
vn 0.3802 0.0212 -0.9247
vn 0.9253 -0.0005 -0.3792
vn 0.9248 0.0078 -0.3804
vn 0.9249 0.0162 -0.3798
vn 0.1079 0.9557 -0.2740
vn 0.2030 0.8347 -0.5120
vn 0.1973 0.9574 -0.2107
vn 0.3772 0.8375 -0.3953
vn 0.2556 0.9601 -0.1134
vn 0.4930 0.8434 -0.2138
vn 0.5531 0.6039 -0.5739
vn 0.2962 0.6024 -0.7412
vn 0.7297 0.6082 -0.3126
vn 0.6540 0.3413 -0.6752
vn 0.3507 0.3412 -0.8721
vn 0.8645 0.3417 -0.3686
vn 0.6759 0.2357 -0.6983
vn 0.3625 0.2352 -0.9018
vn 0.8939 0.2354 -0.3815
vt 0.000000 0.000000
vt 0.500000 0.000000
vt 0.500000 1.000000
vt 0.000000 1.000000
vt 1.000000 0.000000
vt 1.000000 1.000000
vt 0.500000 0.500000
vt 0.000000 0.500000
vt 1.000000 0.500000
vt 0.500000 0.750000
vt 0.000000 0.750000
vt 1.000000 0.750000
s 1
f 3/1/1 21/2/2 23/3/3 5/4/1
f 21/2/2 1/5/4 4/6/5 23/3/3
f 4/4/5 1/1/4 22/2/6 13/3/7
f 22/2/6 2/5/8 6/6/8 13/3/7
f 5/1/9 23/2/10 24/7/11 16/8/12
f 23/2/10 4/5/13 14/9/14 24/7/11
f 24/7/11 14/9/14 7/6/15 15/3/16
f 16/8/12 24/7/11 15/3/16 8/4/17
f 4/1/13 13/2/18 25/7/19 14/8/14
f 13/2/18 6/5/20 17/9/21 25/7/19
f 25/7/19 17/9/21 9/6/22 18/3/23
f 14/8/14 25/7/19 18/3/23 7/4/15
f 8/1/24 15/2/25 27/10/26 28/11/27
f 15/2/25 7/5/28 26/12/29 27/10/26
f 26/11/29 7/1/28 18/2/30 30/10/31
f 18/2/30 9/5/32 29/12/33 30/10/31
f 27/10/26 26/12/29 10/6/34 19/3/35
f 28/11/27 27/10/26 19/3/35 11/4/36
f 30/10/31 29/12/33 12/6/37 20/3/38
f 26/11/29 30/10/31 20/3/38 10/4/34
f 19/1/35 10/5/34 31/6/39 32/4/40
f 11/1/36 19/5/35 32/6/40 33/4/41
f 20/1/38 12/5/37 34/6/42 35/4/43
f 10/1/34 20/5/38 35/6/43 31/4/39
f 32/1/40 31/5/39 36/6/44 37/4/45
f 33/1/41 32/5/40 37/6/45 38/4/46
f 35/1/43 34/5/42 39/6/47 40/4/48
f 31/1/39 35/5/43 40/6/48 36/4/44
f 3/1/1 5/4/1 58/3/49 56/2/50
f 56/2/50 58/3/49 43/6/51 41/5/52
f 43/4/51 49/3/53 57/2/54 41/1/52
f 57/2/54 49/3/53 44/6/55 42/5/55
f 5/1/9 16/8/12 59/7/56 58/2/57
f 58/2/57 59/7/56 50/9/58 43/5/59
f 59/7/56 51/3/60 45/6/61 50/9/58
f 16/8/12 8/4/17 51/3/60 59/7/56
f 43/1/59 50/8/58 60/7/62 49/2/63
f 49/2/63 60/7/62 52/9/64 44/5/65
f 60/7/62 53/3/66 46/6/67 52/9/64
f 50/8/58 45/4/61 53/3/66 60/7/62
f 8/1/24 28/11/27 62/10/68 51/2/69
f 51/2/69 62/10/68 61/12/70 45/5/71
f 61/11/70 64/10/72 53/2/73 45/1/71
f 53/2/73 64/10/72 63/12/74 46/5/75
f 62/10/68 54/3/76 47/6/77 61/12/70
f 28/11/27 11/4/36 54/3/76 62/10/68
f 64/10/72 55/3/78 48/6/79 63/12/74
f 61/11/70 47/4/77 55/3/78 64/10/72
f 54/1/76 66/4/80 65/6/81 47/5/77
f 11/1/36 33/4/41 66/6/80 54/5/76
f 55/1/78 68/4/82 67/6/83 48/5/79
f 47/1/77 65/4/81 68/6/82 55/5/78
f 66/1/80 70/4/84 69/6/85 65/5/81
f 33/1/41 38/4/46 70/6/84 66/5/80
f 68/1/82 72/4/86 71/6/87 67/5/83
f 65/1/81 69/4/85 72/6/86 68/5/82
f 74/1/88 76/4/88 90/3/89 88/2/90
f 88/2/90 90/3/89 75/6/91 73/5/92
f 75/4/91 81/3/93 89/2/94 73/1/92
f 89/2/94 81/3/93 6/6/8 2/5/8
f 76/1/95 84/8/96 91/7/97 90/2/98
f 90/2/98 91/7/97 82/9/99 75/5/100
f 91/7/97 83/3/101 77/6/102 82/9/99
f 84/8/96 78/4/103 83/3/101 91/7/97
f 75/1/100 82/8/99 92/7/104 81/2/105
f 81/2/105 92/7/104 17/9/21 6/5/20
f 92/7/104 85/3/106 9/6/22 17/9/21
f 82/8/99 77/4/102 85/3/106 92/7/104
f 78/1/107 95/11/108 94/10/109 83/2/110
f 83/2/110 94/10/109 93/12/111 77/5/112
f 93/11/111 96/10/113 85/2/114 77/1/112
f 85/2/114 96/10/113 29/12/33 9/5/32
f 94/10/109 86/3/115 79/6/116 93/12/111
f 95/11/108 80/4/117 86/3/115 94/10/109
f 96/10/113 87/3/118 12/6/37 29/12/33
f 93/11/111 79/4/116 87/3/118 96/10/113
f 86/1/115 98/4/119 97/6/120 79/5/116
f 80/1/117 99/4/121 98/6/119 86/5/115
f 87/1/118 100/4/122 34/6/42 12/5/37
f 79/1/116 97/4/120 100/6/122 87/5/118
f 98/1/119 102/4/123 101/6/124 97/5/120
f 99/1/121 103/4/125 102/6/123 98/5/119
f 100/1/122 104/4/126 39/6/47 34/5/42
f 97/1/120 101/4/124 104/6/126 100/5/122
f 74/1/88 115/2/127 117/3/128 76/4/88
f 115/2/127 105/5/129 106/6/130 117/3/128
f 106/4/130 105/1/129 116/2/131 109/3/132
f 116/2/131 42/5/55 44/6/55 109/3/132
f 76/1/95 117/2/133 118/7/134 84/8/96
f 117/2/133 106/5/135 110/9/136 118/7/134
f 118/7/134 110/9/136 107/6/137 111/3/138
f 84/8/96 118/7/134 111/3/138 78/4/103
f 106/1/135 109/2/139 119/7/140 110/8/136
f 109/2/139 44/5/65 52/9/64 119/7/140
f 119/7/140 52/9/64 46/6/67 112/3/141
f 110/8/136 119/7/140 112/3/141 107/4/137
f 78/1/107 111/2/142 121/10/143 95/11/108
f 111/2/142 107/5/144 120/12/145 121/10/143
f 120/11/145 107/1/144 112/2/146 122/10/147
f 112/2/146 46/5/75 63/12/74 122/10/147
f 121/10/143 120/12/145 108/6/148 113/3/149
f 95/11/108 121/10/143 113/3/149 80/4/117
f 122/10/147 63/12/74 48/6/79 114/3/150
f 120/11/145 122/10/147 114/3/150 108/4/148
f 113/1/149 108/5/148 123/6/151 124/4/152
f 80/1/117 113/5/149 124/6/152 99/4/121
f 114/1/150 48/5/79 67/6/83 125/4/153
f 108/1/148 114/5/150 125/6/153 123/4/151
f 124/1/152 123/5/151 126/6/154 127/4/155
f 99/1/121 124/5/152 127/6/155 103/4/125
f 125/1/153 67/5/83 71/6/87 128/4/156
f 123/1/151 125/5/153 128/6/156 126/4/154
