o left_trigger
v -0.617129 -0.274560 -0.768515
v -0.619357 -0.239775 -0.732834
v -0.619377 -0.219293 -0.713072
v -0.643579 -0.218556 -0.709941
v -0.516894 -0.219624 -0.760814
v -0.542852 -0.209952 -0.791540
v -0.653912 0.009150 -0.792369
v -0.500595 -0.124301 -0.789516
v -0.548321 -0.116887 -0.791282
v -0.516099 -0.169746 -0.788283
v -0.558650 -0.159023 -0.788109
v -0.456393 -0.074704 -0.761189
v -0.469330 -0.128655 -0.753784
v -0.481480 -0.008243 -0.792833
v -0.513194 -0.005337 -0.798047
v -0.478952 -0.028129 -0.805937
v -0.674325 -0.188913 -0.770651
v -0.582763 -0.229901 -0.733149
v -0.566711 -0.259455 -0.769309
v -0.583324 -0.239720 -0.794936
v -0.631795 -0.249965 -0.790882
v -0.658997 -0.233523 -0.722830
v -0.683142 -0.266374 -0.750625
v -0.697296 -0.060229 -0.776059
v -0.710308 -0.005780 -0.786802
v -0.596938 -0.212431 -0.788764
v -0.728996 -0.116137 -0.751008
v -0.702637 -0.197242 -0.762017
v -0.728219 -0.211875 -0.746847
v -0.717934 -0.160898 -0.753624
v -0.652256 -0.204709 -0.692010
v -0.686686 -0.212189 -0.701963
v -0.660669 -0.192803 -0.659185
v -0.724047 -0.237939 -0.728767
v -0.618420 -0.203864 -0.692763
v -0.575130 0.001251 -0.799679
v -0.527933 -0.022671 -0.810716
v -0.583027 -0.017360 -0.810714
v -0.488615 -0.075536 -0.796597
v -0.537059 -0.071425 -0.799621
v -0.590069 -0.065962 -0.797973
v -0.594036 -0.111900 -0.788677
v -0.596505 -0.154428 -0.785002
v -0.599894 -0.188334 -0.785552
v -0.654814 -0.011302 -0.801958
v -0.646216 -0.061846 -0.789924
v -0.642066 -0.109166 -0.781274
v -0.688144 -0.110297 -0.769087
v -0.639206 -0.152150 -0.778135
v -0.680037 -0.153162 -0.768025
v -0.637584 -0.188188 -0.779356
v -0.708320 -0.180874 -0.659451
v -0.760039 -0.128813 -0.725381
v -0.529615 -0.162072 -0.695909
v -0.574971 -0.183817 -0.674518
v -0.585940 -0.201741 -0.701565
v -0.453411 -0.030113 -0.769765
v -0.635744 -0.219130 -0.783687
v -0.686320 -0.239210 -0.773955
v -0.676516 -0.216408 -0.773450
v -0.615889 -0.192771 -0.663335
v -0.552718 -0.203990 -0.722701
v -0.572655 -0.194390 -0.788845
v -0.756398 -0.000951 -0.761532
v -0.769349 -0.062919 -0.728872
v -0.708835 0.015057 -0.776999
v -0.779008 -0.000460 -0.733037
v -0.595967 -0.216748 -0.715898
v -0.487846 -0.175361 -0.754639
v -0.740588 -0.060862 -0.754980
v -0.749685 -0.172952 -0.729901
v -0.754769 -0.188673 -0.702835
v -0.772725 -0.134740 -0.688410
v -0.723431 -0.170968 -0.631006
v -0.496148 -0.107935 -0.683020
v -0.470518 -0.066314 -0.732498
v -0.658582 -0.188572 -0.627917
v -0.610643 -0.191486 -0.628922
v -0.566840 -0.172850 -0.636066
v -0.523480 -0.143653 -0.651835
v -0.457253 -0.016926 -0.776295
v -0.752739 0.019853 -0.752257
v -0.773529 0.020765 -0.728393
v -0.783708 -0.063430 -0.691403
v -0.787410 -0.001460 -0.703918
v -0.783913 0.014321 -0.710762
v -0.497299 -0.006140 -0.762141
v -0.560762 0.000651 -0.742364
v -0.627526 0.007782 -0.730709
v -0.681090 0.013507 -0.718359
v -0.726105 0.018319 -0.707967
v -0.753284 0.021228 -0.698633
v -0.773391 0.022781 -0.691662
v -0.785990 0.013702 -0.683966
v -0.786157 -0.065421 -0.658379
v -0.765191 -0.131659 -0.659758
v -0.761865 -0.137067 -0.637175
v -0.755347 0.021422 -0.718045
v -0.730938 0.018802 -0.731218
v -0.689023 0.014314 -0.746763
v -0.634602 0.008495 -0.760381
v -0.567779 0.001359 -0.771585
v -0.506131 -0.005226 -0.782627
v -0.470507 -0.009766 -0.787860
v -0.458947 -0.029379 -0.792835
v -0.466578 -0.077610 -0.786232
v -0.478034 -0.129137 -0.778104
v -0.496030 -0.175359 -0.776571
v -0.524879 -0.218624 -0.780547
v -0.572453 -0.254131 -0.787445
v -0.625005 -0.267652 -0.785388
v -0.688348 -0.256459 -0.766114
v -0.728412 -0.226059 -0.738894
v -0.754371 -0.181404 -0.717197
v -0.768964 -0.132266 -0.707791
v -0.778776 -0.063508 -0.711033
v -0.784318 -0.001054 -0.718804
v -0.779475 0.018393 -0.719724
v -0.485207 -0.118450 -0.725249
v -0.463641 -0.071300 -0.749244
v -0.469745 -0.065775 -0.618647
v -0.495709 -0.107628 -0.618272
v -0.452387 -0.029399 -0.618938
v -0.658507 -0.188519 -0.616784
v -0.723332 -0.170899 -0.616427
v -0.610563 -0.191430 -0.617095
v -0.566714 -0.172762 -0.617481
v -0.523250 -0.143492 -0.617915
v -0.752730 0.021614 -0.617139
v -0.772884 0.023135 -0.617010
v -0.785535 0.014020 -0.616880
v -0.785873 -0.065222 -0.616503
v -0.761724 -0.136969 -0.616327
v -0.725490 0.018749 -0.617311
v -0.680406 0.013984 -0.617594
v -0.626761 0.008316 -0.617932
v -0.559920 0.001238 -0.618352
v -0.496325 -0.005461 -0.618753
v -0.456185 -0.016182 -0.618975
vt 0.000000 0.000000
vt 1.000000 0.000000
vt 1.000000 1.000000
vt 0.000000 1.000000
vt 0.000000 0.500000
vt 1.000000 0.500000
vt 1.000000 1.000000
vt 0.000000 1.000000
vt 0.000000 0.000000
vt 1.000000 0.000000
vt 1.000000 1.000000
vt 0.000000 1.000000
vt 0.000000 0.000000
vt 1.000000 0.000000
vt 1.000000 0.500000
vt 0.000000 0.500000
vt 0.000000 0.000000
vt 1.000000 0.000000
vt 0.000000 0.576664
vt 0.000000 0.423336
vt 1.000000 0.420986
vt 1.000000 1.000000
vt 0.000000 1.000000
vt 0.000000 0.500000
vt 1.000000 0.000000
vt 1.000000 0.579014
vt 0.000000 0.000000
vt 1.000000 0.000000
vt 1.000000 1.000000
vt 0.000000 1.000000
vt 0.000000 0.000000
vt 1.000000 0.000000
vt 1.000000 1.000000
vt 0.000000 1.000000
vt 0.000000 0.000000
vt 1.000000 0.000000
vt 1.000000 1.000000
vt 0.000000 1.000000
vt 0.000000 0.000000
vt 1.000000 0.000000
vt 1.000000 1.000000
vt 0.000000 1.000000
vt 0.000000 0.000000
vt 0.500000 0.000000
vt 0.500000 1.000000
vt 0.000000 1.000000
vt 0.000000 0.000000
vt 1.000000 0.000000
vt 1.000000 1.000000
vt 0.000000 1.000000
vt 0.000000 0.000000
vt 1.000000 0.000000
vt 1.000000 1.000000
vt 0.000000 1.000000
vt 0.000000 0.000000
vt 1.000000 0.000000
vt 1.000000 0.500000
vt 0.000000 0.500000
vt 0.000000 0.500000
vt 1.000000 0.500000
vt 1.000000 1.000000
vt 0.000000 1.000000
vt 0.000000 0.500000
vt 1.000000 0.500000
vt 1.000000 1.000000
vt 0.000000 1.000000
vt 0.500000 1.000000
vt 0.500000 0.000000
vt 1.000000 0.000000
vt 1.000000 1.000000
vt 0.500000 1.000000
vt 0.500000 0.000000
vt 1.000000 0.000000
vt 1.000000 1.000000
vt 0.500000 1.000000
vt 0.500000 0.000000
vt 1.000000 0.000000
vt 1.000000 1.000000
vt 0.500000 1.000000
vt 0.500000 0.000000
vt 1.000000 0.000000
vt 1.000000 1.000000
vt 0.500000 1.000000
vt 0.500000 0.000000
vt 1.000000 0.000000
vt 1.000000 1.000000
vt 0.000000 1.000000
vt 0.000000 0.000000
vt 0.500000 0.000000
vt 1.000000 0.000000
vt 0.000000 1.000000
vt 0.000000 0.000000
vt 1.000000 0.000000
vt 1.000000 1.000000
vt 0.000000 1.000000
vt 0.000000 0.000000
vt 1.000000 0.000000
vt 1.000000 1.000000
vt 0.500000 0.000000
vt 1.000000 1.000000
vt 0.000000 1.000000
vt 0.000000 0.000000
vt 1.000000 0.000000
vt 1.000000 1.000000
vt 0.000000 1.000000
vt 0.000000 0.000000
vt 1.000000 0.000000
vt 0.500000 1.000000
vt 0.000000 0.000000
vt 1.000000 0.000000
vt 1.000000 1.000000
vt 0.000000 1.000000
vt 0.000000 0.000000
vt 1.000000 0.000000
vt 1.000000 1.000000
vt 0.000000 1.000000
vt 1.000000 0.500000
vt 1.000000 1.000000
vt 0.500000 1.000000
vt 0.500000 0.000000
vt 1.000000 0.000000
vt 1.000000 1.000000
vt 0.000000 1.000000
vt 0.000000 0.000000
vt 0.000000 1.000000
vt 0.000000 0.000000
vt 0.000000 1.000000
vt 0.000000 0.000000
vt 0.000000 1.000000
vt 0.000000 0.000000
vt 0.000000 1.000000
vt 0.000000 0.000000
vt 0.000000 0.000000
vt 0.000000 1.000000
vt 1.000000 0.000000
vt 1.000000 1.000000
vt 0.000000 0.000000
vt 1.000000 0.000000
vt 1.000000 1.000000
vt 0.000000 1.000000
vt 1.000000 1.000000
vt 0.000000 1.000000
vt 0.000000 0.000000
vt 1.000000 0.000000
vt 0.000000 0.000000
vt 1.000000 0.000000
vt 1.000000 1.000000
vt 0.000000 1.000000
vt 0.000000 0.000000
vt 1.000000 0.000000
vt 1.000000 1.000000
vt 0.000000 0.000000
vt 0.000000 1.000000
vt 1.000000 1.000000
vt 1.000000 0.000000
vt 0.000000 0.000000
vt 0.000000 1.000000
vt 1.000000 1.000000
vt 1.000000 0.000000
vt 0.000000 0.000000
vt 0.000000 1.000000
vt 1.000000 1.000000
vt 1.000000 0.000000
vt 0.000000 0.000000
vt 0.000000 1.000000
vt 1.000000 1.000000
vt 1.000000 0.000000
vt 0.000000 0.000000
vt 0.000000 1.000000
vt 1.000000 1.000000
vt 1.000000 0.000000
vt 0.000000 0.000000
vt 0.000000 1.000000
vt 1.000000 1.000000
vt 1.000000 0.000000
vt 0.000000 0.000000
vt 0.000000 1.000000
vt 1.000000 1.000000
vt 1.000000 0.000000
vt 0.000000 0.000000
vt 0.000000 1.000000
vt 1.000000 1.000000
vt 1.000000 0.000000
vt 0.000000 0.000000
vt 0.000000 1.000000
vt 1.000000 1.000000
vt 1.000000 0.000000
vt 0.000000 0.000000
vt 0.000000 1.000000
vt 1.000000 1.000000
vt 1.000000 0.000000
vt 0.000000 0.000000
vt 0.000000 1.000000
vt 1.000000 1.000000
vt 1.000000 0.000000
vt 0.000000 0.000000
vt 0.000000 1.000000
vt 1.000000 1.000000
vt 1.000000 0.000000
vt 0.000000 0.000000
vt 0.000000 1.000000
vt 1.000000 1.000000
vt 1.000000 0.000000
vt 0.000000 0.000000
vt 0.000000 1.000000
vt 1.000000 1.000000
vt 1.000000 0.000000
vt 0.000000 0.000000
vt 0.000000 1.000000
vt 1.000000 1.000000
vt 1.000000 0.000000
vt 0.000000 0.000000
vt 0.000000 1.000000
vt 1.000000 1.000000
vt 1.000000 0.000000
vt 0.000000 0.000000
vt 0.000000 1.000000
vt 1.000000 1.000000
vt 1.000000 0.000000
vt 0.000000 0.000000
vt 0.000000 1.000000
vt 1.000000 1.000000
vt 1.000000 0.000000
vt 0.000000 0.000000
vt 0.000000 1.000000
vt 1.000000 1.000000
vt 1.000000 0.000000
vn 0.300914 -0.676325 0.672336
vn 0.296510 -0.679208 0.671385
vn 0.140182 -0.699121 0.701127
vn 0.150311 -0.700411 0.697733
vn 0.039000 -0.091899 -0.995004
vn 0.351975 -0.642574 -0.680597
vn -0.107247 -0.724522 -0.680856
vn -0.201303 -0.103216 -0.974076
vn -0.495038 -0.629501 -0.598887
vn -0.438331 -0.114717 -0.891463
vn 0.037501 -0.691051 0.721833
vn 0.037037 -0.684753 0.727833
vn 0.235376 -0.715955 0.657272
vn 0.121004 -0.733979 0.668306
vn 0.043108 -0.735818 0.675806
vn 0.131295 -0.879949 0.456564
vn -0.024161 -0.869909 0.492620
vn 0.347137 -0.776154 0.526384
vn 0.600805 -0.496727 -0.626335
vn 0.172326 -0.085626 -0.981311
vn 0.485148 -0.602883 0.633374
vn 0.465398 -0.639013 0.612427
vn 0.650176 -0.461490 0.603571
vn 0.596259 -0.544742 0.589688
vn 0.700079 -0.344303 -0.625576
vn 0.188563 -0.093961 -0.977556
vn -0.053177 0.086374 -0.994843
vn -0.037269 -0.013839 -0.999209
vn -0.114530 0.152441 -0.981654
vn -0.547239 -0.200619 -0.812577
vn -0.595378 -0.053284 -0.801677
vn -0.369650 -0.054711 -0.927559
vn -0.347490 -0.220371 -0.911420
vn -0.100242 0.878894 -0.466365
vn 0.003439 0.883871 -0.467719
vn -0.190270 -0.022242 -0.981480
vn 0.067386 0.882138 -0.466146
vn -0.069770 0.009583 -0.997517
vn 0.171834 -0.155154 -0.972831
vn -0.023293 -0.123313 -0.992095
vn -0.003464 -0.201113 -0.979562
vn 0.180973 -0.210566 -0.960682
vn 0.739151 -0.237526 -0.630268
vn 0.728353 -0.278171 -0.626197
vn -0.122849 -0.031037 -0.991940
vn -0.115052 -0.136962 -0.983872
vn -0.133755 0.064017 -0.988945
vn 0.761176 -0.061443 -0.645629
vn 0.224895 -0.035261 -0.973745
vn 0.127081 0.847813 -0.514843
vn 0.230350 0.744391 -0.626754
vn 0.036125 0.010350 -0.999294
vn -0.274151 0.064601 -0.959514
vn -0.299860 -0.029324 -0.953532
vn -0.200554 -0.034928 -0.979060
vn -0.197473 0.068699 -0.977898
vn -0.195951 0.151256 -0.968878
vn -0.311944 0.124080 -0.941964
vn -0.449794 0.045655 -0.891965
vn -0.483955 -0.033783 -0.874441
vn -0.322739 -0.135388 -0.936755
vn -0.509716 -0.127852 -0.850790
vn -0.144664 -0.750197 0.645196
vn -0.151946 -0.701028 0.696758
vn -0.792655 -0.431862 -0.430341
vn -0.652052 -0.109624 -0.750207
vn -0.203112 -0.222351 -0.953575
vn -0.204357 -0.141518 -0.968613
vn -0.721187 -0.134046 -0.679648
vn -0.751609 -0.172076 -0.636769
vn -0.703706 -0.106542 -0.702457
vn -0.061723 -0.901550 0.428250
vn -0.363627 -0.714155 0.598129
vn 0.132279 -0.917906 0.374100
vn 0.390062 -0.785545 0.480386
vn -0.103892 -0.214270 -0.971234
vn -0.794851 -0.068205 -0.602959
vn -0.905497 -0.287314 -0.312291
vn -0.437943 -0.650050 0.621000
vn -0.928806 -0.178503 -0.324739
vn 0.851131 -0.519888 0.072759
vn 0.658635 -0.724361 0.203716
vn 0.880703 -0.330533 0.339278
vn 0.922196 -0.166800 0.348902
vn 0.912177 -0.403691 0.070482
vn 0.993521 -0.088078 -0.071816
vn -0.158355 -0.983046 0.092436
vn -0.510795 -0.859657 0.008890
vn -0.388386 -0.916682 0.094075
vn -0.150307 -0.979747 0.132302
vn 0.182894 -0.980828 0.067281
vn 0.164887 -0.981809 0.094143
vn 0.485132 -0.868535 0.101459
vn 0.464176 -0.871637 0.157446
vn 0.702789 -0.707313 0.076132
vn 0.401234 0.889128 -0.220144
vn -0.285191 0.842272 -0.457432
vn -0.448685 0.824363 -0.345119
vn -0.931906 -0.141154 -0.334107
vn -0.939409 -0.071529 -0.335254
vn -0.793282 0.571404 -0.210240
vn 0.103135 0.994494 -0.018571
vn 0.122695 0.992444 -0.000757
vn 0.101388 0.994636 -0.020478
vn 0.099231 0.994811 -0.022442
vn 0.090312 0.995638 -0.023414
vn 0.056885 0.998003 -0.027477
vn -0.197976 0.980115 -0.013403
vn 0.088500 0.996042 -0.008282
vn -0.977874 0.209180 -0.002620
vn -0.841332 0.527725 -0.116910
vn -0.999273 0.033939 -0.017345
vn -0.993824 -0.108992 0.020838
vn -0.992044 -0.121434 0.033195
vn -0.842242 -0.538799 -0.018016
vn -0.802965 -0.595539 -0.024081
vn -0.809327 -0.437356 0.392058
vn -0.820175 -0.428793 0.378748
vn 0.105148 0.994446 -0.004560
vn 0.105250 0.994436 -0.004529
vn 0.105357 0.994424 -0.004543
vn 0.105123 0.994448 -0.004723
vn 0.179344 0.983786 -0.000959
vn 0.488350 0.872182 -0.028522
vn 0.924397 -0.212418 -0.316810
vn 0.897463 -0.298115 -0.325096
vn 0.853494 -0.409779 -0.321915
vn 0.733650 -0.591480 -0.334528
vn 0.468390 -0.801250 -0.372302
vn 0.004695 -0.917807 -0.396999
vn -0.419027 -0.833933 -0.359126
vn -0.758412 -0.590563 -0.275766
vn -0.917549 -0.347160 -0.193867
vn -0.958050 -0.194142 -0.210829
vn -0.965028 -0.134805 -0.224829
vn -0.969563 -0.079841 -0.231459
vn 0.769023 -0.288411 0.570459
vn 0.776444 -0.274679 0.567174
vn 0.847790 -0.093504 0.522024
vn 0.846576 -0.101705 0.522460
vn 0.859288 0.040612 0.509878
vn 0.879977 -0.475002 -0.003726
vn 0.831609 -0.555353 -0.003017
vn 0.970139 -0.242487 -0.005439
vn -0.184586 -0.982799 0.005908
vn -0.479721 -0.877390 0.007413
vn 0.201565 -0.979470 0.003267
vn 0.503062 -0.864250 0.000674
vn 0.712406 -0.701766 -0.001515
vn -0.208764 0.977961 -0.003212
vn 0.092813 0.995669 -0.005344
vn -0.983407 0.181321 0.005819
vn -0.993706 -0.111781 0.007278
vn -0.892913 -0.450155 0.008196
vn 0.104887 0.994469 -0.005420
vn 0.105047 0.994453 -0.005421
vn 0.105173 0.994439 -0.005422
vn 0.104986 0.994459 -0.005421
vn 0.169938 0.985438 -0.005819
vn 0.482609 0.875805 -0.007423
s 1
f 19//1 18//2 2//3 1//4
f 20//5 110//6 111//7 21//8
f 21//8 111//7 112//9 59//10
f 1//4 2//3 22//11 23//12
f 2//3 18//2 68//13 3//14
f 2//3 3//14 4//15 22//11
f 4//15 3//14 35//16 31//17
f 35//16 3//14 68//13 56//18
f 109//19 110//6 20//5 6//20
f 5//21 62//22 18//2 19//1
f 5//21 69//23 54//24 62//22
f 108//25 109//19 6//20 10//26
f 6//20 63//27 11//28 10//26
f 6//20 20//5 26//29 63//27
f 70//30 64//31 25//32 24//33
f 25//32 66//34 7//35 45//36
f 45//36 7//35 36//37 38//38
f 8//39 9//40 40//41 39//42
f 106//43 107//44 8//39 39//42
f 8//39 10//26 11//28 9//40
f 8//39 107//44 108//25 10//26
f 9//40 11//28 43//45 42//46
f 11//28 63//27 44//47 43//45
f 44//47 63//27 26//29
f 105//48 106//43 39//42 16//49
f 15//50 14//51 16//49 37//52
f 36//37 15//50 37//52 38//38
f 16//49 39//42 40//41 37//52
f 17//53 50//54 49//55 51//56
f 17//53 51//56 58//57 60//58
f 50//54 17//53 28//59 30//60
f 17//53 60//58 28//59
f 48//61 50//54 30//60 27//62
f 18//2 62//22 56//18 68//13
f 26//29 20//5 21//8 58//57
f 58//57 21//8 59//10 60//58
f 22//11 32//63 34//64 23//12
f 22//11 4//15 31//17 32//63
f 112//9 113//65 29//66 59//10
f 70//30 24//33 48//61 27//62
f 24//33 25//32 45//36 46//67
f 48//61 24//33 46//67 47//68
f 70//30 27//62 53//69 65//70
f 44//47 26//29 58//57 51//56
f 30//60 71//71 53//69 27//62
f 31//17 33//72 52//73 32//63
f 33//72 31//17 35//16 61//74
f 61//74 35//16 56//18 55//75
f 38//38 37//52 40//41 41//76
f 45//36 38//38 41//76 46//67
f 41//76 40//41 9//40 42//46
f 46//67 41//76 42//46 47//68
f 42//46 43//45 49//55 47//68
f 43//45 44//47 51//56 49//55
f 48//61 47//68 49//55 50//54
f 54//24 55//75 56//18 62//22
f 70/1/30 65/2/70 67/3/77 64/4/31
f 59//10 29//66 28//59 60//58
f 29//66 71//71 30//60 28//59
f 113/5/65 114/6/78 71/7/71 29/8/66
f 34/9/64 32/10/63 52/11/73 72/12/79
f 53/13/69 71/14/71 114/15/78 115/16/80
f 75/17/81 54/18/82 119/19/83
f 119/20/83 120/21/84 76/22/85 75/23/81
f 57/24/86 76/25/85 120/26/84
f 77/27/87 74/28/88 52/29/89 33/30/90
f 78/31/91 77/32/87 33/33/90 61/34/92
f 79/35/93 78/36/91 61/37/92 55/38/94
f 80/39/95 79/40/93 55/41/94 54/42/82
f 14/43/51 104/44/96 105/45/48 16/46/49
f 82/47/97 66/48/34 25/49/32 64/50/31
f 83/51/98 82/52/97 64/53/31 67/54/77
f 65/55/70 53/56/69 115/57/80 116/58/99
f 116/59/99 117/60/100 67/61/77 65/62/70
f 117/63/100 118/64/101 83/65/98 67/66/77
f 102/67/102 103/68/103 15/69/50 36/70/37
f 101/71/104 102/72/102 36/73/37 7/74/35
f 100/75/105 101/76/104 7/77/35 66/78/34
f 99/79/106 100/80/105 66/81/34 82/82/97
f 98/83/107 99/84/106 82/85/97 83/86/98
f 93/87/108 92/88/109 98/89/107 83/90/98
f 94/91/110 93/92/108 86/93/111 85/94/112
f 95/95/113 94/96/110 85/97/112 84/98/114
f 80/99/95 54/100/82 75/101/81
f 52/102/89 74/103/88 97/104/115 96/105/116
f 96/106/116 97/107/115 95/108/113
f 73/109/117 72/110/79 52/111/73 96/112/118
f 96/113/118 95/114/113 84/115/114 73/116/117
f 93/87/108 83/90/98 118/117/101 86/118/111
f 103/119/103 104/120/96 14/121/51 15/122/50
f 92/123/109 91/124/119 99/84/106 98/83/107
f 91/125/119 90/126/120 100/80/105 99/79/106
f 90/127/120 89/128/121 101/76/104 100/75/105
f 89/129/121 88/130/122 102/72/102 101/71/104
f 88/131/122 87/132/123 103/68/103 102/67/102
f 81/133/124 104/120/96 103/119/103 87/134/123
f 105/45/48 104/44/96 81/135/124 57/136/86
f 12//125 106//43 105//48 57//86
f 13//126 107//44 106//43 12//125
f 108//25 107//44 13//126 69//127
f 5//128 109//19 108//25 69//127
f 5//128 19//129 110//6 109//19
f 111//7 110//6 19//129 1//130
f 112//9 111//7 1//130 23//131
f 23//131 34//132 113//65 112//9
f 34/137/132 72/138/133 114/6/78 113/5/65
f 115/16/80 114/15/78 72/139/133 73/140/134
f 116/58/99 115/57/80 73/141/134 84/142/135
f 84/143/135 85/144/136 117/60/100 116/59/99
f 85/145/136 86/146/111 118/64/101 117/63/100
f 119/19/137 54/18/24 69/147/23 13/148/138
f 13/149/138 12/150/139 120/21/140 119/20/137
f 57/24/141 120/26/140 12/151/139
f 76/152/85 121/153/142 122/154/143 75/155/81
f 57/156/86 123/157/144 121/158/142 76/159/85
f 77/160/87 124/161/145 125/162/146 74/163/88
f 78/164/91 126/165/147 124/166/145 77/167/87
f 79/168/93 127/169/148 126/170/147 78/171/91
f 80/172/95 128/173/149 127/174/148 79/175/93
f 93/176/108 130/177/150 129/178/151 92/179/109
f 94/180/110 131/181/152 130/182/150 93/183/108
f 95/184/113 132/185/153 131/186/152 94/187/110
f 75/188/81 122/189/143 128/190/149 80/191/95
f 74/192/88 125/193/146 133/194/154 97/195/115
f 97/196/115 133/197/154 132/198/153 95/199/113
f 92/200/109 129/201/151 134/202/155 91/203/119
f 91/204/119 134/205/155 135/206/156 90/207/120
f 90/208/120 135/209/156 136/210/157 89/211/121
f 89/212/121 136/213/157 137/214/158 88/215/122
f 88/216/122 137/217/158 138/218/159 87/219/123
f 87/220/123 138/221/159 139/222/160 81/223/124
f 81/224/124 139/225/160 123/226/144 57/227/86
