o left_shoulder
v -0.707838 0.184840 -0.815970
v -0.713027 0.069042 -0.825468
v -0.452327 0.071131 -0.842892
v -0.472839 0.161063 -0.864155
v -0.512450 0.013779 -0.837736
v -0.525910 0.058909 -0.863738
v -0.719464 0.033641 -0.792133
v -0.691057 0.029212 -0.718961
v -0.468138 0.004525 -0.783740
v -0.447724 0.033200 -0.806077
v -0.448371 0.074400 -0.822165
v -0.465840 0.167060 -0.834647
v -0.763873 0.038010 -0.724943
v -0.776497 0.083846 -0.766897
v -0.780426 0.134775 -0.716802
v -0.789839 0.063284 -0.689757
v -0.764083 0.037479 -0.694185
v -0.700787 0.190454 -0.789845
v -0.700744 0.118174 -0.842158
v -0.452156 0.032244 -0.829375
v -0.536835 0.105405 -0.874108
v -0.772951 0.129054 -0.772330
v -0.609751 0.202486 -0.816813
v -0.620180 0.197458 -0.845242
v -0.625323 0.118726 -0.867263
v -0.629564 0.060682 -0.854805
v -0.624752 0.025276 -0.831042
v -0.590104 0.017896 -0.743781
v -0.648625 0.024455 -0.729323
v -0.674394 0.029649 -0.816169
v -0.672558 0.063685 -0.843518
v -0.664013 0.119457 -0.857482
v -0.657123 0.192881 -0.832429
v -0.650508 0.197796 -0.804883
v -0.546666 0.013029 -0.752586
v -0.568431 0.019375 -0.837092
v -0.589658 0.058657 -0.860419
v -0.586512 0.117897 -0.872977
v -0.565261 0.196111 -0.857852
v -0.557078 0.201590 -0.824257
v -0.456762 0.008853 -0.791980
v -0.479457 0.010515 -0.835435
v -0.496469 0.061952 -0.863394
v -0.517284 0.125945 -0.876319
v -0.580630 0.149572 -0.875794
v -0.620685 0.150277 -0.870239
v -0.661939 0.148721 -0.860085
v -0.701963 0.145536 -0.843888
v -0.730443 0.033630 -0.707546
v -0.749236 0.035766 -0.761549
v -0.747001 0.072559 -0.803126
v -0.731169 0.096000 -0.820603
v -0.448454 0.020961 -0.798996
v -0.458109 0.018942 -0.830533
v -0.470051 0.065254 -0.860077
v -0.499008 0.148773 -0.876707
v -0.569045 0.176643 -0.875803
v -0.615166 0.179746 -0.867437
v -0.660930 0.177957 -0.854801
v -0.704996 0.170106 -0.839027
v -0.757556 0.137166 -0.802511
v -0.510503 0.008970 -0.765321
v -0.538666 0.016124 -0.837561
v -0.555479 0.057707 -0.862881
v -0.555007 0.114268 -0.874897
v -0.541328 0.142600 -0.877663
v -0.526820 0.167907 -0.877973
v -0.512890 0.188709 -0.864527
v -0.511786 0.201355 -0.831880
v -0.449510 0.118508 -0.832247
v -0.457789 0.117580 -0.859763
v -0.483160 0.104401 -0.871490
v -0.505340 0.094862 -0.871588
v -0.532088 0.085683 -0.870543
v -0.558634 0.085391 -0.869832
v -0.591052 0.087171 -0.867481
v -0.628641 0.088696 -0.861886
v -0.667780 0.090605 -0.851817
v -0.703432 0.092734 -0.836626
v -0.740021 0.155361 -0.819122
v -0.754663 0.163514 -0.793590
v -0.756817 0.171096 -0.751666
v -0.461481 0.030656 -0.842629
v -0.487918 0.029906 -0.851767
v -0.516987 0.030492 -0.853200
v -0.548090 0.031521 -0.852934
v -0.581906 0.032998 -0.850554
v -0.626078 0.035628 -0.844262
v -0.676273 0.039511 -0.830400
v -0.722507 0.044544 -0.808297
v -0.757032 0.046652 -0.781497
v -0.777570 0.049561 -0.738908
v -0.782593 0.048169 -0.689220
v -0.721508 0.112209 -0.829837
v -0.732247 0.131751 -0.825531
v -0.755742 0.111941 -0.803616
vn -0.1268 -0.9827 -0.1350
vn -0.1117 -0.9930 -0.0383
vn -0.1091 -0.9936 -0.0292
vn -0.1445 -0.9819 -0.1221
vn 0.9677 -0.1537 -0.1996
vn 0.6689 -0.7043 -0.2379
vn 0.6055 -0.6800 -0.4135
vn 0.9243 -0.1508 -0.3506
vn 0.9763 -0.0292 -0.2145
vn 0.8657 -0.0900 -0.4925
vn 0.9523 0.1491 -0.2664
vn 0.7714 0.0801 -0.6313
vn 0.7490 0.5865 -0.3083
vn 0.6480 0.4538 -0.6117
vn 0.4458 -0.2227 -0.8670
vn 0.3395 -0.0952 -0.9358
vn 0.5125 -0.3474 -0.7853
vn 0.0120 -0.2958 -0.9552
vn -0.0525 -0.3109 -0.9490
vn -0.0593 -0.2110 -0.9757
vn 0.0078 -0.2111 -0.9774
vn 0.2497 0.1199 -0.9609
vn -0.0526 -0.1152 -0.9919
vn -0.0016 -0.1407 -0.9900
vn -0.1899 0.4731 -0.8603
vn -0.3140 0.5152 -0.7975
vn -0.2307 0.9120 -0.3392
vn -0.1291 0.9153 -0.3816
vn -0.0636 0.9865 -0.1507
vn -0.1768 0.9750 -0.1349
vn -0.3435 0.9283 -0.1425
vn -0.3901 0.8679 -0.3076
vn -0.7016 0.6629 -0.2616
vn -0.7894 0.5948 -0.1515
vn 0.0797 0.3141 -0.9460
vn 0.2832 0.7844 -0.5518
vn 0.2739 0.9152 -0.2957
vn -0.2037 -0.1952 -0.9594
vn -0.3212 -0.1894 -0.9279
vn -0.3092 -0.1035 -0.9454
vn -0.1961 -0.1075 -0.9747
vn -0.2120 -0.3271 -0.9209
vn -0.3393 -0.3262 -0.8823
vn -0.4782 -0.3083 -0.8224
vn -0.4704 -0.5713 -0.6726
vn -0.7102 -0.4914 -0.5041
vn -0.6936 -0.2521 -0.6748
vn -0.1105 -0.9938 -0.0101
vn -0.2391 -0.9664 -0.0944
vn -0.1735 -0.9774 -0.1207
vn -0.1061 -0.9942 -0.0195
vn 0.0020 -0.4945 -0.8692
vn -0.0558 -0.5234 -0.8502
vn -0.2033 -0.5808 -0.7883
vn -0.3360 -0.5787 -0.7431
vn -0.8559 -0.4511 -0.2531
vn -0.8886 -0.4338 -0.1490
vn -0.9854 -0.0542 -0.1615
vn -0.9507 -0.0504 -0.3059
vn -0.9566 0.1799 -0.2294
vn -0.9781 0.1460 -0.1484
vn -0.0812 -0.9649 -0.2496
vn -0.0700 -0.9941 -0.0831
vn -0.1174 -0.9916 -0.0548
vn -0.1112 -0.9766 -0.1839
vn -0.4403 -0.1894 -0.8777
vn -0.4208 -0.1045 -0.9011
vn -0.4528 0.5020 -0.7369
vn -0.1157 -0.9923 -0.0441
vn -0.1174 -0.9814 -0.1516
vn -0.1224 -0.5700 -0.8125
vn -0.1209 -0.3188 -0.9401
vn -0.1200 -0.2005 -0.9723
vn -0.1120 -0.1104 -0.9875
vn -0.0690 0.4075 -0.9106
vn -0.0132 0.8858 -0.4638
vn 0.0138 0.9758 -0.2184
vn 0.1117 -0.2830 -0.9526
vn 0.1398 -0.4614 -0.8761
vn 0.0728 -0.1803 -0.9809
vn 0.0392 -0.0898 -0.9952
vn -0.0261 -0.0346 -0.9991
vn -0.2008 0.0369 -0.9789
vn -0.1084 0.0021 -0.9941
vn -0.3084 0.0524 -0.9498
vn -0.4338 0.0417 -0.9001
vn -0.3304 -0.9424 -0.0520
vn -0.3462 -0.9377 -0.0297
vn -0.6475 0.3707 -0.6659
vn 0.1520 -0.9087 -0.3889
vn 0.1901 -0.9687 -0.1599
vn -0.8243 0.0910 -0.5588
vn -0.6127 -0.1747 -0.7707
vn -0.5314 -0.1214 -0.8384
vn -0.5802 -0.0249 -0.8141
vn -0.7763 -0.0879 -0.6242
vt 0.000000 0.000000
vt 1.000000 0.500000
vt 0.000000 1.000000
vt 0.500000 0.000000
vt 1.000000 0.000000
vt 1.000000 1.000000
s 1
f 27/1/1 28/1/2 29/1/3 30/1/4
f 10/1/5 53/1/6 54/1/7 20/1/8
f 11/1/9 10/1/5 20/1/8 3/1/10
f 70/1/11 11/1/9 3/1/10 71/1/12
f 12/1/13 70/1/11 71/1/12 4/1/14
f 71/1/12 3/1/10 55/1/15 72/1/16
f 20/1/8 83/1/17 55/1/15 3/1/10
f 6/1/18 64/1/19 75/1/20 74/1/21
f 71/1/12 72/1/16 56/1/22 4/1/14
f 74/1/21 75/1/20 65/1/23 21/1/24
f 58/1/25 59/1/26 33/1/27 24/1/28
f 23/1/29 24/1/28 33/1/27 34/1/30
f 18/1/31 1/1/32 81/1/33 82/1/34
f 4/1/14 56/1/22 67/1/35 68/1/36
f 12/1/13 4/1/14 68/1/36 69/1/37
f 77/1/38 78/1/39 32/1/40 25/1/41
f 26/1/42 31/1/43 78/1/39 77/1/38
f 2/1/44 90/1/45 91/1/46 51/1/47
f 49/1/48 50/1/49 7/1/50 8/1/51
f 6/1/18 85/1/52 86/1/53 64/1/19
f 26/1/42 88/1/54 89/1/55 31/1/43
f 92/1/56 93/1/57 16/1/58 14/1/59
f 22/1/60 14/1/59 16/1/58 15/1/61
f 5/1/62 9/1/63 62/1/64 63/1/65
f 29/1/3 8/1/51 7/1/50 30/1/4
f 89/1/55 90/1/45 2/1/44 31/1/43
f 31/1/43 2/1/44 79/1/66 78/1/39
f 78/1/39 79/1/66 19/1/67 32/1/40
f 59/1/26 60/1/68 1/1/32 33/1/27
f 33/1/27 1/1/32 18/1/31 34/1/30
f 35/1/69 28/1/2 27/1/1 36/1/70
f 87/1/71 88/1/54 26/1/42 37/1/72
f 37/1/72 26/1/42 77/1/38 76/1/73
f 76/1/73 77/1/38 25/1/41 38/1/74
f 57/1/75 58/1/25 24/1/28 39/1/76
f 39/1/76 24/1/28 23/1/29 40/1/77
f 6/1/18 43/1/78 84/1/79 85/1/52
f 43/1/78 6/1/18 74/1/21 73/1/80
f 73/1/80 74/1/21 21/1/24 44/1/81
f 65/1/23 66/1/82 44/1/81 21/1/24
f 38/1/74 25/1/41 46/1/83 45/1/84
f 32/1/40 47/1/85 46/1/83 25/1/41
f 19/1/67 48/1/86 47/1/85 32/1/40
f 13/1/87 50/1/49 49/1/48 17/1/88
f 51/1/47 91/1/46 92/1/56 14/1/59
f 60/1/68 80/1/89 81/1/33 1/1/32
f 9/2/63 5/3/62 42/3/90 41/4/91
f 54/1/7 53/1/6 41/1/91 42/1/90
f 83/1/17 84/1/79 43/1/78 55/1/15
f 55/1/15 43/1/78 73/1/80 72/1/16
f 72/1/16 73/1/80 44/1/81 56/1/22
f 66/1/82 67/1/35 56/1/22 44/1/81
f 45/1/84 46/1/83 58/1/25 57/1/75
f 46/1/83 47/1/85 59/1/26 58/1/25
f 47/1/85 48/1/86 60/1/68 59/1/26
f 63/1/65 62/1/64 35/1/69 36/1/70
f 64/1/19 86/1/53 87/1/71 37/1/72
f 64/1/19 37/1/72 76/1/73 75/1/20
f 75/1/20 76/1/73 38/1/74 65/1/23
f 45/1/84 66/1/82 65/1/23 38/1/74
f 57/1/75 67/1/35 66/1/82 45/1/84
f 68/1/36 67/1/35 57/1/75 39/1/76
f 69/1/37 68/1/36 39/1/76 40/1/77
f 81/1/33 80/1/89 61/1/92 22/1/60
f 82/1/34 81/1/33 22/1/60 15/1/61
f 54/1/7 83/1/17 20/1/8
f 42/1/90 84/1/79 83/1/17 54/1/7
f 85/1/52 84/1/79 42/1/90 5/1/62
f 86/1/53 85/1/52 5/1/62 63/1/65
f 87/1/71 86/1/53 63/1/65 36/1/70
f 36/1/70 27/1/1 88/1/54 87/1/71
f 89/1/55 88/1/54 27/1/1 30/1/4
f 7/1/50 90/1/45 89/1/55 30/1/4
f 91/1/46 90/1/45 7/1/50 50/1/49
f 92/1/56 91/1/46 50/1/49 13/1/87
f 13/1/87 17/1/88 93/1/57 92/1/56
f 52/1/93 79/5/66 2/6/44 51/3/47
f 48/1/86 19/5/67 94/6/94 95/3/95
f 95/1/95 94/5/94 52/6/93 96/3/96
f 48/1/86 95/5/95 80/6/89 60/3/68
f 94/1/94 19/5/67 79/6/66 52/3/93
f 61/1/92 80/5/89 95/6/95 96/3/96
f 52/1/93 51/5/47 14/6/59 96/3/96
f 22/1/60 61/5/92 96/6/96 14/3/59
