# This file uses centimeters as units for non-parametric coordinates.

mtllib left_cap.mtl
g default
v -0.300000 0.382259 -0.388009
v -0.379729 0.389305 -0.388009
v -0.300000 0.388901 -0.307545
v -0.356237 0.389148 -0.330751
v -0.338297 0.383728 -0.388009
v -0.330329 0.389027 -0.313536
v -0.300000 0.383721 -0.349384
v -0.373583 0.389246 -0.356571
v -0.335722 0.384824 -0.351804
v -0.220271 0.389305 -0.388009
v -0.243763 0.389148 -0.330751
v -0.261703 0.383728 -0.388009
v -0.269671 0.389027 -0.313536
v -0.226417 0.389246 -0.356571
v -0.264278 0.384824 -0.351804
v -0.300000 0.388901 -0.468473
v -0.356237 0.389148 -0.445266
v -0.330329 0.389027 -0.462482
v -0.300000 0.383721 -0.426633
v -0.373583 0.389246 -0.419446
v -0.335722 0.384824 -0.424213
v -0.243763 0.389148 -0.445266
v -0.269671 0.389027 -0.462482
v -0.226417 0.389246 -0.419446
v -0.264278 0.384824 -0.424213
vt 0.500426 0.353713
vt 0.588297 0.331343
vt 0.659790 0.297386
vt 0.500244 0.284092
vt 0.500365 0.314401
vt 0.575683 0.301278
vt 0.558268 0.280326
vt 0.636963 0.278692
vt 0.603461 0.273500
vt 0.500244 0.284092
vt 0.500365 0.314401
vt 0.575683 0.301278
vt 0.558268 0.280326
vt 0.636963 0.278692
vt 0.603461 0.273500
vt 0.588297 0.331343
vt 0.659790 0.297386
vt 0.500426 0.353713
vt 0.500244 0.284092
vt 0.500365 0.314401
vt 0.575683 0.301278
vt 0.558268 0.280326
vt 0.636963 0.278692
vt 0.603461 0.273500
vt 0.588297 0.331343
vt 0.659790 0.297386
vt 0.500426 0.353713
vt 0.500244 0.284092
vt 0.558268 0.280326
vt 0.575683 0.301278
vt 0.500365 0.314401
vt 0.603461 0.273500
vt 0.636963 0.278692
vt 0.659790 0.297386
vt 0.588297 0.331343
vt 0.500426 0.353713
vn 0.000000 0.992945 -0.118574
vn 0.000000 0.996969 -0.077800
vn 0.072297 0.995050 -0.068189
vn 0.050376 0.992158 -0.114389
vn 0.121863 0.991393 -0.047851
vn 0.105193 0.989339 -0.100708
vn 0.082773 0.996569 -0.000000
vn 0.126978 0.991906 0.000000
vn 0.000000 1.000000 0.000000
vn -0.050376 0.992158 -0.114390
vn -0.072297 0.995050 -0.068189
vn -0.105193 0.989339 -0.100708
vn -0.121863 0.991393 -0.047851
vn -0.126978 0.991906 0.000000
vn -0.082773 0.996569 -0.000000
vn -0.000000 0.992945 0.118574
vn 0.050376 0.992158 0.114389
vn 0.072297 0.995050 0.068189
vn -0.000000 0.996969 0.077800
vn 0.105193 0.989339 0.100708
vn 0.121863 0.991393 0.047851
vn -0.072297 0.995050 0.068189
vn -0.050376 0.992158 0.114389
vn -0.121863 0.991393 0.047851
vn -0.105193 0.989339 0.100708
s 1
g left_cap l_stick
f 3/4/1 7/5/2 9/6/3 6/7/4
f 6/7/4 9/6/3 8/8/5 4/9/6
f 9/6/3 5/2/7 2/3/8 8/8/5
f 7/5/2 1/1/9 5/2/7 9/6/3
f 3/10/1 13/13/10 15/12/11 7/11/2
f 13/13/10 11/15/12 14/14/13 15/12/11
f 15/12/11 14/14/13 10/17/14 12/16/15
f 7/11/2 15/12/11 12/16/15 1/18/9
f 16/19/16 18/22/17 21/21/18 19/20/19
f 18/22/17 17/24/20 20/23/21 21/21/18
f 21/21/18 20/23/21 2/26/8 5/25/7
f 19/20/19 21/21/18 5/25/7 1/27/9
f 16/28/16 19/31/19 25/30/22 23/29/23
f 23/29/23 25/30/22 24/33/24 22/32/25
f 25/30/22 12/35/15 10/34/14 24/33/24
f 19/31/19 1/36/9 12/35/15 25/30/22
