o left_trigger
v 0.013395 -0.288328 -0.042583
v 0.011167 -0.253543 -0.006902
v 0.011147 -0.233061 0.012860
v -0.013055 -0.232324 0.015991
v 0.113630 -0.233392 -0.034882
v 0.087672 -0.223720 -0.065608
v -0.023388 -0.004618 -0.066437
v 0.129929 -0.138069 -0.063584
v 0.082203 -0.130655 -0.065350
v 0.114425 -0.183514 -0.062351
v 0.071874 -0.172791 -0.062177
v 0.174131 -0.088472 -0.035257
v 0.161194 -0.142423 -0.027852
v 0.149044 -0.022011 -0.066901
v 0.117330 -0.019105 -0.072115
v 0.151572 -0.041897 -0.080005
v -0.043801 -0.202681 -0.044719
v 0.047761 -0.243669 -0.007217
v 0.063813 -0.273223 -0.043377
v 0.047200 -0.253488 -0.069004
v -0.001271 -0.263733 -0.064950
v -0.028473 -0.247291 0.003102
v -0.052618 -0.280142 -0.024693
v -0.066772 -0.073997 -0.050127
v -0.079784 -0.019548 -0.060870
v 0.033586 -0.226199 -0.062832
v -0.098472 -0.129905 -0.025076
v -0.072113 -0.211010 -0.036085
v -0.097695 -0.225643 -0.020915
v -0.087410 -0.174666 -0.027692
v -0.021732 -0.218477 0.033922
v -0.056162 -0.225957 0.023969
v -0.030145 -0.206571 0.066747
v -0.093523 -0.251707 -0.002835
v 0.012104 -0.217632 0.033169
v 0.055394 -0.012517 -0.073747
v 0.102591 -0.036439 -0.084784
v 0.047497 -0.031128 -0.084782
v 0.141909 -0.089304 -0.070665
v 0.093465 -0.085193 -0.073689
v 0.040455 -0.079730 -0.072041
v 0.036488 -0.125668 -0.062745
v 0.034019 -0.168196 -0.059070
v 0.030630 -0.202102 -0.059620
v -0.024290 -0.025070 -0.076026
v -0.015692 -0.075614 -0.063992
v -0.011542 -0.122934 -0.055342
v -0.057620 -0.124065 -0.043155
v -0.008682 -0.165918 -0.052203
v -0.049513 -0.166930 -0.042093
v -0.007060 -0.201956 -0.053424
v -0.077796 -0.194642 0.066481
v -0.129515 -0.142581 0.000551
v 0.100909 -0.175840 0.030023
v 0.055553 -0.197585 0.051414
v 0.044584 -0.215509 0.024367
v 0.177113 -0.043881 -0.043833
v -0.005220 -0.232898 -0.057755
v -0.055796 -0.252978 -0.048023
v -0.045992 -0.230176 -0.047518
v 0.014635 -0.206539 0.062597
v 0.077806 -0.217758 0.003231
v 0.057869 -0.208158 -0.062913
v -0.125874 -0.014719 -0.035600
v -0.138825 -0.076687 -0.002940
v -0.078311 0.001289 -0.051067
v -0.148484 -0.014228 -0.007105
v 0.034557 -0.230516 0.010034
v 0.142678 -0.189129 -0.028707
v -0.110064 -0.074630 -0.029048
v -0.119161 -0.186720 -0.003969
v -0.124245 -0.202441 0.023097
v -0.142201 -0.148508 0.037522
v -0.092907 -0.184736 0.094926
v 0.134376 -0.121703 0.042912
v 0.160006 -0.080082 -0.006566
v -0.028058 -0.202340 0.098015
v 0.019881 -0.205254 0.097010
v 0.063684 -0.186618 0.089866
v 0.107044 -0.157421 0.074097
v 0.173271 -0.030694 -0.050363
v -0.122215 0.006085 -0.026325
v -0.143005 0.006997 -0.002461
v -0.153184 -0.077198 0.034529
v -0.156886 -0.015228 0.022014
v -0.153389 0.000553 0.015170
v 0.133225 -0.019908 -0.036209
v 0.069762 -0.013117 -0.016432
v 0.002998 -0.005986 -0.004777
v -0.050566 -0.000261 0.007573
v -0.095581 0.004551 0.017965
v -0.122760 0.007460 0.027299
v -0.142867 0.009013 0.034270
v -0.155466 -0.000066 0.041966
v -0.155633 -0.079189 0.067553
v -0.134667 -0.145427 0.066174
v -0.131341 -0.150835 0.088757
v -0.124823 0.007654 0.007887
v -0.100414 0.005034 -0.005286
v -0.058499 0.000546 -0.020831
v -0.004078 -0.005273 -0.034449
v 0.062745 -0.012409 -0.045653
v 0.124393 -0.018994 -0.056695
v 0.160017 -0.023534 -0.061928
v 0.171577 -0.043147 -0.066903
v 0.163946 -0.091378 -0.060300
v 0.152490 -0.142905 -0.052172
v 0.134494 -0.189127 -0.050639
v 0.105645 -0.232392 -0.054615
v 0.058071 -0.267899 -0.061513
v 0.005519 -0.281420 -0.059456
v -0.057824 -0.270227 -0.040182
v -0.097888 -0.239827 -0.012962
v -0.123847 -0.195172 0.008735
v -0.138440 -0.146034 0.018141
v -0.148252 -0.077276 0.014899
v -0.153794 -0.014822 0.007128
v -0.148951 0.004625 0.006208
v 0.145317 -0.132218 0.000683
v 0.166883 -0.085068 -0.023312
v 0.160779 -0.079543 0.107285
v 0.134815 -0.121396 0.107660
v 0.178137 -0.043167 0.106994
v -0.027983 -0.202287 0.109148
v -0.092808 -0.184667 0.109505
v 0.019961 -0.205198 0.108837
v 0.063810 -0.186530 0.108451
v 0.107274 -0.157260 0.108017
v -0.122206 0.007846 0.108793
v -0.142360 0.009367 0.108922
v -0.155011 0.000252 0.109052
v -0.155349 -0.078990 0.109429
v -0.131200 -0.150737 0.109605
v -0.094966 0.004981 0.108621
v -0.049882 0.000216 0.108338
v 0.003763 -0.005452 0.108000
v 0.070604 -0.012530 0.107580
v 0.134199 -0.019229 0.107179
v 0.174339 -0.029950 0.106957
vn 0.3009 -0.6763 0.6723
vn 0.2965 -0.6792 0.6714
vn 0.1402 -0.6991 0.7011
vn 0.1503 -0.7004 0.6977
vn 0.0390 -0.0919 -0.9950
vn 0.3520 -0.6426 -0.6806
vn -0.1072 -0.7245 -0.6809
vn -0.2013 -0.1032 -0.9741
vn -0.4950 -0.6295 -0.5989
vn -0.4383 -0.1147 -0.8915
vn 0.0375 -0.6911 0.7218
vn 0.0370 -0.6847 0.7278
vn 0.2354 -0.7160 0.6573
vn 0.1210 -0.7340 0.6683
vn 0.0431 -0.7358 0.6758
vn 0.1313 -0.8799 0.4566
vn -0.0242 -0.8699 0.4926
vn 0.3471 -0.7762 0.5264
vn 0.6008 -0.4967 -0.6264
vn 0.1723 -0.0856 -0.9813
vn 0.4851 -0.6029 0.6334
vn 0.4654 -0.6390 0.6124
vn 0.6502 -0.4615 0.6036
vn 0.5963 -0.5447 0.5897
vn 0.7001 -0.3443 -0.6256
vn 0.1886 -0.0940 -0.9776
vn -0.0532 0.0864 -0.9948
vn -0.0373 -0.0138 -0.9992
vn -0.1145 0.1524 -0.9817
vn -0.5472 -0.2006 -0.8126
vn -0.5954 -0.0533 -0.8017
vn -0.3696 -0.0547 -0.9276
vn -0.3475 -0.2204 -0.9114
vn -0.1002 0.8789 -0.4664
vn 0.0034 0.8839 -0.4677
vn -0.1903 -0.0222 -0.9815
vn 0.0674 0.8821 -0.4662
vn -0.0698 0.0096 -0.9975
vn 0.1718 -0.1552 -0.9728
vn -0.0233 -0.1233 -0.9921
vn -0.0035 -0.2011 -0.9796
vn 0.1810 -0.2106 -0.9607
vn 0.7392 -0.2375 -0.6303
vn 0.7284 -0.2782 -0.6262
vn -0.1229 -0.0311 -0.9919
vn -0.1151 -0.1370 -0.9839
vn -0.1337 0.0640 -0.9889
vn 0.7612 -0.0614 -0.6456
vn 0.2249 -0.0352 -0.9737
vn 0.1271 0.8478 -0.5149
vn 0.2304 0.7444 -0.6267
vn 0.0361 0.0104 -0.9993
vn -0.2742 0.0646 -0.9595
vn -0.2999 -0.0293 -0.9535
vn -0.2006 -0.0349 -0.9791
vn -0.1975 0.0687 -0.9779
vn -0.1960 0.1513 -0.9689
vn -0.3120 0.1241 -0.9420
vn -0.4498 0.0457 -0.8920
vn -0.4840 -0.0338 -0.8744
vn -0.3227 -0.1354 -0.9368
vn -0.5097 -0.1278 -0.8508
vn -0.1446 -0.7502 0.6452
vn -0.1519 -0.7010 0.6968
vn -0.7926 -0.4319 -0.4303
vn -0.6521 -0.1096 -0.7502
vn -0.2031 -0.2224 -0.9536
vn -0.2044 -0.1415 -0.9686
vn -0.7212 -0.1341 -0.6796
vn -0.7516 -0.1721 -0.6368
vn -0.7037 -0.1065 -0.7024
vn -0.0617 -0.9015 0.4283
vn -0.3636 -0.7142 0.5981
vn 0.1324 -0.9179 0.3741
vn 0.3900 -0.7856 0.4804
vn -0.1039 -0.2143 -0.9712
vn -0.7949 -0.0681 -0.6029
vn -0.9055 -0.2873 -0.3123
vn -0.4379 -0.6501 0.6210
vn -0.9288 -0.1785 -0.3247
vn 0.8511 -0.5199 0.0728
vn 0.6586 -0.7244 0.2037
vn 0.8807 -0.3305 0.3393
vn 0.9222 -0.1668 0.3489
vn 0.9122 -0.4037 0.0705
vn 0.9935 -0.0881 -0.0718
vn -0.1584 -0.9830 0.0924
vn -0.5108 -0.8597 0.0089
vn -0.3884 -0.9167 0.0941
vn -0.1503 -0.9797 0.1323
vn 0.1829 -0.9808 0.0673
vn 0.1649 -0.9818 0.0941
vn 0.4851 -0.8685 0.1015
vn 0.4642 -0.8716 0.1575
vn 0.7028 -0.7073 0.0761
vn 0.4013 0.8891 -0.2202
vn -0.2852 0.8423 -0.4574
vn -0.4487 0.8244 -0.3451
vn -0.9319 -0.1411 -0.3341
vn -0.9394 -0.0715 -0.3353
vn -0.7933 0.5714 -0.2102
vn 0.1032 0.9945 -0.0188
vn 0.1227 0.9924 -0.0008
vn 0.1014 0.9946 -0.0205
vn 0.0992 0.9948 -0.0224
vn 0.0903 0.9956 -0.0234
vn 0.0569 0.9980 -0.0274
vn -0.1980 0.9801 -0.0134
vn 0.0885 0.9960 -0.0083
vn -0.9779 0.2092 -0.0026
vn -0.8413 0.5277 -0.1169
vn -0.9993 0.0340 -0.0173
vn -0.9938 -0.1090 0.0208
vn -0.9920 -0.1214 0.0332
vn -0.8422 -0.5388 -0.0180
vn -0.8030 -0.5955 -0.0241
vn -0.8093 -0.4374 0.3921
vn -0.8202 -0.4288 0.3787
vn 0.1051 0.9944 -0.0046
vn 0.1053 0.9944 -0.0044
vn 0.1054 0.9944 -0.0045
vn 0.1051 0.9944 -0.0048
vn 0.1793 0.9838 -0.0010
vn 0.4884 0.8722 -0.0286
vn 0.9244 -0.2124 -0.3168
vn 0.8975 -0.2981 -0.3251
vn 0.8535 -0.4098 -0.3219
vn 0.7337 -0.5915 -0.3345
vn 0.4684 -0.8013 -0.3723
vn 0.0047 -0.9178 -0.3970
vn -0.4190 -0.8339 -0.3591
vn -0.7584 -0.5906 -0.2758
vn -0.9176 -0.3471 -0.1939
vn -0.9581 -0.1941 -0.2108
vn -0.9650 -0.1348 -0.2248
vn -0.9696 -0.0798 -0.2315
vn 0.7690 -0.2884 0.5705
vn 0.7764 -0.2747 0.5672
vn 0.8478 -0.0935 0.5220
vn 0.8466 -0.1017 0.5225
vn 0.8593 0.0406 0.5098
vn 0.8800 -0.4750 -0.0037
vn 0.8316 -0.5553 -0.0030
vn 0.9702 -0.2424 -0.0054
vn -0.1846 -0.9828 0.0059
vn -0.4797 -0.8774 0.0074
vn 0.2016 -0.9795 0.0033
vn 0.5030 -0.8643 0.0007
vn 0.7124 -0.7018 -0.0015
vn -0.2088 0.9780 -0.0032
vn 0.0928 0.9957 -0.0053
vn -0.9834 0.1814 0.0057
vn -0.9937 -0.1118 0.0073
vn -0.8929 -0.4502 0.0082
vn 0.1048 0.9945 -0.0054
vn 0.1050 0.9945 -0.0054
vn 0.1052 0.9944 -0.0054
vn 0.1700 0.9854 -0.0058
vn 0.4826 0.8758 -0.0074
vt 0.000000 0.000000
vt 1.000000 0.000000
vt 1.000000 1.000000
vt 0.000000 1.000000
vt 0.000000 0.500000
vt 1.000000 0.500000
vt 0.000000 0.576664
vt 0.000000 0.423336
vt 1.000000 0.420986
vt 1.000000 0.579014
vt 0.500000 0.000000
vt 0.500000 1.000000
s 1
f 19/1/1 18/1/2 2/1/3 1/1/4
f 20/1/5 110/1/6 111/1/7 21/1/8
f 21/1/8 111/1/7 112/1/9 59/1/10
f 1/1/4 2/1/3 22/1/11 23/1/12
f 2/1/3 18/1/2 68/1/13 3/1/14
f 2/1/3 3/1/14 4/1/15 22/1/11
f 4/1/15 3/1/14 35/1/16 31/1/17
f 35/1/16 3/1/14 68/1/13 56/1/18
f 109/1/19 110/1/6 20/1/5 6/1/20
f 5/1/21 62/1/22 18/1/2 19/1/1
f 5/1/21 69/1/23 54/1/24 62/1/22
f 108/1/25 109/1/19 6/1/20 10/1/26
f 6/1/20 63/1/27 11/1/28 10/1/26
f 6/1/20 20/1/5 26/1/29 63/1/27
f 70/1/30 64/1/31 25/1/32 24/1/33
f 25/1/32 66/1/34 7/1/35 45/1/36
f 45/1/36 7/1/35 36/1/37 38/1/38
f 8/1/39 9/1/40 40/1/41 39/1/42
f 106/1/43 107/1/44 8/1/39 39/1/42
f 8/1/39 10/1/26 11/1/28 9/1/40
f 8/1/39 107/1/44 108/1/25 10/1/26
f 9/1/40 11/1/28 43/1/45 42/1/46
f 11/1/28 63/1/27 44/1/47 43/1/45
f 44/1/47 63/1/27 26/1/29
f 105/1/48 106/1/43 39/1/42 16/1/49
f 15/1/50 14/1/51 16/1/49 37/1/52
f 36/1/37 15/1/50 37/1/52 38/1/38
f 16/1/49 39/1/42 40/1/41 37/1/52
f 17/1/53 50/1/54 49/1/55 51/1/56
f 17/1/53 51/1/56 58/1/57 60/1/58
f 50/1/54 17/1/53 28/1/59 30/1/60
f 17/1/53 60/1/58 28/1/59
f 48/1/61 50/1/54 30/1/60 27/1/62
f 18/1/2 62/1/22 56/1/18 68/1/13
f 26/1/29 20/1/5 21/1/8 58/1/57
f 58/1/57 21/1/8 59/1/10 60/1/58
f 22/1/11 32/1/63 34/1/64 23/1/12
f 22/1/11 4/1/15 31/1/17 32/1/63
f 112/1/9 113/1/65 29/1/66 59/1/10
f 70/1/30 24/1/33 48/1/61 27/1/62
f 24/1/33 25/1/32 45/1/36 46/1/67
f 48/1/61 24/1/33 46/1/67 47/1/68
f 70/1/30 27/1/62 53/1/69 65/1/70
f 44/1/47 26/1/29 58/1/57 51/1/56
f 30/1/60 71/1/71 53/1/69 27/1/62
f 31/1/17 33/1/72 52/1/73 32/1/63
f 33/1/72 31/1/17 35/1/16 61/1/74
f 61/1/74 35/1/16 56/1/18 55/1/75
f 38/1/38 37/1/52 40/1/41 41/1/76
f 45/1/36 38/1/38 41/1/76 46/1/67
f 41/1/76 40/1/41 9/1/40 42/1/46
f 46/1/67 41/1/76 42/1/46 47/1/68
f 42/1/46 43/1/45 49/1/55 47/1/68
f 43/1/45 44/1/47 51/1/56 49/1/55
f 48/1/61 47/1/68 49/1/55 50/1/54
f 54/1/24 55/1/75 56/1/18 62/1/22
f 70/1/30 65/2/70 67/3/77 64/4/31
f 59/1/10 29/1/66 28/1/59 60/1/58
f 29/1/66 71/1/71 30/1/60 28/1/59
f 113/5/65 114/6/78 71/3/71 29/4/66
f 34/1/64 32/2/63 52/3/73 72/4/79
f 53/1/69 71/2/71 114/6/78 115/5/80
f 75/1/81 54/2/82 119/7/83
f 119/8/83 120/9/84 76/3/85 75/4/81
f 57/5/86 76/2/85 120/10/84
f 77/1/87 74/2/88 52/3/89 33/4/90
f 78/1/91 77/2/87 33/3/90 61/4/92
f 79/1/93 78/2/91 61/3/92 55/4/94
f 80/1/95 79/2/93 55/3/94 54/4/82
f 14/1/51 104/11/96 105/12/48 16/4/49
f 82/1/97 66/2/34 25/3/32 64/4/31
f 83/1/98 82/2/97 64/3/31 67/4/77
f 65/1/70 53/2/69 115/6/80 116/5/99
f 116/5/99 117/6/100 67/3/77 65/4/70
f 117/5/100 118/6/101 83/3/98 67/4/77
f 102/12/102 103/11/103 15/2/50 36/3/37
f 101/12/104 102/11/102 36/2/37 7/3/35
f 100/12/105 101/11/104 7/2/35 66/3/34
f 99/12/106 100/11/105 66/2/34 82/3/97
f 98/12/107 99/11/106 82/2/97 83/3/98
f 93/4/108 92/1/109 98/11/107 83/2/98
f 94/4/110 93/1/108 86/2/111 85/3/112
f 95/4/113 94/1/110 85/2/112 84/3/114
f 80/11/95 54/3/82 75/4/81
f 52/1/89 74/2/88 97/3/115 96/4/116
f 96/1/116 97/2/115 95/12/113
f 73/1/117 72/2/79 52/3/73 96/4/118
f 96/1/118 95/2/113 84/3/114 73/4/117
f 93/4/108 83/2/98 118/6/101 86/3/111
f 103/12/103 104/11/96 14/2/51 15/3/50
f 92/4/109 91/1/119 99/11/106 98/12/107
f 91/4/119 90/1/120 100/11/105 99/12/106
f 90/4/120 89/1/121 101/11/104 100/12/105
f 89/4/121 88/1/122 102/11/102 101/12/104
f 88/4/122 87/1/123 103/11/103 102/12/102
f 81/1/124 104/11/96 103/12/103 87/4/123
f 105/12/48 104/11/96 81/2/124 57/3/86
f 12/1/125 106/1/43 105/1/48 57/1/86
f 13/1/126 107/1/44 106/1/43 12/1/125
f 108/1/25 107/1/44 13/1/126 69/1/127
f 5/1/128 109/1/19 108/1/25 69/1/127
f 5/1/128 19/1/129 110/1/6 109/1/19
f 111/1/7 110/1/6 19/1/129 1/1/130
f 112/1/9 111/1/7 1/1/130 23/1/131
f 23/1/131 34/1/132 113/1/65 112/1/9
f 34/1/132 72/2/133 114/6/78 113/5/65
f 115/5/80 114/6/78 72/3/133 73/4/134
f 116/5/99 115/6/80 73/3/134 84/4/135
f 84/1/135 85/2/136 117/6/100 116/5/99
f 85/1/136 86/2/111 118/6/101 117/5/100
f 119/7/137 54/2/24 69/3/23 13/4/138
f 13/1/138 12/2/139 120/9/140 119/8/137
f 57/5/141 120/10/140 12/3/139
f 76/1/85 121/4/142 122/3/143 75/2/81
f 57/1/86 123/4/144 121/3/142 76/2/85
f 77/1/87 124/4/145 125/3/146 74/2/88
f 78/1/91 126/4/147 124/3/145 77/2/87
f 79/1/93 127/4/148 126/3/147 78/2/91
f 80/1/95 128/4/149 127/3/148 79/2/93
f 93/1/108 130/4/150 129/3/151 92/2/109
f 94/1/110 131/4/152 130/3/150 93/2/108
f 95/1/113 132/4/153 131/3/152 94/2/110
f 75/1/81 122/4/143 128/3/149 80/2/95
f 74/1/88 125/4/146 133/3/154 97/2/115
f 97/1/115 133/4/154 132/3/153 95/2/113
f 92/1/109 129/4/151 134/3/155 91/2/119
f 91/1/119 134/4/155 135/3/156 90/2/120
f 90/1/120 135/4/156 136/3/157 89/2/121
f 89/1/121 136/4/157 137/3/156 88/2/122
f 88/1/122 137/4/156 138/3/158 87/2/123
f 87/1/123 138/4/158 139/3/159 81/2/124
f 81/1/124 139/4/159 123/3/144 57/2/86
