o left_stick_cap
v 0.000016 0.160786 -0.000090
v -0.079713 0.167832 -0.000090
v 0.000016 0.167428 0.080374
v -0.056221 0.167675 0.057168
v -0.038281 0.162255 -0.000090
v -0.030313 0.167554 0.074383
v 0.000016 0.162248 0.038535
v -0.073567 0.167773 0.031348
v -0.035706 0.163351 0.036115
v 0.079745 0.167832 -0.000090
v 0.056253 0.167675 0.057168
v 0.038313 0.162255 -0.000090
v 0.030345 0.167554 0.074383
v 0.073599 0.167773 0.031348
v 0.035738 0.163351 0.036115
v 0.000016 0.167428 -0.080554
v -0.056221 0.167675 -0.057347
v -0.030313 0.167554 -0.074563
v 0.000016 0.162248 -0.038714
v -0.073567 0.167773 -0.031527
v -0.035706 0.163351 -0.036294
v 0.056253 0.167675 -0.057347
v 0.030345 0.167554 -0.074563
v 0.073599 0.167773 -0.031527
v 0.035738 0.163351 -0.036294
vn -0.0000 0.9929 -0.1186
vn -0.0000 0.9970 -0.0778
vn 0.0723 0.9950 -0.0682
vn 0.0504 0.9922 -0.1144
vn 0.1219 0.9914 -0.0479
vn 0.1052 0.9893 -0.1007
vn 0.0829 0.9966 -0.0000
vn 0.1270 0.9919 -0.0000
vn -0.0000 1.0000 -0.0000
vn -0.0504 0.9922 -0.1144
vn -0.0723 0.9950 -0.0682
vn -0.1052 0.9893 -0.1007
vn -0.1219 0.9914 -0.0479
vn -0.1270 0.9919 -0.0000
vn -0.0830 0.9965 -0.0000
vn -0.0000 0.9929 0.1186
vn 0.0504 0.9922 0.1144
vn 0.0723 0.9950 0.0682
vn -0.0000 0.9970 0.0778
vn 0.1052 0.9893 0.1007
vn 0.1219 0.9914 0.0478
vn -0.0723 0.9950 0.0682
vn -0.0504 0.9922 0.1144
vn -0.1219 0.9914 0.0479
vn -0.1052 0.9893 0.1007
vt 0.500244 0.284092
vt 0.500365 0.314401
vt 0.575683 0.301278
vt 0.558268 0.280326
vt 0.636963 0.278692
vt 0.603461 0.273500
vt 0.588297 0.331343
vt 0.659790 0.297386
vt 0.500426 0.353713
s 1
f 3/1/1 7/2/2 9/3/3 6/4/4
f 6/4/4 9/3/3 8/5/5 4/6/6
f 9/3/3 5/7/7 2/8/8 8/5/5
f 7/2/2 1/9/9 5/7/7 9/3/3
f 3/1/1 13/4/10 15/3/11 7/2/2
f 13/4/10 11/6/12 14/5/13 15/3/11
f 15/3/11 14/5/13 10/8/14 12/7/15
f 7/2/2 15/3/11 12/7/15 1/9/9
f 16/1/16 18/4/17 21/3/18 19/2/19
f 18/4/17 17/6/20 20/5/21 21/3/18
f 21/3/18 20/5/21 2/8/8 5/7/7
f 19/2/19 21/3/18 5/7/7 1/9/9
f 16/1/16 19/2/19 25/3/22 23/4/23
f 23/4/23 25/3/22 24/5/24 22/6/25
f 25/3/22 12/7/15 10/8/14 24/5/24
f 19/2/19 1/9/9 12/7/15 25/3/22
