# This file uses centimeters as units for non-parametric coordinates.

mtllib left_bumper.mtl
g default
v -0.707838 0.184840 -0.815970
v -0.713027 0.069042 -0.825468
v -0.452327 0.071131 -0.842892
v -0.472839 0.161063 -0.864155
v -0.512450 0.013779 -0.837736
v -0.525910 0.058909 -0.863738
v -0.719464 0.033641 -0.792133
v -0.691057 0.029212 -0.718961
v -0.468138 0.004525 -0.783740
v -0.447724 0.033200 -0.806077
v -0.448371 0.074400 -0.822165
v -0.465840 0.167060 -0.834647
v -0.763873 0.038010 -0.724943
v -0.776497 0.083846 -0.766897
v -0.780426 0.134775 -0.716802
v -0.789839 0.063284 -0.689757
v -0.764083 0.037479 -0.694185
v -0.700787 0.190454 -0.789845
v -0.700744 0.118174 -0.842158
v -0.452156 0.032244 -0.829375
v -0.536835 0.105405 -0.874108
v -0.772951 0.129054 -0.772330
v -0.609751 0.202486 -0.816813
v -0.620180 0.197458 -0.845242
v -0.625323 0.118726 -0.867263
v -0.629564 0.060682 -0.854805
v -0.624752 0.025276 -0.831042
v -0.590104 0.017896 -0.743781
v -0.648625 0.024455 -0.729323
v -0.674394 0.029649 -0.816169
v -0.672558 0.063685 -0.843518
v -0.664013 0.119457 -0.857482
v -0.657123 0.192881 -0.832429
v -0.650508 0.197796 -0.804883
v -0.546666 0.013029 -0.752586
v -0.568431 0.019375 -0.837092
v -0.589658 0.058657 -0.860419
v -0.586512 0.117897 -0.872977
v -0.565261 0.196111 -0.857852
v -0.557078 0.201590 -0.824257
v -0.456762 0.008853 -0.791980
v -0.479457 0.010515 -0.835435
v -0.496469 0.061952 -0.863394
v -0.517284 0.125945 -0.876319
v -0.580630 0.149572 -0.875794
v -0.620685 0.150277 -0.870239
v -0.661939 0.148721 -0.860085
v -0.701963 0.145536 -0.843888
v -0.730443 0.033630 -0.707546
v -0.749236 0.035766 -0.761549
v -0.747001 0.072559 -0.803126
v -0.731169 0.096000 -0.820603
v -0.448454 0.020961 -0.798996
v -0.458109 0.018942 -0.830533
v -0.470051 0.065254 -0.860077
v -0.499008 0.148773 -0.876707
v -0.569045 0.176643 -0.875803
v -0.615166 0.179746 -0.867437
v -0.660930 0.177957 -0.854801
v -0.704996 0.170106 -0.839027
v -0.757556 0.137166 -0.802511
v -0.510503 0.008970 -0.765321
v -0.538666 0.016124 -0.837561
v -0.555479 0.057707 -0.862881
v -0.555007 0.114268 -0.874897
v -0.541328 0.142600 -0.877663
v -0.526820 0.167907 -0.877973
v -0.512890 0.188709 -0.864527
v -0.511786 0.201355 -0.831880
v -0.449510 0.118508 -0.832247
v -0.457789 0.117580 -0.859763
v -0.483160 0.104401 -0.871490
v -0.505340 0.094862 -0.871588
v -0.532088 0.085683 -0.870543
v -0.558634 0.085391 -0.869832
v -0.591052 0.087171 -0.867481
v -0.628641 0.088696 -0.861886
v -0.667780 0.090605 -0.851817
v -0.703432 0.092734 -0.836626
v -0.740021 0.155361 -0.819122
v -0.754663 0.163514 -0.793590
v -0.756817 0.171096 -0.751666
v -0.461481 0.030656 -0.842629
v -0.487918 0.029906 -0.851767
v -0.516987 0.030492 -0.853200
v -0.548090 0.031521 -0.852934
v -0.581906 0.032998 -0.850554
v -0.626078 0.035628 -0.844262
v -0.676273 0.039511 -0.830400
v -0.722507 0.044544 -0.808297
v -0.757032 0.046652 -0.781497
v -0.777570 0.049561 -0.738908
v -0.782593 0.048169 -0.689220
v -0.721508 0.112209 -0.829837
v -0.732247 0.131751 -0.825531
v -0.755742 0.111941 -0.803616
vt 1.000000 0.500000
vt 0.000000 1.000000
vt 0.000000 1.000000
vt 0.500000 0.000000
vt 0.000000 0.000000
vt 1.000000 0.000000
vt 1.000000 1.000000
vt 0.000000 1.000000
vt 0.000000 0.000000
vt 1.000000 0.000000
vt 1.000000 1.000000
vt 0.000000 1.000000
vt 0.000000 0.000000
vt 1.000000 0.000000
vt 1.000000 1.000000
vt 0.000000 1.000000
vt 0.000000 0.000000
vt 1.000000 0.000000
vt 1.000000 1.000000
vt 0.000000 1.000000
vt 0.000000 0.000000
vt 1.000000 0.000000
vt 1.000000 1.000000
vt 0.000000 1.000000
vt 0.000000 0.000000
vt 1.000000 0.000000
vt 1.000000 1.000000
vt 0.000000 1.000000
vt 0.000000 0.000000
vt 1.000000 0.000000
vt 1.000000 1.000000
vt 0.000000 1.000000
vt 0.000000 0.000000
vt 1.000000 0.000000
vt 1.000000 1.000000
vt 0.000000 1.000000
vn -0.126831 -0.982699 -0.134972
vn -0.111556 -0.993029 -0.038048
vn -0.109087 -0.993601 -0.029264
vn -0.144445 -0.981955 -0.122069
vn 0.967749 -0.153711 -0.199586
vn 0.668850 -0.704292 -0.237935
vn 0.605507 -0.679992 -0.413487
vn 0.924299 -0.150823 -0.350604
vn 0.976290 -0.029214 -0.214486
vn 0.865673 -0.090017 -0.492450
vn 0.952270 0.149032 -0.266404
vn 0.771387 0.080094 -0.631305
vn 0.749006 0.586470 -0.308291
vn 0.648029 0.453801 -0.611656
vn 0.445804 -0.222706 -0.866984
vn 0.339497 -0.095224 -0.935775
vn 0.512526 -0.347360 -0.785276
vn 0.012047 -0.295820 -0.955168
vn -0.052497 -0.310892 -0.948994
vn -0.059338 -0.210959 -0.975692
vn 0.007773 -0.211041 -0.977446
vn 0.249744 0.119911 -0.960859
vn -0.052563 -0.115218 -0.991948
vn -0.001595 -0.140725 -0.990047
vn -0.189943 0.473144 -0.860265
vn -0.313996 0.515099 -0.797546
vn -0.230687 0.911998 -0.339181
vn -0.129067 0.915277 -0.381588
vn -0.063614 0.986526 -0.150730
vn -0.176764 0.974966 -0.134889
vn -0.343529 0.928275 -0.142452
vn -0.390113 0.867885 -0.307552
vn -0.701539 0.662893 -0.261567
vn -0.789454 0.594826 -0.151475
vn 0.079746 0.314126 -0.946026
vn 0.283249 0.784407 -0.551793
vn 0.273847 0.915182 -0.295718
vn -0.203753 -0.195188 -0.959368
vn -0.321159 -0.189371 -0.927899
vn -0.309147 -0.103455 -0.945370
vn -0.196119 -0.107435 -0.974677
vn -0.211989 -0.327066 -0.920917
vn -0.339261 -0.326186 -0.882329
vn -0.478210 -0.308276 -0.822363
vn -0.470423 -0.571288 -0.672556
vn -0.710226 -0.491400 -0.504088
vn -0.693613 -0.252123 -0.674786
vn -0.110509 -0.993823 -0.010135
vn -0.239109 -0.966389 -0.094444
vn -0.173441 -0.977420 -0.120699
vn -0.106141 -0.994160 -0.019483
vn 0.001999 -0.494485 -0.869184
vn -0.055837 -0.523412 -0.850248
vn -0.203256 -0.580772 -0.788283
vn -0.336019 -0.578651 -0.743138
vn -0.855871 -0.451045 -0.253068
vn -0.888600 -0.433791 -0.149047
vn -0.985378 -0.054210 -0.161529
vn -0.950721 -0.050383 -0.305928
vn -0.956571 0.179900 -0.229364
vn -0.978091 0.145977 -0.148422
vn -0.081199 -0.964951 -0.249553
vn -0.069884 -0.994108 -0.082859
vn -0.117397 -0.991576 -0.054732
vn -0.111202 -0.976640 -0.183872
vn -0.440296 -0.189371 -0.877655
vn -0.420809 -0.104494 -0.901111
vn -0.452754 0.501986 -0.736902
vn -0.115686 -0.992308 -0.044069
vn -0.117447 -0.981452 -0.151520
vn -0.122444 -0.569999 -0.812471
vn -0.120861 -0.318797 -0.940086
vn -0.120000 -0.200454 -0.972326
vn -0.112028 -0.110456 -0.987547
vn -0.068978 0.407543 -0.910577
vn -0.013233 0.885828 -0.463826
vn 0.013746 0.975775 -0.218345
vn 0.111756 -0.283049 -0.952572
vn 0.139825 -0.461415 -0.876097
vn 0.072762 -0.180312 -0.980915
vn 0.039225 -0.089771 -0.995190
vn -0.026099 -0.034551 -0.999062
vn -0.200818 0.036912 -0.978933
vn -0.108422 0.002051 -0.994103
vn -0.308409 0.052416 -0.949809
vn -0.433748 0.041663 -0.900071
vn -0.330361 -0.942424 -0.051948
vn -0.346225 -0.937683 -0.029656
vn -0.647449 0.370735 -0.665857
vn 0.151948 -0.908670 -0.388883
vn 0.190041 -0.968661 -0.159940
vn -0.824338 0.090990 -0.558738
vn -0.612742 -0.174719 -0.770727
vn -0.531349 -0.121449 -0.838402
vn -0.580168 -0.024935 -0.814115
vn -0.776349 -0.087911 -0.624143
s 1
g left_bumper
usemtl sc_solid_stl_20260429SG
f 27//1 28//2 29//3 30//4
f 10//5 53//6 54//7 20//8
f 11//9 10//5 20//8 3//10
f 70//11 11//9 3//10 71//12
f 12//13 70//11 71//12 4//14
f 71//12 3//10 55//15 72//16
f 20//8 83//17 55//15 3//10
f 6//18 64//19 75//20 74//21
f 71//12 72//16 56//22 4//14
f 74//21 75//20 65//23 21//24
f 58//25 59//26 33//27 24//28
f 23//29 24//28 33//27 34//30
f 18//31 1//32 81//33 82//34
f 4//14 56//22 67//35 68//36
f 12//13 4//14 68//36 69//37
f 77//38 78//39 32//40 25//41
f 26//42 31//43 78//39 77//38
f 2//44 90//45 91//46 51//47
f 49//48 50//49 7//50 8//51
f 6//18 85//52 86//53 64//19
f 26//42 88//54 89//55 31//43
f 92//56 93//57 16//58 14//59
f 22//60 14//59 16//58 15//61
f 5//62 9//63 62//64 63//65
f 29//3 8//51 7//50 30//4
f 89//55 90//45 2//44 31//43
f 31//43 2//44 79//66 78//39
f 78//39 79//66 19//67 32//40
f 59//26 60//68 1//32 33//27
f 33//27 1//32 18//31 34//30
f 35//69 28//2 27//1 36//70
f 87//71 88//54 26//42 37//72
f 37//72 26//42 77//38 76//73
f 76//73 77//38 25//41 38//74
f 57//75 58//25 24//28 39//76
f 39//76 24//28 23//29 40//77
f 6//18 43//78 84//79 85//52
f 43//78 6//18 74//21 73//80
f 73//80 74//21 21//24 44//81
f 65//23 66//82 44//81 21//24
f 38//74 25//41 46//83 45//84
f 32//40 47//85 46//83 25//41
f 19//67 48//86 47//85 32//40
f 13//87 50//49 49//48 17//88
f 51//47 91//46 92//56 14//59
f 60//68 80//89 81//33 1//32
f 9/1/63 5/2/62 42/3/90 41/4/91
f 54//7 53//6 41//91 42//90
f 83//17 84//79 43//78 55//15
f 55//15 43//78 73//80 72//16
f 72//16 73//80 44//81 56//22
f 66//82 67//35 56//22 44//81
f 45//84 46//83 58//25 57//75
f 46//83 47//85 59//26 58//25
f 47//85 48//86 60//68 59//26
f 63//65 62//64 35//69 36//70
f 64//19 86//53 87//71 37//72
f 64//19 37//72 76//73 75//20
f 75//20 76//73 38//74 65//23
f 45//84 66//82 65//23 38//74
f 57//75 67//35 66//82 45//84
f 68//36 67//35 57//75 39//76
f 69//37 68//36 39//76 40//77
f 81//33 80//89 61//92 22//60
f 82//34 81//33 22//60 15//61
f 54//7 83//17 20//8
f 42//90 84//79 83//17 54//7
f 85//52 84//79 42//90 5//62
f 86//53 85//52 5//62 63//65
f 87//71 86//53 63//65 36//70
f 36//70 27//1 88//54 87//71
f 89//55 88//54 27//1 30//4
f 7//50 90//45 89//55 30//4
f 91//46 90//45 7//50 50//49
f 92//56 91//46 50//49 13//87
f 13//87 17//88 93//57 92//56
f 52/5/93 79/6/66 2/7/44 51/8/47
f 48/9/86 19/10/67 94/11/94 95/12/95
f 95/13/95 94/14/94 52/15/93 96/16/96
f 48/17/86 95/18/95 80/19/89 60/20/68
f 94/21/94 19/22/67 79/23/66 52/24/93
f 61/25/92 80/26/89 95/27/95 96/28/96
f 52/29/93 51/30/47 14/31/59 96/32/96
f 22/33/60 61/34/92 96/35/96 14/36/59
