o misc2
v 0.239499 0.154446 0.208218
v 0.184283 0.251491 -0.137179
v 0.553165 0.239095 -0.203082
v 0.607721 0.141008 0.146228
v 0.508733 0.247212 -0.220038
v 0.566636 0.137434 0.172227
v 0.172818 0.242162 -0.098873
v 0.491463 0.223445 -0.125911
v 0.575893 0.227506 -0.166737
v 0.213291 0.165994 0.173021
v 0.524762 0.162238 0.092394
v 0.619535 0.150529 0.107270
v 0.220383 0.257417 -0.170343
v 0.265023 0.231631 -0.087603
v 0.298491 0.170589 0.130032
v 0.282133 0.147459 0.221323
v 0.228919 0.131459 0.214067
v 0.199169 0.146677 0.171211
v 0.166507 0.233820 -0.152033
v 0.215036 0.239955 -0.187920
v 0.561229 0.225446 -0.217498
v 0.587811 0.211612 -0.173954
v 0.616746 0.122718 0.149005
v 0.568907 0.117884 0.181597
v 0.507730 0.234894 -0.236461
v 0.280537 0.123622 0.229947
v 0.154080 0.222964 -0.103041
v 0.632122 0.133816 0.102912
v 0.228692 0.145367 0.214987
v 0.201493 0.158720 0.174109
v 0.156780 0.236184 -0.099580
v 0.169002 0.247830 -0.147457
v 0.216315 0.251370 -0.184256
v 0.508549 0.244816 -0.230917
v 0.560002 0.236002 -0.212380
v 0.585798 0.222542 -0.170395
v 0.629977 0.144989 0.105941
v 0.615337 0.133963 0.150348
v 0.569081 0.129847 0.181604
v 0.281649 0.136704 0.232001
v 0.610618 0.172702 -0.035633
v 0.608302 0.184136 -0.032190
v 0.597713 0.189018 -0.029732
v 0.502219 0.192919 -0.015255
v 0.287874 0.200820 0.020433
v 0.193056 0.204086 0.037079
v 0.178755 0.197606 0.037372
v 0.176706 0.186412 0.036168
v 0.424913 0.122040 0.206748
v 0.425480 0.133471 0.207421
v 0.424387 0.142447 0.196777
v 0.410642 0.168062 0.105359
v 0.394932 0.196975 0.002230
v 0.378995 0.226099 -0.101614
v 0.364562 0.252346 -0.195177
v 0.362335 0.248910 -0.208312
v 0.361322 0.238927 -0.212693
vn 0.0187 0.9406 0.3390
vn 0.0767 0.9354 0.3452
vn 0.0784 0.9630 0.2580
vn -0.0144 0.9587 0.2841
vn 0.0964 0.9425 0.3201
vn 0.1334 0.9449 0.2988
vn 0.1404 0.9568 0.2544
vn 0.0785 0.9629 0.2581
vn 0.0429 0.9871 0.1544
vn -0.0024 0.9799 0.1995
vn -0.0092 0.9650 0.2620
vn 0.1361 0.9609 0.2412
vn 0.1205 0.9711 0.2061
vn 0.0738 0.9806 0.1814
vn 0.0784 0.9630 0.2579
vn 0.0034 0.9632 0.2686
vn 0.0784 0.9629 0.2580
vn 0.1275 0.9600 0.2493
vn 0.0785 0.9629 0.2580
vn 0.0661 0.9802 0.1865
vn 0.0785 0.9630 0.2580
vn 0.0875 0.9443 0.3173
vn -0.7536 0.5399 0.3750
vn -0.5130 0.3424 0.7871
vn -0.2124 0.7399 -0.6383
vn -0.6461 0.6957 -0.3140
vn 0.8002 0.5983 -0.0408
vn 0.5644 0.6787 -0.4699
vn 0.2585 0.4034 0.8777
vn 0.6843 0.3732 0.6265
vn 0.0337 0.7758 -0.6301
vn 0.1673 0.4065 0.8982
vn -0.7439 0.6354 0.2072
vn 0.7989 0.6001 0.0408
vn -0.7317 0.6162 0.2912
vn 0.8299 0.5458 0.1161
vn -0.0816 0.7772 -0.6239
vn 0.0563 0.3361 0.9401
vn -0.9450 0.1017 0.3109
vn -0.5570 -0.0646 0.8280
vn -0.9800 0.1789 0.0872
vn -0.9684 0.1484 0.2003
vn -0.8092 0.3012 -0.5045
vn -0.3035 0.3596 -0.8824
vn 0.0098 0.4589 -0.8884
vn -0.1387 0.4067 -0.9030
vn 0.6385 0.3900 -0.6635
vn 0.9529 0.2422 -0.1828
vn 0.9714 0.2181 -0.0941
vn 0.7761 0.0307 0.6299
vn 0.9817 0.1901 0.0115
vn 0.2832 -0.0303 0.9586
vn 0.1669 -0.0787 0.9828
vn 0.0201 -0.1150 0.9932
vt 0.000000 0.000000
vt 0.000612 0.117869
vt 0.099358 0.117746
vt 0.098673 0.000000
vt 0.004570 0.880772
vt 0.005189 1.000000
vt 0.104489 0.998955
vt 0.103795 0.879852
vt 0.958320 0.116675
vt 0.956991 0.000000
vt 0.856273 0.000000
vt 0.857527 0.116801
vt 0.866906 0.990935
vt 0.968264 0.989869
vt 0.966919 0.871849
vt 0.865638 0.872788
vt 0.477473 0.000000
vt 0.478442 0.117274
vt 0.485697 0.994945
vt 0.484717 0.876320
vt 0.962620 0.494262
vt 0.861582 0.494794
vt 0.481579 0.496797
vt 0.002591 0.499321
vt 0.101577 0.498799
vt 0.000000 0.500000
vt 1.000000 0.500000
vt 1.000000 0.000000
vt 0.500000 0.500000
vt 0.500000 0.000000
vt 0.000000 1.000000
vt 1.000000 1.000000
vt 0.500000 1.000000
s 1
f 1/1/1 16/2/2 15/3/3 10/4/4
f 6/5/5 4/6/6 12/7/7 11/8/8
f 13/9/9 2/10/10 7/11/11 14/12/3
f 9/13/12 3/14/13 5/15/14 8/16/15
f 14/12/3 7/11/11 46/17/16 45/18/17
f 43/19/18 9/13/12 8/16/15 44/20/19
f 8/16/15 5/15/14 55/21/20 54/22/21
f 44/20/19 8/16/15 54/22/21 53/23/19
f 51/24/22 6/5/5 11/8/8 52/25/19
f 10/1/4 30/26/23 29/27/24 1/28/1
f 13/1/9 33/26/25 32/27/26 2/28/10
f 9/1/12 36/26/27 35/27/28 3/28/13
f 6/1/5 39/26/29 38/27/30 4/28/6
f 3/1/13 35/26/28 34/27/31 5/28/14
f 50/29/32 39/27/29 6/28/5 51/30/22
f 2/1/10 32/26/26 31/27/33 7/28/11
f 42/29/34 36/27/27 9/28/12 43/30/18
f 7/1/11 31/26/33 47/29/35 46/30/16
f 4/1/6 38/26/30 37/27/36 12/28/7
f 5/1/14 34/26/31 56/29/37 55/30/20
f 1/1/1 29/26/24 40/27/38 16/28/2
f 30/26/23 18/31/39 17/32/40 29/27/24
f 31/26/33 27/31/41 48/33/42 47/29/35
f 32/26/26 19/31/43 27/32/41 31/27/33
f 33/26/25 20/31/44 19/32/43 32/27/26
f 34/26/31 25/31/45 57/33/46 56/29/37
f 35/26/28 21/31/47 25/32/45 34/27/31
f 36/26/27 22/31/48 21/32/47 35/27/28
f 41/33/49 22/32/48 36/27/27 42/29/34
f 38/26/30 23/31/50 28/32/51 37/27/36
f 39/26/29 24/31/52 23/32/50 38/27/30
f 49/33/53 24/32/52 39/27/29 50/29/32
f 29/26/24 17/31/40 26/32/54 40/27/38
f 37/26/36 28/31/51 41/33/49 42/29/34
f 12/1/7 37/26/36 42/29/34 43/30/18
f 12/7/7 43/19/18 44/20/19 11/8/8
f 11/8/8 44/20/19 53/23/19 52/25/19
f 46/17/16 10/4/4 15/3/3 45/18/17
f 47/29/35 30/27/23 10/28/4 46/30/16
f 48/33/42 18/32/39 30/27/23 47/29/35
f 40/26/38 26/31/54 49/33/53 50/29/32
f 16/1/2 40/26/38 50/29/32 51/30/22
f 16/2/2 51/24/22 52/25/19 15/3/3
f 53/23/19 45/18/17 15/3/3 52/25/19
f 54/22/21 14/12/3 45/18/17 53/23/19
f 55/21/20 13/9/9 14/12/3 54/22/21
f 56/29/37 33/27/25 13/28/9 55/30/20
f 57/33/46 20/32/44 33/27/25 56/29/37
