o misc2
v 0.239499 0.154446 0.208218
v 0.184283 0.251491 -0.137179
v 0.553165 0.239095 -0.203082
v 0.607721 0.141008 0.146228
v 0.508733 0.247212 -0.220038
v 0.566636 0.137434 0.172227
v 0.172818 0.242162 -0.098873
v 0.491463 0.223445 -0.125911
v 0.575893 0.227506 -0.166737
v 0.213291 0.165994 0.173021
v 0.524762 0.162238 0.092394
v 0.619535 0.150529 0.107270
v 0.220383 0.257417 -0.170343
v 0.265023 0.231631 -0.087603
v 0.298491 0.170589 0.130032
v 0.282133 0.147459 0.221323
v 0.228919 0.131459 0.214067
v 0.199169 0.146677 0.171211
v 0.166507 0.233820 -0.152033
v 0.215036 0.239955 -0.187920
v 0.561229 0.225446 -0.217498
v 0.587811 0.211612 -0.173954
v 0.616746 0.122718 0.149005
v 0.568907 0.117884 0.181597
v 0.507730 0.234894 -0.236461
v 0.280537 0.123622 0.229947
v 0.154080 0.222964 -0.103041
v 0.632122 0.133816 0.102912
v 0.228692 0.145367 0.214987
v 0.201493 0.158720 0.174109
v 0.156780 0.236184 -0.099580
v 0.169002 0.247830 -0.147457
v 0.216315 0.251370 -0.184256
v 0.508549 0.244816 -0.230917
v 0.560002 0.236002 -0.212380
v 0.585798 0.222542 -0.170395
v 0.629977 0.144989 0.105941
v 0.615337 0.133963 0.150348
v 0.569081 0.129847 0.181604
v 0.281649 0.136704 0.232001
v 0.610618 0.172702 -0.035633
v 0.608302 0.184136 -0.032190
v 0.597713 0.189018 -0.029732
v 0.502219 0.192919 -0.015255
v 0.287874 0.200820 0.020433
v 0.193056 0.204086 0.037079
v 0.178755 0.197606 0.037372
v 0.176706 0.186412 0.036168
v 0.424913 0.122040 0.206748
v 0.425480 0.133471 0.207421
v 0.424387 0.142447 0.196777
v 0.410642 0.168062 0.105359
v 0.394932 0.196975 0.002230
v 0.378995 0.226099 -0.101614
v 0.364562 0.252346 -0.195177
v 0.362335 0.248910 -0.208312
v 0.361322 0.238927 -0.212693
vt 0.000000 0.000000
vt 0.000612 0.117869
vt 0.099358 0.117746
vt 0.098673 0.000000
vt 0.004570 0.880772
vt 0.005189 1.000000
vt 0.104489 0.998955
vt 0.103795 0.879852
vt 0.958320 0.116675
vt 0.956991 0.000000
vt 0.856273 0.000000
vt 0.857527 0.116801
vt 0.866906 0.990935
vt 0.968264 0.989869
vt 0.966919 0.871849
vt 0.865638 0.872788
vt 0.477473 0.000000
vt 0.478442 0.117274
vt 0.485697 0.994945
vt 0.484717 0.876320
vt 0.962620 0.494262
vt 0.861582 0.494794
vt 0.481579 0.496797
vt 0.002591 0.499321
vt 0.101577 0.498799
vt 0.000000 0.000000
vt 0.000000 0.500000
vt 1.000000 0.500000
vt 1.000000 0.000000
vt 0.000000 0.000000
vt 0.000000 0.500000
vt 1.000000 0.500000
vt 1.000000 0.000000
vt 0.000000 0.000000
vt 0.000000 0.500000
vt 1.000000 0.500000
vt 1.000000 0.000000
vt 0.000000 0.000000
vt 0.000000 0.500000
vt 1.000000 0.500000
vt 1.000000 0.000000
vt 0.000000 0.000000
vt 0.000000 0.500000
vt 1.000000 0.500000
vt 1.000000 0.000000
vt 0.500000 0.500000
vt 1.000000 0.500000
vt 1.000000 0.000000
vt 0.500000 0.000000
vt 0.000000 0.000000
vt 0.000000 0.500000
vt 1.000000 0.500000
vt 1.000000 0.000000
vt 0.500000 0.500000
vt 1.000000 0.500000
vt 1.000000 0.000000
vt 0.500000 0.000000
vt 0.000000 0.000000
vt 0.000000 0.500000
vt 0.500000 0.500000
vt 0.500000 0.000000
vt 0.000000 0.000000
vt 0.000000 0.500000
vt 1.000000 0.500000
vt 1.000000 0.000000
vt 0.000000 0.000000
vt 0.000000 0.500000
vt 0.500000 0.500000
vt 0.500000 0.000000
vt 0.000000 0.000000
vt 0.000000 0.500000
vt 1.000000 0.500000
vt 1.000000 0.000000
vt 0.000000 1.000000
vt 1.000000 1.000000
vt 0.000000 1.000000
vt 0.500000 1.000000
vt 0.000000 1.000000
vt 1.000000 1.000000
vt 0.000000 1.000000
vt 1.000000 1.000000
vt 0.000000 1.000000
vt 0.500000 1.000000
vt 0.000000 1.000000
vt 1.000000 1.000000
vt 0.000000 1.000000
vt 1.000000 1.000000
vt 0.500000 1.000000
vt 1.000000 1.000000
vt 0.000000 1.000000
vt 1.000000 1.000000
vt 0.000000 1.000000
vt 1.000000 1.000000
vt 0.500000 1.000000
vt 1.000000 1.000000
vt 0.000000 1.000000
vt 1.000000 1.000000
vt 0.000000 0.500000
vt 0.000000 1.000000
vt 0.000000 0.000000
vt 1.000000 0.500000
vt 1.000000 0.000000
vt 1.000000 1.000000
vt 0.000000 0.500000
vt 0.000000 1.000000
vt 0.000000 0.000000
vt 1.000000 0.500000
vt 1.000000 0.000000
vt 1.000000 1.000000
vn 0.018726 0.940621 0.338941
vn 0.078022 0.935212 0.345385
vn 0.078425 0.962946 0.258038
vn -0.014327 0.958701 0.284055
vn 0.096376 0.942470 0.320096
vn 0.133387 0.944963 0.298750
vn 0.140426 0.956850 0.254399
vn 0.078479 0.962942 0.258036
vn 0.042945 0.987079 0.154375
vn -0.002340 0.979883 0.199557
vn -0.009180 0.965015 0.262034
vn 0.078431 0.962960 0.257986
vn 0.136097 0.960878 0.241227
vn 0.120461 0.971084 0.206121
vn 0.075790 0.980424 0.181725
vn 0.078482 0.962972 0.257925
vn 0.003673 0.962900 0.269834
vn 0.078440 0.962945 0.258038
vn 0.127477 0.959988 0.249344
vn 0.078458 0.962948 0.258023
vn 0.066128 0.980217 0.186550
vn 0.078470 0.962966 0.257950
vn 0.078458 0.962948 0.258022
vn 0.087521 0.944282 0.317287
vn 0.078459 0.962948 0.258021
vn -0.753588 0.539899 0.374986
vn -0.512985 0.342415 0.787145
vn -0.212330 0.739919 -0.638307
vn -0.646044 0.695721 -0.314006
vn 0.800214 0.598324 -0.040803
vn 0.564423 0.678666 -0.469935
vn 0.258528 0.403426 0.877730
vn 0.684266 0.373198 0.626500
vn 0.033725 0.775817 -0.630056
vn 0.167263 0.406507 0.898206
vn -0.743886 0.635378 0.207193
vn 0.798865 0.600122 0.040845
vn -0.731734 0.616242 0.291223
vn 0.829859 0.545771 0.116052
vn -0.081622 0.777218 -0.623915
vn 0.056290 0.336159 0.940122
vn -0.944994 0.101716 0.310871
vn -0.556987 -0.064558 0.828009
vn -0.980042 0.178664 0.087159
vn -0.968389 0.148361 0.200529
vn -0.809166 0.301212 -0.504502
vn -0.303462 0.359622 -0.882373
vn 0.009749 0.458912 -0.888428
vn -0.138777 0.406552 -0.903026
vn 0.638515 0.389976 -0.663489
vn 0.952861 0.242199 -0.182745
vn 0.971381 0.218093 -0.094101
vn 0.776070 0.030716 0.629898
vn 0.981905 0.189047 0.011166
vn 0.283114 -0.030307 0.958607
vn 0.166862 -0.078793 0.982827
vn 0.020192 -0.114982 0.993162
s 1
f 1/1/1 16/2/2 15/3/3 10/4/4
f 6/5/5 4/6/6 12/7/7 11/8/8
f 13/9/9 2/10/10 7/11/11 14/12/12
f 9/13/13 3/14/14 5/15/15 8/16/16
f 14/12/12 7/11/11 46/17/17 45/18/18
f 43/19/19 9/13/13 8/16/16 44/20/20
f 8/16/16 5/15/15 55/21/21 54/22/22
f 44/20/20 8/16/16 54/22/22 53/23/23
f 51/24/24 6/5/5 11/8/8 52/25/25
f 10/26/4 30/27/26 29/28/27 1/29/1
f 13/30/9 33/31/28 32/32/29 2/33/10
f 9/34/13 36/35/30 35/36/31 3/37/14
f 6/38/5 39/39/32 38/40/33 4/41/6
f 3/42/14 35/43/31 34/44/34 5/45/15
f 50/46/35 39/47/32 6/48/5 51/49/24
f 2/50/10 32/51/29 31/52/36 7/53/11
f 42/54/37 36/55/30 9/56/13 43/57/19
f 7/58/11 31/59/36 47/60/38 46/61/17
f 4/62/6 38/63/33 37/64/39 12/65/7
f 5/66/15 34/67/34 56/68/40 55/69/21
f 1/70/1 29/71/27 40/72/41 16/73/2
f 30/27/26 18/74/42 17/75/43 29/28/27
f 31/59/36 27/76/44 48/77/45 47/60/38
f 32/51/29 19/78/46 27/79/44 31/52/36
f 33/31/28 20/80/47 19/81/46 32/32/29
f 34/67/34 25/82/48 57/83/49 56/68/40
f 35/43/31 21/84/50 25/85/48 34/44/34
f 36/35/30 22/86/51 21/87/50 35/36/31
f 41/88/52 22/89/51 36/55/30 42/54/37
f 38/63/33 23/90/53 28/91/54 37/64/39
f 39/39/32 24/92/55 23/93/53 38/40/33
f 49/94/56 24/95/55 39/47/32 50/46/35
f 29/71/27 17/96/43 26/97/57 40/72/41
f 37/98/39 28/99/54 41/88/52 42/54/37
f 12/100/7 37/98/39 42/54/37 43/57/19
f 12/7/7 43/19/19 44/20/20 11/8/8
f 11/8/8 44/20/20 53/23/23 52/25/25
f 46/17/17 10/4/4 15/3/3 45/18/18
f 47/60/38 30/101/26 10/102/4 46/61/17
f 48/77/45 18/103/42 30/101/26 47/60/38
f 40/104/41 26/105/57 49/94/56 50/46/35
f 16/106/2 40/104/41 50/46/35 51/49/24
f 16/2/2 51/24/24 52/25/25 15/3/3
f 53/23/23 45/18/18 15/3/3 52/25/25
f 54/22/22 14/12/12 45/18/18 53/23/23
f 55/21/21 13/9/9 14/12/12 54/22/22
f 56/68/40 33/107/28 13/108/9 55/69/21
f 57/83/49 20/109/47 33/107/28 56/68/40
