o misc1
v -0.056756 0.221904 -0.022394
v -0.056974 0.205790 0.036851
v 0.000000 0.206339 0.037027
v 0.000000 0.222371 -0.022758
v 0.056973 0.205790 0.036851
v 0.056756 0.221904 -0.022394
v -0.076776 0.208416 0.025663
v -0.076236 0.218680 -0.013850
v 0.076236 0.218680 -0.013850
v 0.076776 0.208416 0.025663
v -0.083709 0.213025 0.007956
v -0.051328 0.217663 0.007490
v 0.000000 0.218002 0.007474
v 0.051328 0.217663 0.007490
v 0.083709 0.213025 0.007956
v -0.056812 0.190406 0.036344
v -0.000055 0.191146 0.036902
v -0.000117 0.209710 -0.031469
v -0.056854 0.208759 -0.031369
v 0.056994 0.209220 -0.031220
v 0.056882 0.190642 0.036394
v -0.078383 0.204779 -0.020557
v -0.087332 0.198251 0.004118
v -0.078957 0.193045 0.024458
v 0.077977 0.192827 0.025545
v 0.087315 0.198585 0.004292
v 0.077145 0.205209 -0.021829
v -0.057698 0.197420 0.038040
v 0.000000 0.198524 0.038841
v 0.057698 0.197420 0.038040
v 0.078653 0.200624 0.026708
v 0.087182 0.206052 0.006347
v 0.077903 0.212505 -0.018720
v 0.057202 0.216494 -0.028987
v 0.000000 0.216970 -0.029289
v -0.057202 0.216494 -0.028987
v -0.077903 0.212505 -0.018720
v -0.087182 0.206052 0.006347
v -0.078653 0.200624 0.026708
vt 0.000000 0.000000
vt 1.000000 0.000000
vt 0.974045 0.991779
vt 0.028354 0.977789
vt 0.000000 0.000000
vt 1.000000 0.000000
vt 1.000000 1.000000
vt 0.000000 1.000000
vt 0.000000 0.000000
vt 1.000000 0.000000
vt 1.000000 1.000000
vt 0.000000 1.000000
vt 0.000000 0.000000
vt 1.000000 0.000000
vt 1.000000 1.000000
vt 0.000000 1.000000
vt 0.526712 0.000000
vt 0.526712 0.000000
vt 0.526712 1.000000
vt 0.526461 0.985158
vt 1.000000 0.526712
vt 0.000000 0.526712
vt 0.473288 1.000000
vt 0.473288 0.000000
vt 0.000000 0.000000
vt 1.000000 0.000000
vt 1.000000 1.000000
vt 0.000000 1.000000
vt 0.000000 0.000000
vt 1.000000 0.000000
vt 1.000000 1.000000
vt 0.000000 1.000000
vt 0.000000 0.000000
vt 1.000000 0.000000
vt 1.000000 1.000000
vt 0.000000 1.000000
vt 0.000000 0.000000
vt 1.000000 0.000000
vt 1.000000 1.000000
vt 0.000000 1.000000
vt 0.000000 0.000000
vt 1.000000 0.000000
vt 1.000000 1.000000
vt 0.000000 1.000000
vt 0.000000 0.000000
vt 1.000000 0.000000
vt 1.000000 1.000000
vt 0.000000 1.000000
vt 0.000000 0.000000
vt 1.000000 0.000000
vt 1.000000 1.000000
vt 0.000000 1.000000
vt 0.000000 0.000000
vt 1.000000 0.000000
vt 1.000000 1.000000
vt 0.000000 1.000000
vt 0.000000 0.000000
vt 1.000000 0.000000
vt 1.000000 1.000000
vt 0.000000 1.000000
vt 0.000000 0.000000
vt 1.000000 0.000000
vt 1.000000 1.000000
vt 0.000000 1.000000
vt 0.000000 0.000000
vt 1.000000 0.000000
vt 1.000000 1.000000
vt 0.000000 1.000000
vt 0.000000 0.000000
vt 1.000000 0.000000
vt 1.000000 1.000000
vt 0.000000 1.000000
vt 1.000000 0.481997
vt 0.000000 0.481997
vt 1.000000 0.481997
vt 0.000000 0.481997
vt 1.000000 0.481997
vt 0.000000 0.481997
vt 1.000000 0.481997
vt 0.000000 0.481997
vt 1.000000 0.481997
vt 0.000000 0.481997
vt 1.000000 0.481997
vt 0.000000 0.481997
vt 1.000000 0.481997
vt 0.000000 0.481997
vt 1.000000 0.481997
vt 0.000000 0.481997
vt 1.000000 0.481997
vt 0.000000 0.481997
vt 1.000000 0.481997
vt 0.000000 0.481997
vt 1.000000 0.481997
vt 0.000000 0.481997
vt 1.000000 0.481997
vt 0.000000 0.481997
vn -0.064869 0.996588 -0.051041
vn -0.032351 0.965273 0.259233
vn 0.000000 0.965448 0.260597
vn -0.000000 0.999287 -0.037758
vn 0.064869 0.996588 -0.051041
vn 0.032352 0.965273 0.259233
vn -0.314134 0.949256 0.015274
vn -0.361363 0.901963 0.236387
vn 0.361363 0.901963 0.236388
vn 0.314136 0.949255 0.015274
vn -0.287074 0.834785 0.469811
vn -0.066723 0.819749 0.568823
vn 0.000000 0.837482 0.546465
vn 0.066722 0.819748 0.568825
vn 0.287071 0.834785 0.469814
vn -0.160824 -0.027709 0.986594
vn 0.000004 -0.017345 0.999850
vn -0.000004 0.567663 -0.823261
vn -0.138927 0.544794 -0.826982
vn 0.133818 0.554413 -0.821413
vn 0.156670 -0.019553 0.987457
vn -0.738345 0.384531 -0.554060
vn -0.979100 0.198947 0.042227
vn -0.715684 0.025869 0.697945
vn 0.728750 0.033627 0.683954
vn 0.983403 0.178141 0.034411
vn 0.758142 0.376243 -0.532600
vn -0.143907 -0.251808 0.957018
vn -0.000072 -0.245605 0.969370
vn 0.138984 -0.242712 0.960091
vn 0.727340 -0.175043 0.663578
vn 0.999735 -0.007003 -0.021938
vn 0.754338 0.189623 -0.628504
vn 0.142696 0.293665 -0.945198
vn -0.000165 0.290705 -0.956813
vn -0.146869 0.281574 -0.948233
vn -0.785715 0.183892 -0.590623
vn -0.999362 0.033682 -0.011863
vn -0.755488 -0.170315 0.632638
s 1
f 1/1/1 12/18/2 13/20/3 4/4/4
f 6/5/5 4/6/4 13/21/3 14/22/6
f 8/9/7 11/17/8 12/19/2 1/12/1
f 14/23/6 15/24/9 9/14/10 6/15/5
f 12/19/2 11/17/8 7/10/11 2/11/12
f 13/20/3 12/18/2 2/2/12 3/3/13
f 14/22/6 13/21/3 3/7/13 5/8/14
f 10/13/15 15/24/9 14/23/6 5/16/14
f 3/25/13 2/26/12 28/73/16 29/76/17
f 1/29/1 4/30/4 35/87/18 36/90/19
f 4/33/4 6/34/5 34/85/20 35/88/18
f 5/37/14 3/38/13 29/75/17 30/78/21
f 11/41/8 8/42/7 37/91/22 38/94/23
f 2/45/12 7/46/11 39/95/24 28/74/16
f 8/49/7 1/50/1 36/89/19 37/92/22
f 15/53/9 10/54/15 31/79/25 32/82/26
f 6/57/5 9/58/10 33/83/27 34/86/20
f 10/61/15 5/62/14 30/77/21 31/80/25
f 7/65/11 11/66/8 38/93/23 39/96/24
f 9/69/10 15/70/9 32/81/26 33/84/27
f 29/76/17 28/73/16 16/27/28 17/28/29
f 30/78/21 29/75/17 17/39/29 21/40/30
f 31/80/25 30/77/21 21/63/30 25/64/31
f 32/82/26 31/79/25 25/55/31 26/56/32
f 33/84/27 32/81/26 26/71/32 27/72/33
f 34/86/20 33/83/27 27/59/33 20/60/34
f 35/88/18 34/85/20 20/35/34 18/36/35
f 36/90/19 35/87/18 18/31/35 19/32/36
f 37/92/22 36/89/19 19/51/36 22/52/37
f 38/94/23 37/91/22 22/43/37 23/44/38
f 39/96/24 38/93/23 23/67/38 24/68/39
f 28/74/16 39/95/24 24/47/39 16/48/28
