o paddle4
v -0.622648 -0.341399 0.106095
v -0.607743 -0.313722 0.104746
v -0.588897 -0.274646 0.077716
v -0.594585 -0.285418 0.108885
v -0.647053 -0.374176 0.090111
v -0.626663 -0.345755 0.072326
v -0.606620 -0.311635 0.067627
v -0.596199 -0.287523 0.137409
v -0.608770 -0.315558 0.136182
v -0.622907 -0.343077 0.135623
v -0.609620 -0.316984 0.166488
v -0.624278 -0.344133 0.165777
v -0.623513 -0.345854 0.195375
v -0.666384 -0.403881 0.163765
v -0.664772 -0.396757 0.124253
v -0.628576 -0.355877 0.256500
v -0.645411 -0.383881 0.233479
v -0.659460 -0.399995 0.201664
v -0.597162 -0.288050 0.166711
v -0.598348 -0.288973 0.196316
v -0.610404 -0.318131 0.196558
v -0.578033 -0.248303 0.096959
v -0.571699 -0.230489 0.129295
v -0.584791 -0.260307 0.137130
v -0.570595 -0.222325 0.165563
v -0.585068 -0.257761 0.166326
v -0.587330 -0.259960 0.195960
v -0.597848 -0.281196 0.259923
v -0.612509 -0.320125 0.266583
v -0.575311 -0.226715 0.201423
v -0.584904 -0.244628 0.238507
v -0.638265 -0.371648 0.195128
v -0.640213 -0.372681 0.164667
v -0.639294 -0.368940 0.133974
v -0.599269 -0.288949 0.226040
v -0.611191 -0.318952 0.228280
v -0.624165 -0.347434 0.224219
v -0.586813 -0.208158 0.124757
v -0.586333 -0.200149 0.167012
v -0.592331 -0.205554 0.205293
v -0.605704 -0.231204 0.248055
v -0.619229 -0.269412 0.272412
v -0.633927 -0.309986 0.278606
v -0.650847 -0.348083 0.268045
v -0.668672 -0.377208 0.243021
v -0.684461 -0.393953 0.208579
v -0.695442 -0.398309 0.161584
v -0.691865 -0.388434 0.116400
v -0.674487 -0.367771 0.080868
v -0.650556 -0.337834 0.058652
v -0.626484 -0.299198 0.052279
v -0.607768 -0.260655 0.063426
v -0.593918 -0.227718 0.090505
v -0.635278 -0.367760 0.217347
v -0.635514 -0.361677 0.110996
v -0.590458 -0.265323 0.219971
v -0.585977 -0.265189 0.115098
v -0.593170 -0.267886 0.066537
v -0.580432 -0.237826 0.091074
v -0.572003 -0.218889 0.125860
v -0.571309 -0.210465 0.166487
v -0.577536 -0.214462 0.205168
v -0.590154 -0.236973 0.245580
v -0.602039 -0.276097 0.269950
v -0.617529 -0.317850 0.276438
v -0.635345 -0.356286 0.265608
v -0.654779 -0.385313 0.240243
v -0.670275 -0.401298 0.205622
v -0.679287 -0.404956 0.162800
v -0.676416 -0.395812 0.120031
v -0.657368 -0.375395 0.083527
v -0.634449 -0.345851 0.062123
v -0.611062 -0.308236 0.056105
vn 0.8570 -0.5147 -0.0258
vn 0.7935 -0.5736 -0.2035
vn 0.8776 -0.4481 -0.1703
vn 0.8912 -0.4536 -0.0022
vn 0.8000 -0.5982 -0.0471
vn 0.6503 -0.7252 -0.2264
vn 0.8703 -0.4925 -0.0060
vn 0.7959 -0.6037 -0.0469
vn 0.8989 -0.4380 0.0080
vn 0.9100 -0.4143 0.0172
vn 0.9172 -0.3978 0.0216
vn 0.9280 -0.3373 -0.1585
vn 0.6071 0.1282 -0.7842
vn 0.7058 0.3957 -0.5876
vn 0.9612 -0.2461 -0.1247
vn 0.4742 -0.2055 -0.8561
vn 0.9182 -0.3949 0.0322
vn 0.9219 -0.3853 0.0396
vn 0.0215 -0.7541 -0.6564
vn 0.2504 -0.5034 -0.8270
vn 0.5652 -0.8084 -0.1642
vn -0.1567 -0.9112 -0.3810
vn 0.9272 -0.3716 0.0475
vn 0.9235 -0.3828 0.0249
vn 0.9042 -0.4271 0.0064
vn 0.8771 -0.4801 -0.0153
vn 0.8080 -0.5870 -0.0502
vn 0.9287 -0.3699 0.0266
vn 0.9126 -0.4087 0.0056
vn 0.8873 -0.4607 -0.0200
vn 0.8251 -0.5633 -0.0433
vn 0.9206 -0.3899 0.0200
vn 0.8940 -0.4480 0.0060
vn 0.8481 -0.5296 -0.0163
vn 0.5940 -0.8018 -0.0658
vn -0.2296 -0.9727 -0.0346
vn 0.6250 -0.7799 0.0326
vn -0.1663 -0.9410 0.2948
vn 0.8351 -0.5204 0.1780
vn 0.9050 -0.3865 0.1780
vn 0.7089 -0.6900 0.1461
vn 0.2007 -0.5421 0.8160
vn 0.0022 -0.7960 0.6053
vn 0.3820 -0.2076 0.9005
vn 0.9340 -0.3533 0.0528
vn 0.9360 -0.3504 0.0337
vn 0.9414 -0.3332 0.0517
vn 0.9691 -0.2459 -0.0181
vn 0.7914 0.5400 -0.2865
vn 0.9702 -0.2356 0.0575
vn 0.7955 0.6056 0.0194
vn 0.7074 0.6003 0.3731
vn 0.9722 -0.1906 0.1360
vn 0.9634 -0.1596 0.2152
vn 0.9421 -0.2711 0.1974
vn 0.5141 0.1438 0.8456
vn 0.5942 0.4612 0.6589
vn 0.3448 0.2928 -0.8919
vn 0.4793 0.5996 -0.6409
vn 0.5620 0.7606 -0.3250
vn 0.5616 0.8274 0.0118
vn 0.4705 0.7891 0.3949
vn 0.3519 0.5867 0.7293
vn 0.2387 0.2683 0.9333
vn 0.0956 -0.0809 0.9921
vn -0.0825 -0.4200 0.9038
vn -0.2520 -0.6872 0.6814
vn -0.3748 -0.8619 0.3415
vn -0.3911 -0.9190 -0.0495
vn -0.3074 -0.8517 -0.4244
vn -0.1831 -0.6816 -0.7085
vn -0.0006 -0.3930 -0.9195
vn 0.1978 -0.0530 -0.9788
vt 0.000000 0.000000
vt 1.000000 0.000000
vt 1.000000 1.000000
vt 0.000000 1.000000
s 1
f 1/1/1 6/2/2 7/3/3 2/4/4
f 1/1/1 55/2/5 5/3/6 6/4/2
f 1/1/1 10/2/7 34/3/8 55/4/5
f 1/1/1 2/2/4 9/3/9 10/4/7
f 2/1/4 4/2/10 8/3/11 9/4/9
f 2/1/4 7/2/3 3/3/12 4/4/10
f 3/1/12 58/2/13 59/3/14 22/4/15
f 3/1/12 7/2/3 73/3/16 58/4/13
f 3/1/12 22/2/15 57/3/17 4/4/10
f 4/1/10 57/2/17 24/3/18 8/4/11
f 5/1/6 71/2/19 72/3/20 6/4/2
f 5/1/6 15/2/21 70/3/22 71/4/19
f 5/1/6 55/2/5 34/3/8 15/4/21
f 6/1/2 72/2/20 73/3/16 7/4/3
f 8/1/11 24/2/18 26/3/23 19/4/24
f 8/1/11 19/2/24 11/3/25 9/4/9
f 9/1/9 11/2/25 12/3/26 10/4/7
f 10/1/7 12/2/26 33/3/27 34/4/8
f 11/1/25 19/2/24 20/3/28 21/4/29
f 11/1/25 21/2/29 13/3/30 12/4/26
f 12/1/26 13/2/30 32/3/31 33/4/27
f 13/1/30 21/2/29 36/3/32 37/4/33
f 13/1/30 37/2/33 54/3/34 32/4/31
f 14/1/35 15/2/21 34/3/8 33/4/27
f 14/1/35 69/2/36 70/3/22 15/4/21
f 14/1/35 18/2/37 68/3/38 69/4/36
f 14/1/35 33/2/27 32/3/31 18/4/37
f 16/1/39 37/2/33 36/3/32 29/4/40
f 16/1/39 17/2/41 54/3/34 37/4/33
f 16/1/39 66/2/42 67/3/43 17/4/41
f 16/1/39 29/2/40 65/3/44 66/4/42
f 17/1/41 18/2/37 32/3/31 54/4/34
f 17/1/41 67/2/43 68/3/38 18/4/37
f 19/1/24 26/2/23 27/3/45 20/4/28
f 20/1/28 35/2/46 36/3/32 21/4/29
f 20/1/28 27/2/45 56/3/47 35/4/46
f 22/1/15 23/2/48 24/3/18 57/4/17
f 22/1/15 59/2/14 60/3/49 23/4/48
f 23/1/48 25/2/50 26/3/23 24/4/18
f 23/1/48 60/2/49 61/3/51 25/4/50
f 25/1/50 61/2/51 62/3/52 30/4/53
f 25/1/50 30/2/53 27/3/45 26/4/23
f 27/1/45 30/2/53 31/3/54 56/4/47
f 28/1/55 64/2/56 65/3/44 29/4/40
f 28/1/55 31/2/54 63/3/57 64/4/56
f 28/1/55 35/2/46 56/3/47 31/4/54
f 28/1/55 29/2/40 36/3/32 35/4/46
f 30/1/53 62/2/52 63/3/57 31/4/54
f 59/1/14 58/2/13 52/3/58 53/4/59
f 60/1/49 59/2/14 53/3/59 38/4/60
f 61/1/51 60/2/49 38/3/60 39/4/61
f 62/1/52 61/2/51 39/3/61 40/4/62
f 63/1/57 62/2/52 40/3/62 41/4/63
f 64/1/56 63/2/57 41/3/63 42/4/64
f 65/1/44 64/2/56 42/3/64 43/4/65
f 66/1/42 65/2/44 43/3/65 44/4/66
f 67/1/43 66/2/42 44/3/66 45/4/67
f 68/1/38 67/2/43 45/3/67 46/4/68
f 69/1/36 68/2/38 46/3/68 47/4/69
f 70/1/22 69/2/36 47/3/69 48/4/70
f 71/1/19 70/2/22 48/3/70 49/4/71
f 72/1/20 71/2/19 49/3/71 50/4/72
f 73/1/16 72/2/20 50/3/72 51/4/73
f 58/1/13 73/2/16 51/3/73 52/4/58
