o paddle4
v -0.622648 -0.341399 0.106095
v -0.607743 -0.313722 0.104746
v -0.588897 -0.274646 0.077716
v -0.594585 -0.285418 0.108885
v -0.647053 -0.374176 0.090111
v -0.626663 -0.345755 0.072326
v -0.606620 -0.311635 0.067627
v -0.596199 -0.287523 0.137409
v -0.608770 -0.315558 0.136182
v -0.622907 -0.343077 0.135623
v -0.609620 -0.316984 0.166488
v -0.624278 -0.344133 0.165777
v -0.623513 -0.345854 0.195375
v -0.666384 -0.403881 0.163765
v -0.664772 -0.396757 0.124253
v -0.628576 -0.355877 0.256500
v -0.645411 -0.383881 0.233479
v -0.659460 -0.399995 0.201664
v -0.597162 -0.288050 0.166711
v -0.598348 -0.288973 0.196316
v -0.610404 -0.318131 0.196558
v -0.578033 -0.248303 0.096959
v -0.571699 -0.230489 0.129295
v -0.584791 -0.260307 0.137130
v -0.570595 -0.222325 0.165563
v -0.585068 -0.257761 0.166326
v -0.587330 -0.259960 0.195960
v -0.597848 -0.281196 0.259923
v -0.612509 -0.320125 0.266583
v -0.575311 -0.226715 0.201423
v -0.584904 -0.244628 0.238507
v -0.638265 -0.371648 0.195128
v -0.640213 -0.372681 0.164667
v -0.639294 -0.368940 0.133974
v -0.599269 -0.288949 0.226040
v -0.611191 -0.318952 0.228280
v -0.624165 -0.347434 0.224219
v -0.586813 -0.208158 0.124757
v -0.586333 -0.200149 0.167012
v -0.592331 -0.205554 0.205293
v -0.605704 -0.231204 0.248055
v -0.619229 -0.269412 0.272412
v -0.633927 -0.309986 0.278606
v -0.650847 -0.348083 0.268045
v -0.668672 -0.377208 0.243021
v -0.684461 -0.393953 0.208579
v -0.695442 -0.398309 0.161584
v -0.691865 -0.388434 0.116400
v -0.674487 -0.367771 0.080868
v -0.650556 -0.337834 0.058652
v -0.626484 -0.299198 0.052279
v -0.607768 -0.260655 0.063426
v -0.593918 -0.227718 0.090505
v -0.635278 -0.367760 0.217347
v -0.635514 -0.361677 0.110996
v -0.590458 -0.265323 0.219971
v -0.585977 -0.265189 0.115098
v -0.593170 -0.267886 0.066537
v -0.580432 -0.237826 0.091074
v -0.572003 -0.218889 0.125860
v -0.571309 -0.210465 0.166487
v -0.577536 -0.214462 0.205168
v -0.590154 -0.236973 0.245580
v -0.602039 -0.276097 0.269950
v -0.617529 -0.317850 0.276438
v -0.635345 -0.356286 0.265608
v -0.654779 -0.385313 0.240243
v -0.670275 -0.401298 0.205622
v -0.679287 -0.404956 0.162800
v -0.676416 -0.395812 0.120031
v -0.657368 -0.375395 0.083527
v -0.634449 -0.345851 0.062123
v -0.611062 -0.308236 0.056105
vn 0.857008 -0.514657 -0.025793
vn 0.793494 -0.573565 -0.203447
vn 0.877625 -0.448081 -0.170289
vn 0.891197 -0.453611 -0.002235
vn 0.799958 -0.598203 -0.047124
vn 0.650326 -0.725154 -0.226335
vn 0.870329 -0.492435 -0.005964
vn 0.795844 -0.603682 -0.046907
vn 0.898845 -0.438195 0.007889
vn 0.910003 -0.414242 0.017254
vn 0.917197 -0.397849 0.021562
vn 0.927969 -0.337261 -0.158523
vn 0.607073 0.128223 -0.784233
vn 0.705751 0.395681 -0.587666
vn 0.961177 -0.246152 -0.124695
vn 0.474188 -0.205467 -0.856113
vn 0.918163 -0.394891 0.032223
vn 0.921932 -0.385313 0.039696
vn 0.021448 -0.754084 -0.656428
vn 0.250333 -0.503392 -0.827001
vn 0.565196 -0.808443 -0.164235
vn -0.156712 -0.911192 -0.381011
vn 0.927165 -0.371625 0.047545
vn 0.923496 -0.382802 0.024865
vn 0.904066 -0.427349 0.006147
vn 0.877026 -0.480200 -0.015261
vn 0.807987 -0.587058 -0.050200
vn 0.928659 -0.369980 0.026571
vn 0.912702 -0.408586 0.005622
vn 0.887353 -0.460657 -0.020023
vn 0.825088 -0.563343 -0.043293
vn 0.920617 -0.389954 0.019969
vn 0.894016 -0.447996 0.005982
vn 0.848085 -0.529608 -0.016322
vn 0.594061 -0.801725 -0.065791
vn -0.229668 -0.972655 -0.034563
vn 0.625072 -0.779885 0.032628
vn -0.166371 -0.940972 0.294773
vn 0.835163 -0.520399 0.178011
vn 0.904963 -0.386489 0.177954
vn 0.709029 -0.689855 0.146213
vn 0.200693 -0.542099 0.815997
vn 0.002221 -0.796000 0.605293
vn 0.381993 -0.207579 0.900551
vn 0.934026 -0.353278 0.052822
vn 0.935906 -0.350649 0.033530
vn 0.941439 -0.333192 0.051736
vn 0.969132 -0.245878 -0.018092
vn 0.791356 0.540037 -0.286560
vn 0.970140 -0.235626 0.057530
vn 0.795489 0.605656 0.019433
vn 0.707389 0.600323 0.373113
vn 0.972201 -0.190594 0.136014
vn 0.963450 -0.159578 0.215171
vn 0.942093 -0.271130 0.197355
vn 0.514068 0.143797 0.845610
vn 0.594249 0.461220 0.658896
vn 0.344758 0.292815 -0.891853
vn 0.479289 0.599535 -0.640968
vn 0.561961 0.760648 -0.324982
vn 0.561563 0.827350 0.011744
vn 0.470514 0.789069 0.394953
vn 0.351819 0.586716 0.729375
vn 0.238678 0.268343 0.933287
vn 0.095620 -0.080938 0.992122
vn -0.082547 -0.420001 0.903762
vn -0.252025 -0.687158 0.681394
vn -0.374809 -0.861930 0.341460
vn -0.391082 -0.919026 -0.049464
vn -0.307429 -0.851676 -0.424423
vn -0.183091 -0.681562 -0.708485
vn -0.000645 -0.393027 -0.919527
vn 0.197759 -0.053033 -0.978815
s 1
f 1//1 6//2 7//3 2//4
f 1//1 55//5 5//6 6//2
f 1//1 10//7 34//8 55//5
f 1//1 2//4 9//9 10//7
f 2//4 4//10 8//11 9//9
f 2//4 7//3 3//12 4//10
f 3//12 58//13 59//14 22//15
f 3//12 7//3 73//16 58//13
f 3//12 22//15 57//17 4//10
f 4//10 57//17 24//18 8//11
f 5//6 71//19 72//20 6//2
f 5//6 15//21 70//22 71//19
f 5//6 55//5 34//8 15//21
f 6//2 72//20 73//16 7//3
f 8//11 24//18 26//23 19//24
f 8//11 19//24 11//25 9//9
f 9//9 11//25 12//26 10//7
f 10//7 12//26 33//27 34//8
f 11//25 19//24 20//28 21//29
f 11//25 21//29 13//30 12//26
f 12//26 13//30 32//31 33//27
f 13//30 21//29 36//32 37//33
f 13//30 37//33 54//34 32//31
f 14//35 15//21 34//8 33//27
f 14//35 69//36 70//22 15//21
f 14//35 18//37 68//38 69//36
f 14//35 33//27 32//31 18//37
f 16//39 37//33 36//32 29//40
f 16//39 17//41 54//34 37//33
f 16//39 66//42 67//43 17//41
f 16//39 29//40 65//44 66//42
f 17//41 18//37 32//31 54//34
f 17//41 67//43 68//38 18//37
f 19//24 26//23 27//45 20//28
f 20//28 35//46 36//32 21//29
f 20//28 27//45 56//47 35//46
f 22//15 23//48 24//18 57//17
f 22//15 59//14 60//49 23//48
f 23//48 25//50 26//23 24//18
f 23//48 60//49 61//51 25//50
f 25//50 61//51 62//52 30//53
f 25//50 30//53 27//45 26//23
f 27//45 30//53 31//54 56//47
f 28//55 64//56 65//44 29//40
f 28//55 31//54 63//57 64//56
f 28//55 35//46 56//47 31//54
f 28//55 29//40 36//32 35//46
f 30//53 62//52 63//57 31//54
f 59//14 58//13 52//58 53//59
f 60//49 59//14 53//59 38//60
f 61//51 60//49 38//60 39//61
f 62//52 61//51 39//61 40//62
f 63//57 62//52 40//62 41//63
f 64//56 63//57 41//63 42//64
f 65//44 64//56 42//64 43//65
f 66//42 65//44 43//65 44//66
f 67//43 66//42 44//66 45//67
f 68//38 67//43 45//67 46//68
f 69//36 68//38 46//68 47//69
f 70//22 69//36 47//69 48//70
f 71//19 70//22 48//70 49//71
f 72//20 71//19 49//71 50//72
f 73//16 72//20 50//72 51//73
f 58//13 73//16 51//73 52//58
