o paddle1
v 0.527795 -0.179425 -0.081210
v 0.579516 -0.263733 -0.179586
v 0.542939 -0.207597 -0.143933
v 0.558191 -0.232864 -0.142894
v 0.561353 -0.233716 -0.082936
v 0.542917 -0.210920 -0.204733
v 0.563469 -0.241668 -0.195068
v 0.529921 -0.179002 -0.048248
v 0.474934 -0.136196 -0.074887
v 0.548692 -0.206838 -0.046532
v 0.563985 -0.235319 -0.052876
v 0.584050 -0.272184 -0.041350
v 0.594048 -0.289282 -0.076243
v 0.504391 -0.159921 -0.183985
v 0.522810 -0.181277 -0.200040
v 0.575553 -0.259390 -0.083977
v 0.598854 -0.293065 -0.117120
v 0.575485 -0.260427 -0.114413
v 0.593580 -0.283017 -0.152452
v 0.572979 -0.256553 -0.143591
v 0.471193 -0.136004 -0.114312
v 0.483998 -0.143450 -0.155149
v 0.497012 -0.146731 -0.037117
v 0.526714 -0.171880 -0.012480
v 0.551381 -0.206508 -0.004032
v 0.571272 -0.245125 -0.015087
v 0.546012 -0.206436 -0.081057
v 0.563012 -0.231523 -0.113480
v 0.544007 -0.206615 -0.113239
v 0.526010 -0.180021 -0.113863
v 0.525866 -0.182302 -0.145352
v 0.505036 -0.155540 -0.081084
v 0.501846 -0.154838 -0.114927
v 0.504910 -0.159183 -0.148255
v 0.525669 -0.184097 -0.175043
v 0.542818 -0.209476 -0.173917
v 0.558283 -0.233972 -0.170284
v 0.490668 -0.122112 -0.159040
v 0.517277 -0.141622 -0.193415
v 0.539304 -0.167013 -0.211387
v 0.560494 -0.199363 -0.217625
v 0.474759 -0.113321 -0.111581
v 0.481516 -0.114251 -0.070771
v 0.514652 -0.130068 -0.023419
v 0.545017 -0.157257 0.000437
v 0.570804 -0.192440 0.008116
v 0.594449 -0.240072 -0.005586
v 0.608786 -0.268783 -0.031472
v 0.621231 -0.287622 -0.072526
v 0.626101 -0.289970 -0.116842
v 0.621532 -0.276629 -0.161524
v 0.606591 -0.257636 -0.190510
v 0.584860 -0.230693 -0.210627
v 0.512972 -0.160896 -0.056179
v 0.574018 -0.255044 -0.061456
v 0.510425 -0.165760 -0.172075
v 0.569296 -0.250751 -0.163818
v 0.585029 -0.265026 -0.186778
v 0.568295 -0.241660 -0.204361
v 0.546001 -0.208934 -0.212512
v 0.525406 -0.177154 -0.207562
v 0.504653 -0.154693 -0.190201
v 0.481835 -0.137671 -0.158865
v 0.467054 -0.130081 -0.113790
v 0.471963 -0.130289 -0.071789
v 0.499356 -0.141882 -0.027315
v 0.528532 -0.169364 -0.004083
v 0.553967 -0.204239 0.004038
v 0.576613 -0.246768 -0.008359
v 0.589388 -0.275717 -0.035738
v 0.602941 -0.294072 -0.073836
v 0.609717 -0.296121 -0.117920
v 0.603446 -0.284947 -0.157492
vn -0.7824 -0.6201 0.0587
vn -0.7767 -0.6281 0.0477
vn -0.8292 -0.5569 0.0471
vn -0.8415 -0.5386 0.0410
vn -0.8523 -0.5204 0.0535
vn -0.7826 -0.6205 0.0513
vn -0.6634 -0.7462 0.0551
vn -0.6232 -0.7802 0.0540
vn -0.6267 -0.7785 0.0348
vn -0.7157 -0.6838 -0.1423
vn -0.8170 -0.5765 -0.0106
vn -0.8392 -0.5438 0.0101
vn -0.7916 -0.5978 -0.1263
vn -0.2274 -0.5494 -0.8041
vn -0.0711 -0.7446 -0.6637
vn 0.0953 -0.8980 -0.4295
vn -0.6806 -0.7239 -0.1129
vn -0.8316 -0.5553 0.0088
vn -0.8328 -0.5509 0.0538
vn -0.8514 -0.5205 0.0642
vn -0.8626 -0.5047 0.0348
vn -0.7875 -0.6152 0.0377
vn -0.8015 -0.5972 0.0310
vn -0.8364 -0.5475 0.0254
vn -0.8492 -0.5281 -0.0047
vn -0.8712 -0.4908 0.0126
vn -0.8779 -0.4760 0.0514
vn -0.8620 -0.5069 -0.0038
vn -0.8733 -0.4858 0.0354
vn -0.8215 -0.5560 -0.1263
vn -0.3946 -0.3046 -0.8669
vn -0.8249 -0.5483 -0.1375
vn -0.5206 -0.0305 -0.8533
vn -0.8420 -0.5213 0.1389
vn -0.7907 -0.5962 0.1394
vn -0.6964 -0.7009 0.1540
vn -0.6310 -0.7697 0.0965
vn -0.8828 0.2646 0.3882
vn -0.9597 0.2440 -0.1397
vn -0.6253 -0.7804 0.0055
vn -0.7010 0.2044 0.6833
vn -0.8505 -0.5061 0.1430
vn -0.8137 -0.5714 0.1066
vn -0.0625 -0.8248 0.5620
vn -0.1769 -0.5325 0.8277
vn -0.7498 -0.6610 0.0296
vn 0.0619 -0.9633 0.2613
vn -0.6973 -0.7151 -0.0489
vn 0.1427 -0.9831 -0.1148
vn -0.7689 -0.6248 -0.1357
vn -0.6706 0.1532 -0.7258
vn -0.7159 -0.6977 0.0273
vn -0.6621 -0.7490 0.0250
vn -0.6715 -0.7381 -0.0655
vn -0.8340 0.2281 -0.5025
vn -0.5222 -0.0169 0.8527
vn -0.3221 -0.2594 0.9104
vn -0.0384 -0.4494 -0.8925
vn 0.1300 -0.6878 -0.7142
vn -0.2066 -0.1849 -0.9608
vn -0.3630 0.1019 -0.9262
vn -0.5400 0.3194 -0.7787
vn -0.7447 0.4249 -0.5147
vn -0.8803 0.4616 -0.1092
vn -0.7698 0.4862 0.4135
vn -0.5352 0.3658 0.7614
vn -0.3434 0.1347 0.9295
vn -0.1504 -0.1397 0.9787
vn 0.0263 -0.4661 0.8844
vn 0.1675 -0.7646 0.6224
vn 0.2874 -0.9113 0.2950
vn 0.3475 -0.9316 -0.1068
vn 0.2624 -0.8364 -0.4812
vt 0.000000 0.000000
vt 1.000000 0.000000
vt 1.000000 1.000000
vt 0.000000 1.000000
s 1
f 1/1/1 30/2/2 29/3/3 27/4/4
f 1/1/1 27/2/4 10/3/5 8/4/6
f 1/1/1 8/2/6 54/3/7 32/4/8
f 1/1/1 32/2/8 33/3/9 30/4/2
f 2/1/10 57/2/11 37/3/12 7/4/13
f 7/1/13 59/2/14 58/3/15 2/4/10
f 73/1/16 19/2/17 2/3/10 58/4/15
f 2/1/10 19/2/17 20/3/18 57/4/11
f 3/1/19 4/2/20 28/3/21 29/4/3
f 3/1/19 29/2/3 30/3/2 31/4/22
f 3/1/19 31/2/22 35/3/23 36/4/24
f 3/1/19 36/2/24 37/3/12 4/4/20
f 4/1/20 37/2/12 57/3/11 20/4/18
f 4/1/20 20/2/18 18/3/25 28/4/21
f 5/1/26 11/2/27 10/3/5 27/4/4
f 5/1/26 27/2/4 29/3/3 28/4/21
f 5/1/26 28/2/21 18/3/25 16/4/28
f 5/1/26 16/2/28 55/3/29 11/4/27
f 6/1/30 60/2/31 59/3/14 7/4/13
f 6/1/30 7/2/13 37/3/12 36/4/24
f 6/1/30 36/2/24 35/3/23 15/4/32
f 15/1/32 61/2/33 60/3/31 6/4/30
f 8/1/6 10/2/5 25/3/34 24/4/35
f 8/1/6 24/2/35 23/3/36 54/4/7
f 9/1/37 65/2/38 64/3/39 21/4/40
f 9/1/37 21/2/40 33/3/9 32/4/8
f 9/1/37 32/2/8 54/3/7 23/4/36
f 23/1/36 66/2/41 65/3/38 9/4/37
f 10/1/5 11/2/27 26/3/42 25/4/34
f 11/1/27 55/2/29 12/3/43 26/4/42
f 12/1/43 70/2/44 69/3/45 26/4/42
f 12/1/43 55/2/29 16/3/28 13/4/46
f 13/1/46 71/2/47 70/3/44 12/4/43
f 13/1/46 16/2/28 18/3/25 17/4/48
f 17/1/48 72/2/49 71/3/47 13/4/46
f 14/1/50 62/2/51 61/3/33 15/4/32
f 14/1/50 15/2/32 35/3/23 56/4/52
f 14/1/50 56/2/52 34/3/53 22/4/54
f 22/1/54 63/2/55 62/3/51 14/4/50
f 17/1/48 18/2/25 20/3/18 19/4/17
f 19/1/17 73/2/16 72/3/49 17/4/48
f 21/1/40 64/2/39 63/3/55 22/4/54
f 21/1/40 22/2/54 34/3/53 33/4/9
f 24/1/35 67/2/56 66/3/41 23/4/36
f 25/1/34 68/2/57 67/3/56 24/4/35
f 26/1/42 69/2/45 68/3/57 25/4/34
f 30/1/2 33/2/9 34/3/53 31/4/22
f 31/1/22 34/2/53 56/3/52 35/4/23
f 59/1/14 53/2/58 52/3/59 58/4/15
f 60/1/31 41/2/60 53/3/58 59/4/14
f 61/1/33 40/2/61 41/3/60 60/4/31
f 62/1/51 39/2/62 40/3/61 61/4/33
f 63/1/55 38/2/63 39/3/62 62/4/51
f 64/1/39 42/2/64 38/3/63 63/4/55
f 65/1/38 43/2/65 42/3/64 64/4/39
f 66/1/41 44/2/66 43/3/65 65/4/38
f 67/1/56 45/2/67 44/3/66 66/4/41
f 68/1/57 46/2/68 45/3/67 67/4/56
f 69/1/45 47/2/69 46/3/68 68/4/57
f 70/1/44 48/2/70 47/3/69 69/4/45
f 71/1/47 49/2/71 48/3/70 70/4/44
f 72/1/49 50/2/72 49/3/71 71/4/47
f 73/1/16 51/2/73 50/3/72 72/4/49
f 52/1/59 51/2/73 73/3/16 58/4/15
