o right_stick_ring
v 0.237257 0.394090 -0.323596
v 0.212181 0.393729 -0.387968
v 0.299714 0.393875 -0.299593
v 0.221537 0.368714 -0.307432
v 0.299714 0.368740 -0.275740
v 0.187499 0.368841 -0.387968
v 0.226890 0.386773 -0.312932
v 0.195848 0.387529 -0.387968
v 0.299714 0.387093 -0.283702
v 0.227819 0.346706 -0.313384
v 0.196681 0.346242 -0.387968
v 0.299714 0.346521 -0.284601
v 0.217803 0.391658 -0.387968
v 0.218850 0.393872 -0.352334
v 0.261258 0.346543 -0.291987
v 0.257851 0.368735 -0.283832
v 0.260691 0.387027 -0.291207
v 0.205260 0.346300 -0.346587
v 0.196733 0.368743 -0.343329
v 0.204243 0.387271 -0.346431
v 0.299714 0.391922 -0.304846
v 0.242389 0.391826 -0.328465
v 0.266210 0.393943 -0.305759
v 0.269234 0.391888 -0.310848
v 0.224328 0.391746 -0.355013
v 0.220363 0.387972 -0.387968
v 0.226354 0.387961 -0.356914
v 0.243570 0.387998 -0.331006
v 0.269390 0.388078 -0.313659
v 0.299714 0.388190 -0.307512
v 0.242612 0.338451 -0.328815
v 0.269036 0.338401 -0.312298
v 0.299714 0.338381 -0.306541
v 0.219633 0.338265 -0.387968
v 0.225747 0.338337 -0.355160
v 0.362171 0.394090 -0.323596
v 0.387247 0.393729 -0.387968
v 0.377891 0.368714 -0.307432
v 0.411929 0.368841 -0.387968
v 0.372537 0.386773 -0.312932
v 0.403579 0.387529 -0.387968
v 0.371609 0.346706 -0.313384
v 0.402747 0.346242 -0.387968
v 0.381625 0.391658 -0.387968
v 0.380578 0.393872 -0.352334
v 0.338170 0.346543 -0.291987
v 0.341577 0.368735 -0.283832
v 0.338737 0.387027 -0.291207
v 0.394167 0.346300 -0.346587
v 0.402695 0.368743 -0.343329
v 0.395185 0.387271 -0.346431
v 0.357039 0.391826 -0.328465
v 0.333217 0.393943 -0.305759
v 0.330194 0.391888 -0.310848
v 0.375099 0.391746 -0.355013
v 0.379065 0.387972 -0.387968
v 0.373074 0.387961 -0.356914
v 0.355858 0.387998 -0.331006
v 0.330038 0.388078 -0.313659
v 0.356816 0.338451 -0.328815
v 0.330391 0.338401 -0.312298
v 0.379795 0.338265 -0.387968
v 0.373681 0.338337 -0.355160
v 0.237257 0.394090 -0.452340
v 0.299714 0.393875 -0.476343
v 0.221537 0.368714 -0.468504
v 0.299714 0.368740 -0.500196
v 0.226890 0.386773 -0.463004
v 0.299714 0.387093 -0.492234
v 0.227819 0.346706 -0.462552
v 0.299714 0.346521 -0.491335
v 0.218850 0.393872 -0.423602
v 0.261258 0.346543 -0.483949
v 0.257851 0.368735 -0.492104
v 0.260691 0.387027 -0.484728
v 0.205260 0.346300 -0.429349
v 0.196733 0.368743 -0.432607
v 0.204243 0.387271 -0.429505
v 0.299714 0.391922 -0.471090
v 0.242389 0.391826 -0.447471
v 0.266210 0.393943 -0.470176
v 0.269234 0.391888 -0.465088
v 0.224328 0.391746 -0.420922
v 0.226354 0.387961 -0.419022
v 0.243570 0.387998 -0.444930
v 0.269390 0.388078 -0.462277
v 0.299714 0.388190 -0.468423
v 0.242612 0.338451 -0.447121
v 0.269036 0.338401 -0.463638
v 0.299714 0.338381 -0.469395
v 0.225747 0.338337 -0.420776
v 0.362171 0.394090 -0.452340
v 0.377891 0.368714 -0.468504
v 0.372537 0.386773 -0.463004
v 0.371609 0.346706 -0.462552
v 0.380578 0.393872 -0.423602
v 0.338170 0.346543 -0.483949
v 0.341577 0.368735 -0.492104
v 0.338737 0.387027 -0.484728
v 0.394167 0.346300 -0.429349
v 0.402695 0.368743 -0.432607
v 0.395185 0.387271 -0.429505
v 0.357039 0.391826 -0.447471
v 0.333217 0.393943 -0.470176
v 0.330194 0.391888 -0.465088
v 0.375099 0.391746 -0.420922
v 0.373074 0.387961 -0.419022
v 0.355858 0.387998 -0.444930
v 0.330038 0.388078 -0.462277
v 0.356816 0.338451 -0.447121
v 0.330391 0.338401 -0.463638
v 0.373681 0.338337 -0.420776
vn -0.2455 -0.9359 0.2527
vn -0.1318 -0.9359 0.3267
vn -0.2803 -0.6585 0.6984
vn -0.5263 -0.6548 0.5424
vn -0.0000 -0.9372 0.3488
vn -0.0000 -0.6613 0.7501
vn -0.6987 -0.0238 0.7150
vn -0.3738 -0.0220 0.9273
vn -0.2869 0.6397 0.7131
vn -0.5409 0.6323 0.5547
vn -0.0000 -0.0213 0.9998
vn -0.0000 0.6463 0.7631
vn -0.7427 -0.6696 -0.0000
vn -0.3327 -0.9430 -0.0000
vn -0.3141 -0.9403 0.1312
vn -0.6883 -0.6652 0.2894
vn -0.9997 -0.0229 -0.0000
vn -0.9225 -0.0241 0.3852
vn -0.7042 0.6461 0.2943
vn -0.7549 0.6558 -0.0000
vn -0.0000 0.9638 0.2665
vn -0.0000 0.8374 -0.5465
vn 0.1920 0.8468 -0.4960
vn -0.0975 0.9635 0.2494
vn -0.0000 0.5898 -0.8076
vn 0.3300 0.5786 -0.7459
vn 0.5930 0.5684 -0.5703
vn 0.3546 0.8575 -0.3727
vn -0.1881 0.9627 0.1943
vn 0.4837 0.8499 -0.2092
vn -0.2298 0.9686 0.0953
vn 0.7738 0.5594 -0.2973
vn 0.8332 0.5530 -0.0000
vn 0.5428 0.8399 -0.0000
vn -0.2361 0.9717 -0.0000
vn 0.2457 -0.9359 0.2526
vn 0.5263 -0.6548 0.5424
vn 0.2803 -0.6585 0.6984
vn 0.1318 -0.9359 0.3267
vn 0.6987 -0.0238 0.7150
vn 0.5409 0.6323 0.5547
vn 0.2865 0.6397 0.7132
vn 0.3738 -0.0220 0.9273
vn 0.7427 -0.6696 -0.0000
vn 0.6883 -0.6652 0.2894
vn 0.3141 -0.9403 0.1312
vn 0.3327 -0.9430 -0.0000
vn 0.9997 -0.0229 -0.0000
vn 0.7549 0.6558 -0.0000
vn 0.7042 0.6461 0.2943
vn 0.9225 -0.0241 0.3852
vn 0.0975 0.9635 0.2494
vn -0.1920 0.8468 -0.4960
vn -0.3300 0.5786 -0.7459
vn -0.3546 0.8575 -0.3727
vn -0.5930 0.5684 -0.5703
vn 0.1881 0.9627 0.1943
vn 0.2298 0.9686 0.0953
vn -0.4837 0.8499 -0.2092
vn -0.7736 0.5594 -0.2975
vn -0.5428 0.8399 -0.0000
vn -0.8332 0.5530 -0.0000
vn 0.2361 0.9717 -0.0000
vn -0.2455 -0.9359 -0.2527
vn -0.5263 -0.6548 -0.5424
vn -0.2803 -0.6585 -0.6984
vn -0.1315 -0.9359 -0.3269
vn -0.0000 -0.6613 -0.7501
vn -0.0000 -0.9372 -0.3488
vn -0.6987 -0.0238 -0.7150
vn -0.5409 0.6323 -0.5547
vn -0.2865 0.6397 -0.7132
vn -0.3738 -0.0220 -0.9273
vn -0.0000 0.6462 -0.7631
vn -0.0000 -0.0213 -0.9998
vn -0.6883 -0.6652 -0.2894
vn -0.3141 -0.9403 -0.1312
vn -0.7042 0.6461 -0.2943
vn -0.9225 -0.0241 -0.3852
vn -0.0000 0.9638 -0.2665
vn -0.0975 0.9635 -0.2494
vn 0.1920 0.8468 0.4960
vn -0.0000 0.8374 0.5465
vn 0.3298 0.5786 0.7459
vn -0.0000 0.5898 0.8075
vn 0.3546 0.8575 0.3727
vn 0.5933 0.5684 0.5699
vn -0.1881 0.9627 -0.1943
vn -0.2298 0.9686 -0.0953
vn 0.4837 0.8499 0.2092
vn 0.7736 0.5595 0.2976
vn 0.2457 -0.9359 -0.2526
vn 0.1318 -0.9359 -0.3267
vn 0.2803 -0.6585 -0.6984
vn 0.5263 -0.6548 -0.5424
vn 0.6987 -0.0238 -0.7150
vn 0.3738 -0.0220 -0.9273
vn 0.2869 0.6397 -0.7131
vn 0.5409 0.6323 -0.5547
vn 0.3141 -0.9403 -0.1312
vn 0.6883 -0.6652 -0.2894
vn 0.9225 -0.0241 -0.3852
vn 0.7042 0.6461 -0.2943
vn -0.1920 0.8468 0.4960
vn 0.0975 0.9635 -0.2494
vn -0.3298 0.5786 0.7459
vn -0.5933 0.5684 0.5700
vn -0.3546 0.8575 0.3727
vn 0.1881 0.9627 -0.1943
vn -0.4837 0.8499 0.2092
vn 0.2298 0.9686 -0.0953
vn -0.7737 0.5594 0.2976
vt 0.375000 0.000000
vt 0.437500 0.000000
vt 0.437500 0.062500
vt 0.375000 0.062500
vt 0.500000 0.000000
vt 0.500000 0.062500
vt 0.375000 0.125000
vt 0.437500 0.125000
vt 0.437500 0.187500
vt 0.375000 0.187500
vt 0.500000 0.125000
vt 0.500000 0.187500
vt 0.250000 0.062500
vt 0.250000 0.000000
vt 0.312500 0.000000
vt 0.312500 0.062500
vt 0.250000 0.125000
vt 0.312500 0.125000
vt 0.312500 0.187500
vt 0.250000 0.187500
vt 0.500030 0.245786
vt 0.500122 0.264393
vt 0.444009 0.264249
vt 0.439127 0.245750
vt 0.500244 0.284092
vt 0.442706 0.280813
vt 0.398000 0.274231
vt 0.388019 0.263839
vt 0.378255 0.245647
vt 0.332028 0.263429
vt 0.317382 0.245545
vt 0.365230 0.279788
vt 0.338862 0.294759
vt 0.288408 0.269368
vt 0.259602 0.247029
s 1
f 31/1/1 32/2/2 15/3/3 10/4/4
f 32/2/2 33/5/5 12/6/6 15/3/3
f 4/7/7 16/8/8 17/9/9 7/10/10
f 16/8/8 5/11/11 9/12/12 17/9/9
f 11/13/13 34/14/14 35/15/15 18/16/16
f 35/15/15 31/1/1 10/4/4 18/16/16
f 6/17/17 19/18/18 20/19/19 8/20/20
f 19/18/18 4/7/7 7/10/10 20/19/19
f 3/21/21 21/22/22 24/23/23 23/24/24
f 21/22/22 30/25/25 29/26/26 24/23/23
f 24/23/23 29/26/26 28/27/27 22/28/28
f 23/24/24 24/23/23 22/28/28 1/29/29
f 1/29/29 22/28/28 25/30/30 14/31/31
f 22/28/28 28/27/27 27/32/32 25/30/30
f 25/30/30 27/32/32 26/33/33 13/34/34
f 14/31/31 25/30/30 13/34/34 2/35/35
f 8/20/20 20/19/19 14/31/31 2/35/35
f 20/19/19 7/10/10 1/29/29 14/31/31
f 1/29/29 7/10/10 17/9/9 23/24/24
f 17/9/9 9/12/12 3/21/21 23/24/24
f 11/13/13 18/16/16 19/18/18 6/17/17
f 18/16/16 10/4/4 4/7/7 19/18/18
f 4/7/7 10/4/4 15/3/3 16/8/8
f 15/3/3 12/6/6 5/11/11 16/8/8
f 60/1/36 42/4/37 46/3/38 61/2/39
f 61/2/39 46/3/38 12/6/6 33/5/5
f 38/7/40 40/10/41 48/9/42 47/8/43
f 47/8/43 48/9/42 9/12/12 5/11/11
f 43/13/44 49/16/45 63/15/46 62/14/47
f 63/15/46 49/16/45 42/4/37 60/1/36
f 39/17/48 41/20/49 51/19/50 50/18/51
f 50/18/51 51/19/50 40/10/41 38/7/40
f 3/21/21 53/24/52 54/23/53 21/22/22
f 21/22/22 54/23/53 59/26/54 30/25/25
f 54/23/53 52/28/55 58/27/56 59/26/54
f 53/24/52 36/29/57 52/28/55 54/23/53
f 36/29/57 45/31/58 55/30/59 52/28/55
f 52/28/55 55/30/59 57/32/60 58/27/56
f 55/30/59 44/34/61 56/33/62 57/32/60
f 45/31/58 37/35/63 44/34/61 55/30/59
f 41/20/49 37/35/63 45/31/58 51/19/50
f 51/19/50 45/31/58 36/29/57 40/10/41
f 36/29/57 53/24/52 48/9/42 40/10/41
f 48/9/42 53/24/52 3/21/21 9/12/12
f 43/13/44 39/17/48 50/18/51 49/16/45
f 49/16/45 50/18/51 38/7/40 42/4/37
f 38/7/40 47/8/43 46/3/38 42/4/37
f 46/3/38 47/8/43 5/11/11 12/6/6
f 88/1/64 70/4/65 73/3/66 89/2/67
f 89/2/67 73/3/66 71/6/68 90/5/69
f 66/7/70 68/10/71 75/9/72 74/8/73
f 74/8/73 75/9/72 69/12/74 67/11/75
f 11/13/13 76/16/76 91/15/77 34/14/14
f 91/15/77 76/16/76 70/4/65 88/1/64
f 6/17/17 8/20/20 78/19/78 77/18/79
f 77/18/79 78/19/78 68/10/71 66/7/70
f 65/21/80 81/24/81 82/23/82 79/22/83
f 79/22/83 82/23/82 86/26/84 87/25/85
f 82/23/82 80/28/86 85/27/87 86/26/84
f 81/24/81 64/29/88 80/28/86 82/23/82
f 64/29/88 72/31/89 83/30/90 80/28/86
f 80/28/86 83/30/90 84/32/91 85/27/87
f 83/30/90 13/34/34 26/33/33 84/32/91
f 72/31/89 2/35/35 13/34/34 83/30/90
f 8/20/20 2/35/35 72/31/89 78/19/78
f 78/19/78 72/31/89 64/29/88 68/10/71
f 64/29/88 81/24/81 75/9/72 68/10/71
f 75/9/72 81/24/81 65/21/80 69/12/74
f 11/13/13 6/17/17 77/18/79 76/16/76
f 76/16/76 77/18/79 66/7/70 70/4/65
f 66/7/70 74/8/73 73/3/66 70/4/65
f 73/3/66 74/8/73 67/11/75 71/6/68
f 110/1/92 111/2/93 97/3/94 95/4/95
f 111/2/93 90/5/69 71/6/68 97/3/94
f 93/7/96 98/8/97 99/9/98 94/10/99
f 98/8/97 67/11/75 69/12/74 99/9/98
f 43/13/44 62/14/47 112/15/100 100/16/101
f 112/15/100 110/1/92 95/4/95 100/16/101
f 39/17/48 101/18/102 102/19/103 41/20/49
f 101/18/102 93/7/96 94/10/99 102/19/103
f 65/21/80 79/22/83 105/23/104 104/24/105
f 79/22/83 87/25/85 109/26/106 105/23/104
f 105/23/104 109/26/106 108/27/107 103/28/108
f 104/24/105 105/23/104 103/28/108 92/29/109
f 92/29/109 103/28/108 106/30/110 96/31/111
f 103/28/108 108/27/107 107/32/112 106/30/110
f 106/30/110 107/32/112 56/33/62 44/34/61
f 96/31/111 106/30/110 44/34/61 37/35/63
f 41/20/49 102/19/103 96/31/111 37/35/63
f 102/19/103 94/10/99 92/29/109 96/31/111
f 92/29/109 94/10/99 99/9/98 104/24/105
f 99/9/98 69/12/74 65/21/80 104/24/105
f 43/13/44 100/16/101 101/18/102 39/17/48
f 100/16/101 95/4/95 93/7/96 101/18/102
f 93/7/96 95/4/95 97/3/94 98/8/97
f 97/3/94 71/6/68 67/11/75 98/8/97
