o right_gripsense
v 0.826159 -0.252582 0.042826
v 0.859158 -0.346307 0.292947
v 0.850490 -0.351360 0.309678
v 0.835840 -0.354240 0.322235
v 0.817437 -0.354510 0.328704
v 0.798083 -0.352128 0.328102
v 0.780725 -0.347457 0.320520
v 0.768005 -0.341208 0.307113
v 0.734303 -0.247444 0.057102
v 0.700780 -0.153690 -0.192937
v 0.709448 -0.148637 -0.209668
v 0.724099 -0.145756 -0.222225
v 0.742502 -0.145486 -0.228695
v 0.761855 -0.147868 -0.228093
v 0.779213 -0.152539 -0.220511
v 0.779969 -0.249998 0.050005
v 0.791933 -0.158788 -0.207103
vn 0.1047 0.9357 0.3368
vt 0.500000 0.500000
vt 0.039744 0.690644
vt 0.001822 0.500000
vt 0.960256 0.309356
vt 0.852265 0.147735
vt 0.147735 0.852265
vt 0.690644 0.039744
vt 0.309356 0.960256
vt 0.500000 0.998178
vt 0.500000 0.001822
vt 0.039744 0.309356
vt 0.960256 0.690644
vt 0.998178 0.500000
vt 0.852265 0.852265
vt 0.147735 0.147735
vt 0.690644 0.960256
vt 0.309356 0.039744
s 1
f 16/1/1 14/2/1 13/3/1
f 6/4/1 16/1/1 7/5/1
f 15/6/1 14/2/1 16/1/1
f 7/5/1 16/1/1 8/7/1
f 17/8/1 16/1/1 1/9/1
f 8/7/1 16/1/1 9/10/1
f 12/11/1 16/1/1 13/3/1
f 4/12/1 16/1/1 5/13/1
f 3/14/1 16/1/1 4/12/1
f 11/15/1 16/1/1 12/11/1
f 16/1/1 2/16/1 1/9/1
f 10/17/1 16/1/1 11/15/1
f 16/1/1 17/8/1 15/6/1
f 2/16/1 16/1/1 3/14/1
f 9/10/1 16/1/1 10/17/1
f 5/13/1 16/1/1 6/4/1
