# This file uses centimeters as units for non-parametric coordinates.

mtllib right_ring.mtl
g default
v 0.237257 0.394090 -0.323596
v 0.212181 0.393729 -0.387968
v 0.299714 0.393875 -0.299593
v 0.221537 0.368714 -0.307432
v 0.299714 0.368740 -0.275740
v 0.187499 0.368841 -0.387968
v 0.226890 0.386773 -0.312932
v 0.195848 0.387529 -0.387968
v 0.299714 0.387093 -0.283702
v 0.227819 0.346706 -0.313384
v 0.196681 0.346242 -0.387968
v 0.299714 0.346521 -0.284601
v 0.217803 0.391658 -0.387968
v 0.218850 0.393872 -0.352334
v 0.261258 0.346543 -0.291987
v 0.257851 0.368735 -0.283832
v 0.260691 0.387027 -0.291207
v 0.205260 0.346300 -0.346587
v 0.196733 0.368743 -0.343329
v 0.204243 0.387271 -0.346431
v 0.299714 0.391922 -0.304846
v 0.242389 0.391826 -0.328465
v 0.266210 0.393943 -0.305759
v 0.269234 0.391888 -0.310848
v 0.224328 0.391746 -0.355013
v 0.220363 0.387972 -0.387968
v 0.226354 0.387961 -0.356914
v 0.243570 0.387998 -0.331006
v 0.269390 0.388078 -0.313659
v 0.299714 0.388190 -0.307512
v 0.242612 0.338451 -0.328815
v 0.269036 0.338401 -0.312298
v 0.299714 0.338381 -0.306541
v 0.219633 0.338265 -0.387968
v 0.225747 0.338337 -0.355160
v 0.362171 0.394090 -0.323596
v 0.387247 0.393729 -0.387968
v 0.377891 0.368714 -0.307432
v 0.411929 0.368841 -0.387968
v 0.372537 0.386773 -0.312932
v 0.403579 0.387529 -0.387968
v 0.371609 0.346706 -0.313384
v 0.402747 0.346242 -0.387968
v 0.381625 0.391658 -0.387968
v 0.380578 0.393872 -0.352334
v 0.338170 0.346543 -0.291987
v 0.341577 0.368735 -0.283832
v 0.338737 0.387027 -0.291207
v 0.394167 0.346300 -0.346587
v 0.402695 0.368743 -0.343329
v 0.395185 0.387271 -0.346431
v 0.357039 0.391826 -0.328465
v 0.333217 0.393943 -0.305759
v 0.330194 0.391888 -0.310848
v 0.375099 0.391746 -0.355013
v 0.379065 0.387972 -0.387968
v 0.373074 0.387961 -0.356914
v 0.355858 0.387998 -0.331006
v 0.330038 0.388078 -0.313659
v 0.356816 0.338451 -0.328815
v 0.330391 0.338401 -0.312298
v 0.379795 0.338265 -0.387968
v 0.373681 0.338337 -0.355160
v 0.237257 0.394090 -0.452340
v 0.299714 0.393875 -0.476343
v 0.221537 0.368714 -0.468504
v 0.299714 0.368740 -0.500196
v 0.226890 0.386773 -0.463004
v 0.299714 0.387093 -0.492234
v 0.227819 0.346706 -0.462552
v 0.299714 0.346521 -0.491335
v 0.218850 0.393872 -0.423602
v 0.261258 0.346543 -0.483949
v 0.257851 0.368735 -0.492104
v 0.260691 0.387027 -0.484728
v 0.205260 0.346300 -0.429349
v 0.196733 0.368743 -0.432607
v 0.204243 0.387271 -0.429505
v 0.299714 0.391922 -0.471090
v 0.242389 0.391826 -0.447471
v 0.266210 0.393943 -0.470176
v 0.269234 0.391888 -0.465088
v 0.224328 0.391746 -0.420922
v 0.226354 0.387961 -0.419022
v 0.243570 0.387998 -0.444930
v 0.269390 0.388078 -0.462277
v 0.299714 0.388190 -0.468423
v 0.242612 0.338451 -0.447121
v 0.269036 0.338401 -0.463638
v 0.299714 0.338381 -0.469395
v 0.225747 0.338337 -0.420776
v 0.362171 0.394090 -0.452340
v 0.377891 0.368714 -0.468504
v 0.372537 0.386773 -0.463004
v 0.371609 0.346706 -0.462552
v 0.380578 0.393872 -0.423602
v 0.338170 0.346543 -0.483949
v 0.341577 0.368735 -0.492104
v 0.338737 0.387027 -0.484728
v 0.394167 0.346300 -0.429349
v 0.402695 0.368743 -0.432607
v 0.395185 0.387271 -0.429505
v 0.357039 0.391826 -0.447471
v 0.333217 0.393943 -0.470176
v 0.330194 0.391888 -0.465088
v 0.375099 0.391746 -0.420922
v 0.373074 0.387961 -0.419022
v 0.355858 0.387998 -0.444930
v 0.330038 0.388078 -0.462277
v 0.356816 0.338451 -0.447121
v 0.330391 0.338401 -0.463638
v 0.373681 0.338337 -0.420776
vt 0.375000 0.000000
vt 0.437500 0.000000
vt 0.437500 0.062500
vt 0.375000 0.062500
vt 0.500000 0.000000
vt 0.500000 0.062500
vt 0.500000 0.125000
vt 0.500000 0.187500
vt 0.375000 0.125000
vt 0.437500 0.125000
vt 0.437500 0.187500
vt 0.375000 0.187500
vt 0.250000 0.000000
vt 0.250000 0.062500
vt 0.312500 0.000000
vt 0.312500 0.062500
vt 0.250000 0.125000
vt 0.312500 0.125000
vt 0.312500 0.187500
vt 0.250000 0.187500
vt 0.500030 0.245786
vt 0.500122 0.264393
vt 0.444009 0.264249
vt 0.439127 0.245750
vt 0.500244 0.284092
vt 0.442706 0.280813
vt 0.398000 0.274231
vt 0.388019 0.263839
vt 0.378255 0.245647
vt 0.259602 0.247029
vt 0.288408 0.269368
vt 0.338862 0.294759
vt 0.332028 0.263429
vt 0.317382 0.245545
vt 0.365230 0.279788
vt 0.375000 0.000000
vt 0.437500 0.000000
vt 0.437500 0.062500
vt 0.375000 0.062500
vt 0.500000 0.000000
vt 0.500000 0.062500
vt 0.375000 0.125000
vt 0.437500 0.125000
vt 0.437500 0.187500
vt 0.375000 0.187500
vt 0.500000 0.125000
vt 0.500000 0.187500
vt 0.250000 0.062500
vt 0.250000 0.000000
vt 0.312500 0.000000
vt 0.312500 0.062500
vt 0.250000 0.125000
vt 0.312500 0.125000
vt 0.312500 0.187500
vt 0.250000 0.187500
vt 0.500030 0.245786
vt 0.500122 0.264393
vt 0.444009 0.264249
vt 0.439127 0.245750
vt 0.500244 0.284092
vt 0.442706 0.280813
vt 0.398000 0.274231
vt 0.388019 0.263839
vt 0.378255 0.245647
vt 0.332028 0.263429
vt 0.317382 0.245545
vt 0.365230 0.279788
vt 0.338862 0.294759
vt 0.288408 0.269368
vt 0.259602 0.247029
vt 0.375000 0.000000
vt 0.437500 0.000000
vt 0.437500 0.062500
vt 0.375000 0.062500
vt 0.500000 0.000000
vt 0.500000 0.062500
vt 0.375000 0.125000
vt 0.437500 0.125000
vt 0.437500 0.187500
vt 0.375000 0.187500
vt 0.500000 0.125000
vt 0.500000 0.187500
vt 0.250000 0.062500
vt 0.250000 0.000000
vt 0.312500 0.000000
vt 0.312500 0.062500
vt 0.250000 0.125000
vt 0.312500 0.125000
vt 0.312500 0.187500
vt 0.250000 0.187500
vt 0.500030 0.245786
vt 0.500122 0.264393
vt 0.444009 0.264249
vt 0.439127 0.245750
vt 0.500244 0.284092
vt 0.442706 0.280813
vt 0.398000 0.274231
vt 0.388019 0.263839
vt 0.378255 0.245647
vt 0.332028 0.263429
vt 0.317382 0.245545
vt 0.365230 0.279788
vt 0.338862 0.294759
vt 0.288408 0.269368
vt 0.259602 0.247029
vt 0.375000 0.000000
vt 0.375000 0.062500
vt 0.437500 0.062500
vt 0.437500 0.000000
vt 0.500000 0.062500
vt 0.500000 0.000000
vt 0.375000 0.125000
vt 0.375000 0.187500
vt 0.437500 0.187500
vt 0.437500 0.125000
vt 0.500000 0.187500
vt 0.500000 0.125000
vt 0.250000 0.062500
vt 0.312500 0.062500
vt 0.312500 0.000000
vt 0.250000 0.000000
vt 0.250000 0.125000
vt 0.250000 0.187500
vt 0.312500 0.187500
vt 0.312500 0.125000
vt 0.500030 0.245786
vt 0.439127 0.245750
vt 0.444009 0.264249
vt 0.500122 0.264393
vt 0.442706 0.280813
vt 0.500244 0.284092
vt 0.388019 0.263839
vt 0.398000 0.274231
vt 0.378255 0.245647
vt 0.317382 0.245545
vt 0.332028 0.263429
vt 0.365230 0.279788
vt 0.288408 0.269368
vt 0.338862 0.294759
vt 0.259602 0.247029
vn -0.245528 -0.935867 0.252723
vn -0.131613 -0.935881 0.326810
vn -0.280334 -0.658526 0.698395
vn -0.526310 -0.654829 0.542399
vn -0.000000 -0.937180 0.348846
vn -0.000000 -0.661305 0.750117
vn -0.698675 -0.023842 0.715042
vn -0.373792 -0.022032 0.927251
vn -0.286863 0.639668 0.713116
vn -0.540879 0.632293 0.554668
vn -0.000000 -0.021285 0.999774
vn -0.000000 0.646230 0.763143
vn -0.742695 -0.669630 0.000000
vn -0.332741 -0.943018 0.000000
vn -0.314072 -0.940287 0.131219
vn -0.688276 -0.665207 0.289441
vn -0.999737 -0.022940 -0.000000
vn -0.922508 -0.024122 0.385224
vn -0.704268 0.646051 0.294322
vn -0.754903 0.655837 0.000000
vn 0.000000 0.963829 0.266522
vn 0.000000 0.837445 -0.546521
vn 0.192041 0.846795 -0.496042
vn -0.097511 0.963469 0.249437
vn 0.000000 0.589749 -0.807586
vn 0.329954 0.578581 -0.745905
vn 0.592997 0.568433 -0.570297
vn 0.354610 0.857534 -0.372675
vn -0.188154 0.962716 0.194359
vn 0.483661 0.849887 -0.209200
vn -0.229847 0.968550 0.095298
vn 0.773668 0.559444 -0.297425
vn 0.833176 0.553009 0.000000
vn 0.542752 0.839893 0.000000
vn -0.236112 0.971726 0.000000
vn 0.245527 -0.935867 0.252723
vn 0.526310 -0.654829 0.542399
vn 0.280334 -0.658526 0.698395
vn 0.131613 -0.935881 0.326810
vn 0.698675 -0.023842 0.715042
vn 0.540879 0.632293 0.554668
vn 0.286863 0.639668 0.713116
vn 0.373792 -0.022032 0.927251
vn 0.742695 -0.669630 0.000000
vn 0.688276 -0.665207 0.289441
vn 0.314072 -0.940287 0.131219
vn 0.332741 -0.943018 -0.000000
vn 0.999737 -0.022940 0.000000
vn 0.754903 0.655837 0.000000
vn 0.704268 0.646051 0.294321
vn 0.922508 -0.024122 0.385224
vn 0.097511 0.963469 0.249437
vn -0.192041 0.846796 -0.496042
vn -0.329954 0.578580 -0.745906
vn -0.354610 0.857534 -0.372676
vn -0.592997 0.568433 -0.570297
vn 0.188154 0.962716 0.194359
vn 0.229847 0.968550 0.095298
vn -0.483661 0.849887 -0.209200
vn -0.773668 0.559444 -0.297425
vn -0.542752 0.839893 -0.000000
vn -0.833176 0.553009 -0.000000
vn 0.236112 0.971726 -0.000000
vn -0.245527 -0.935867 -0.252723
vn -0.526310 -0.654829 -0.542400
vn -0.280334 -0.658526 -0.698395
vn -0.131613 -0.935881 -0.326810
vn 0.000000 -0.661305 -0.750117
vn 0.000000 -0.937180 -0.348846
vn -0.698675 -0.023841 -0.715042
vn -0.540879 0.632293 -0.554668
vn -0.286863 0.639668 -0.713116
vn -0.373792 -0.022032 -0.927251
vn 0.000000 0.646230 -0.763143
vn 0.000000 -0.021285 -0.999774
vn -0.688276 -0.665207 -0.289441
vn -0.314072 -0.940287 -0.131219
vn -0.704268 0.646051 -0.294321
vn -0.922508 -0.024122 -0.385224
vn -0.000000 0.963829 -0.266522
vn -0.097511 0.963469 -0.249437
vn 0.192041 0.846795 0.496042
vn 0.000000 0.837445 0.546521
vn 0.329953 0.578583 0.745904
vn 0.000000 0.589749 0.807586
vn 0.354609 0.857534 0.372676
vn 0.592996 0.568436 0.570295
vn -0.188154 0.962716 -0.194359
vn -0.229847 0.968550 -0.095298
vn 0.483661 0.849887 0.209200
vn 0.773667 0.559445 0.297424
vn 0.245527 -0.935867 -0.252723
vn 0.131613 -0.935881 -0.326810
vn 0.280334 -0.658526 -0.698395
vn 0.526310 -0.654829 -0.542400
vn 0.698675 -0.023841 -0.715042
vn 0.373792 -0.022032 -0.927251
vn 0.286863 0.639668 -0.713116
vn 0.540879 0.632293 -0.554668
vn 0.314072 -0.940287 -0.131219
vn 0.688276 -0.665207 -0.289441
vn 0.922508 -0.024122 -0.385224
vn 0.704268 0.646051 -0.294322
vn -0.192041 0.846795 0.496042
vn 0.097511 0.963469 -0.249437
vn -0.329953 0.578583 0.745904
vn -0.592996 0.568436 0.570295
vn -0.354609 0.857534 0.372675
vn 0.188154 0.962716 -0.194359
vn -0.483661 0.849887 0.209200
vn 0.229847 0.968550 -0.095298
vn -0.773667 0.559445 0.297424
s 1
g right_ring r_stick
usemtl initialShadingGroup
f 31/1/1 32/2/2 15/3/3 10/4/4
f 32/2/2 33/5/5 12/6/6 15/3/3
f 4/9/7 16/10/8 17/11/9 7/12/10
f 16/10/8 5/7/11 9/8/12 17/11/9
f 11/14/13 34/13/14 35/15/15 18/16/16
f 35/15/15 31/1/1 10/4/4 18/16/16
f 6/17/17 19/18/18 20/19/19 8/20/20
f 19/18/18 4/9/7 7/12/10 20/19/19
f 3/21/21 21/22/22 24/23/23 23/24/24
f 21/22/22 30/25/25 29/26/26 24/23/23
f 24/23/23 29/26/26 28/27/27 22/28/28
f 23/24/24 24/23/23 22/28/28 1/29/29
f 1/29/29 22/28/28 25/33/30 14/34/31
f 22/28/28 28/27/27 27/35/32 25/33/30
f 25/33/30 27/35/32 26/32/33 13/31/34
f 14/34/31 25/33/30 13/31/34 2/30/35
f 8/20/20 20/19/19 14/34/31 2/30/35
f 20/19/19 7/12/10 1/29/29 14/34/31
f 1/29/29 7/12/10 17/11/9 23/24/24
f 17/11/9 9/8/12 3/21/21 23/24/24
f 11/14/13 18/16/16 19/18/18 6/17/17
f 18/16/16 10/4/4 4/9/7 19/18/18
f 4/9/7 10/4/4 15/3/3 16/10/8
f 15/3/3 12/6/6 5/7/11 16/10/8
f 60/36/36 42/39/37 46/38/38 61/37/39
f 61/37/39 46/38/38 12/41/6 33/40/5
f 38/42/40 40/45/41 48/44/42 47/43/43
f 47/43/43 48/44/42 9/47/12 5/46/11
f 43/48/44 49/51/45 63/50/46 62/49/47
f 63/50/46 49/51/45 42/39/37 60/36/36
f 39/52/48 41/55/49 51/54/50 50/53/51
f 50/53/51 51/54/50 40/45/41 38/42/40
f 3/56/21 53/59/52 54/58/53 21/57/22
f 21/57/22 54/58/53 59/61/54 30/60/25
f 54/58/53 52/63/55 58/62/56 59/61/54
f 53/59/52 36/64/57 52/63/55 54/58/53
f 36/64/57 45/66/58 55/65/59 52/63/55
f 52/63/55 55/65/59 57/67/60 58/62/56
f 55/65/59 44/69/61 56/68/62 57/67/60
f 45/66/58 37/70/63 44/69/61 55/65/59
f 41/55/49 37/70/63 45/66/58 51/54/50
f 51/54/50 45/66/58 36/64/57 40/45/41
f 36/64/57 53/59/52 48/44/42 40/45/41
f 48/44/42 53/59/52 3/56/21 9/47/12
f 43/48/44 39/52/48 50/53/51 49/51/45
f 49/51/45 50/53/51 38/42/40 42/39/37
f 38/42/40 47/43/43 46/38/38 42/39/37
f 46/38/38 47/43/43 5/46/11 12/41/6
f 88/71/64 70/74/65 73/73/66 89/72/67
f 89/72/67 73/73/66 71/76/68 90/75/69
f 66/77/70 68/80/71 75/79/72 74/78/73
f 74/78/73 75/79/72 69/82/74 67/81/75
f 11/83/13 76/86/76 91/85/77 34/84/14
f 91/85/77 76/86/76 70/74/65 88/71/64
f 6/87/17 8/90/20 78/89/78 77/88/79
f 77/88/79 78/89/78 68/80/71 66/77/70
f 65/91/80 81/94/81 82/93/82 79/92/83
f 79/92/83 82/93/82 86/96/84 87/95/85
f 82/93/82 80/98/86 85/97/87 86/96/84
f 81/94/81 64/99/88 80/98/86 82/93/82
f 64/99/88 72/101/89 83/100/90 80/98/86
f 80/98/86 83/100/90 84/102/91 85/97/87
f 83/100/90 13/104/34 26/103/33 84/102/91
f 72/101/89 2/105/35 13/104/34 83/100/90
f 8/90/20 2/105/35 72/101/89 78/89/78
f 78/89/78 72/101/89 64/99/88 68/80/71
f 64/99/88 81/94/81 75/79/72 68/80/71
f 75/79/72 81/94/81 65/91/80 69/82/74
f 11/83/13 6/87/17 77/88/79 76/86/76
f 76/86/76 77/88/79 66/77/70 70/74/65
f 66/77/70 74/78/73 73/73/66 70/74/65
f 73/73/66 74/78/73 67/81/75 71/76/68
f 110/106/92 111/109/93 97/108/94 95/107/95
f 111/109/93 90/111/69 71/110/68 97/108/94
f 93/112/96 98/115/97 99/114/98 94/113/99
f 98/115/97 67/117/75 69/116/74 99/114/98
f 43/118/44 62/121/47 112/120/100 100/119/101
f 112/120/100 110/106/92 95/107/95 100/119/101
f 39/122/48 101/125/102 102/124/103 41/123/49
f 101/125/102 93/112/96 94/113/99 102/124/103
f 65/126/80 79/129/83 105/128/104 104/127/105
f 79/129/83 87/131/85 109/130/106 105/128/104
f 105/128/104 109/130/106 108/133/107 103/132/108
f 104/127/105 105/128/104 103/132/108 92/134/109
f 92/134/109 103/132/108 106/136/110 96/135/111
f 103/132/108 108/133/107 107/137/112 106/136/110
f 106/136/110 107/137/112 56/139/62 44/138/61
f 96/135/111 106/136/110 44/138/61 37/140/63
f 41/123/49 102/124/103 96/135/111 37/140/63
f 102/124/103 94/113/99 92/134/109 96/135/111
f 92/134/109 94/113/99 99/114/98 104/127/105
f 99/114/98 69/116/74 65/126/80 104/127/105
f 43/118/44 100/119/101 101/125/102 39/122/48
f 100/119/101 95/107/95 93/112/96 101/125/102
f 93/112/96 95/107/95 97/108/94 98/115/97
f 97/108/94 71/110/68 67/117/75 98/115/97
