# This file uses centimeters as units for non-parametric coordinates.

mtllib right_cap.mtl
g default
v 0.299714 0.381548 -0.387976
v 0.219984 0.388593 -0.387977
v 0.299714 0.388190 -0.307512
v 0.243477 0.388437 -0.330719
v 0.261417 0.383016 -0.387976
v 0.269385 0.388316 -0.313503
v 0.299714 0.383010 -0.349352
v 0.226131 0.388534 -0.356539
v 0.263992 0.384113 -0.351772
v 0.379443 0.388593 -0.387977
v 0.355951 0.388437 -0.330719
v 0.338010 0.383016 -0.387976
v 0.330043 0.388316 -0.313503
v 0.373297 0.388534 -0.356539
v 0.335436 0.384113 -0.351772
v 0.299714 0.388190 -0.468441
v 0.243477 0.388437 -0.445234
v 0.269385 0.388316 -0.462450
v 0.299714 0.383010 -0.426601
v 0.226131 0.388534 -0.419414
v 0.263992 0.384113 -0.424181
v 0.355951 0.388437 -0.445234
v 0.330043 0.388316 -0.462450
v 0.373297 0.388534 -0.419414
v 0.335436 0.384113 -0.424181
vt 0.500426 0.353713
vt 0.588297 0.331343
vt 0.659790 0.297386
vt 0.500244 0.284092
vt 0.500365 0.314401
vt 0.575683 0.301278
vt 0.558268 0.280326
vt 0.636963 0.278692
vt 0.603461 0.273500
vt 0.500244 0.284092
vt 0.500365 0.314401
vt 0.575683 0.301278
vt 0.558268 0.280326
vt 0.636963 0.278692
vt 0.603461 0.273500
vt 0.588297 0.331343
vt 0.659790 0.297386
vt 0.500426 0.353713
vt 0.500244 0.284092
vt 0.500365 0.314401
vt 0.575683 0.301278
vt 0.558268 0.280326
vt 0.636963 0.278692
vt 0.603461 0.273500
vt 0.588297 0.331343
vt 0.659790 0.297386
vt 0.500426 0.353713
vt 0.500244 0.284092
vt 0.558268 0.280326
vt 0.575683 0.301278
vt 0.500365 0.314401
vt 0.603461 0.273500
vt 0.636963 0.278692
vt 0.659790 0.297386
vt 0.588297 0.331343
vt 0.500426 0.353713
vn 0.000000 0.992945 -0.118574
vn -0.000000 0.996969 -0.077800
vn 0.072297 0.995050 -0.068189
vn 0.050376 0.992158 -0.114390
vn 0.121863 0.991393 -0.047850
vn 0.105193 0.989339 -0.100709
vn 0.082773 0.996568 -0.000000
vn 0.126978 0.991906 0.000000
vn 0.000000 1.000000 0.000000
vn -0.050376 0.992158 -0.114390
vn -0.072297 0.995050 -0.068189
vn -0.105193 0.989339 -0.100708
vn -0.121863 0.991393 -0.047850
vn -0.126978 0.991906 0.000000
vn -0.082773 0.996568 -0.000000
vn 0.000000 0.992945 0.118574
vn 0.050376 0.992158 0.114390
vn 0.072296 0.995050 0.068189
vn -0.000000 0.996969 0.077800
vn 0.105193 0.989339 0.100708
vn 0.121863 0.991393 0.047850
vn -0.072296 0.995050 0.068189
vn -0.050376 0.992158 0.114390
vn -0.121863 0.991393 0.047850
vn -0.105193 0.989339 0.100709
s 1
g right_cap r_stick
f 3/4/1 7/5/2 9/6/3 6/7/4
f 6/7/4 9/6/3 8/8/5 4/9/6
f 9/6/3 5/2/7 2/3/8 8/8/5
f 7/5/2 1/1/9 5/2/7 9/6/3
f 3/10/1 13/13/10 15/12/11 7/11/2
f 13/13/10 11/15/12 14/14/13 15/12/11
f 15/12/11 14/14/13 10/17/14 12/16/15
f 7/11/2 15/12/11 12/16/15 1/18/9
f 16/19/16 18/22/17 21/21/18 19/20/19
f 18/22/17 17/24/20 20/23/21 21/21/18
f 21/21/18 20/23/21 2/26/8 5/25/7
f 19/20/19 21/21/18 5/25/7 1/27/9
f 16/28/16 19/31/19 25/30/22 23/29/23
f 23/29/23 25/30/22 24/33/24 22/32/25
f 25/30/22 12/35/15 10/34/14 24/33/24
f 19/31/19 1/36/9 12/35/15 25/30/22
