o right_stick_cap
v 0.299714 0.381548 -0.387976
v 0.219984 0.388593 -0.387977
v 0.299714 0.388190 -0.307512
v 0.243477 0.388437 -0.330719
v 0.261417 0.383016 -0.387976
v 0.269385 0.388316 -0.313503
v 0.299714 0.383010 -0.349352
v 0.226131 0.388534 -0.356539
v 0.263992 0.384113 -0.351772
v 0.379443 0.388593 -0.387977
v 0.355951 0.388437 -0.330719
v 0.338010 0.383016 -0.387976
v 0.330043 0.388316 -0.313503
v 0.373297 0.388534 -0.356539
v 0.335436 0.384113 -0.351772
v 0.299714 0.388190 -0.468441
v 0.243477 0.388437 -0.445234
v 0.269385 0.388316 -0.462450
v 0.299714 0.383010 -0.426601
v 0.226131 0.388534 -0.419414
v 0.263992 0.384113 -0.424181
v 0.355951 0.388437 -0.445234
v 0.330043 0.388316 -0.462450
v 0.373297 0.388534 -0.419414
v 0.335436 0.384113 -0.424181
vn -0.0000 0.9929 -0.1186
vn -0.0000 0.9970 -0.0778
vn 0.0723 0.9950 -0.0682
vn 0.0504 0.9922 -0.1144
vn 0.1219 0.9914 -0.0478
vn 0.1052 0.9893 -0.1007
vn 0.0827 0.9966 -0.0000
vn 0.1270 0.9919 -0.0000
vn -0.0000 1.0000 -0.0000
vn -0.0504 0.9922 -0.1144
vn -0.0723 0.9950 -0.0682
vn -0.1052 0.9893 -0.1007
vn -0.1219 0.9914 -0.0478
vn -0.1270 0.9919 -0.0000
vn -0.0827 0.9966 -0.0000
vn -0.0000 0.9929 0.1186
vn 0.0504 0.9922 0.1144
vn 0.0723 0.9950 0.0682
vn -0.0000 0.9970 0.0777
vn 0.1052 0.9893 0.1007
vn 0.1219 0.9914 0.0478
vn -0.0723 0.9950 0.0682
vn -0.0504 0.9922 0.1144
vn -0.1219 0.9914 0.0478
vn -0.1052 0.9893 0.1007
vt 0.500244 0.284092
vt 0.500365 0.314401
vt 0.575683 0.301278
vt 0.558268 0.280326
vt 0.636963 0.278692
vt 0.603461 0.273500
vt 0.588297 0.331343
vt 0.659790 0.297386
vt 0.500426 0.353713
s 1
f 3/1/1 7/2/2 9/3/3 6/4/4
f 6/4/4 9/3/3 8/5/5 4/6/6
f 9/3/3 5/7/7 2/8/8 8/5/5
f 7/2/2 1/9/9 5/7/7 9/3/3
f 3/1/1 13/4/10 15/3/11 7/2/2
f 13/4/10 11/6/12 14/5/13 15/3/11
f 15/3/11 14/5/13 10/8/14 12/7/15
f 7/2/2 15/3/11 12/7/15 1/9/9
f 16/1/16 18/4/17 21/3/18 19/2/19
f 18/4/17 17/6/20 20/5/21 21/3/18
f 21/3/18 20/5/21 2/8/8 5/7/7
f 19/2/19 21/3/18 5/7/7 1/9/9
f 16/1/16 19/2/19 25/3/22 23/4/23
f 23/4/23 25/3/22 24/5/24 22/6/25
f 25/3/22 12/7/15 10/8/14 24/5/24
f 19/2/19 1/9/9 12/7/15 25/3/22
