o right_trigger
v 0.617128 -0.274560 -0.768515
v 0.619357 -0.239775 -0.732834
v 0.619377 -0.219293 -0.713072
v 0.643579 -0.218556 -0.709941
v 0.516894 -0.219624 -0.760814
v 0.542852 -0.209952 -0.791540
v 0.653912 0.009150 -0.792369
v 0.500595 -0.124301 -0.789516
v 0.548321 -0.116887 -0.791282
v 0.516099 -0.169746 -0.788283
v 0.558649 -0.159023 -0.788110
v 0.456393 -0.074704 -0.761189
v 0.469330 -0.128655 -0.753784
v 0.481480 -0.008243 -0.792833
v 0.513194 -0.005337 -0.798047
v 0.478952 -0.028129 -0.805937
v 0.674325 -0.188913 -0.770651
v 0.582762 -0.229901 -0.733149
v 0.566711 -0.259455 -0.769309
v 0.583323 -0.239720 -0.794936
v 0.631795 -0.249965 -0.790883
v 0.658997 -0.233523 -0.722831
v 0.683141 -0.266374 -0.750625
v 0.697296 -0.060229 -0.776060
v 0.710308 -0.005780 -0.786802
v 0.596938 -0.212431 -0.788764
v 0.728996 -0.116137 -0.751008
v 0.702636 -0.197242 -0.762017
v 0.728218 -0.211875 -0.746847
v 0.717934 -0.160898 -0.753624
v 0.652255 -0.204709 -0.692010
v 0.686686 -0.212190 -0.701963
v 0.660669 -0.192803 -0.659185
v 0.724046 -0.237939 -0.728768
v 0.618420 -0.203863 -0.692763
v 0.575130 0.001251 -0.799679
v 0.527933 -0.022671 -0.810716
v 0.583027 -0.017360 -0.810714
v 0.488615 -0.075536 -0.796597
v 0.537059 -0.071425 -0.799621
v 0.590069 -0.065962 -0.797973
v 0.594036 -0.111900 -0.788677
v 0.596505 -0.154428 -0.785002
v 0.599894 -0.188334 -0.785553
v 0.654815 -0.011302 -0.801958
v 0.646216 -0.061845 -0.789924
v 0.642066 -0.109166 -0.781274
v 0.688144 -0.110296 -0.769087
v 0.639206 -0.152150 -0.778135
v 0.680037 -0.153162 -0.768025
v 0.637584 -0.188188 -0.779356
v 0.708320 -0.180874 -0.659451
v 0.760039 -0.128813 -0.725381
v 0.529614 -0.162072 -0.695909
v 0.574971 -0.183817 -0.674518
v 0.585940 -0.201741 -0.701565
v 0.453411 -0.030113 -0.769765
v 0.635744 -0.219130 -0.783687
v 0.686319 -0.239211 -0.773955
v 0.676516 -0.216408 -0.773450
v 0.615889 -0.192771 -0.663335
v 0.552718 -0.203990 -0.722701
v 0.572655 -0.194390 -0.788845
v 0.756398 -0.000952 -0.761532
v 0.769349 -0.062919 -0.728872
v 0.708836 0.015057 -0.776999
v 0.779008 -0.000460 -0.733038
v 0.595967 -0.216748 -0.715898
v 0.487846 -0.175361 -0.754640
v 0.740588 -0.060862 -0.754981
v 0.749685 -0.172952 -0.729901
v 0.754769 -0.188673 -0.702835
v 0.772725 -0.134740 -0.688411
v 0.723431 -0.170968 -0.631006
v 0.496148 -0.107935 -0.683020
v 0.470518 -0.066314 -0.732498
v 0.658582 -0.188572 -0.627917
v 0.610643 -0.191486 -0.628922
v 0.566840 -0.172850 -0.636066
v 0.523480 -0.143653 -0.651835
v 0.457253 -0.016926 -0.776295
v 0.752739 0.019853 -0.752257
v 0.773529 0.020764 -0.728393
v 0.783708 -0.063430 -0.691403
v 0.787410 -0.001460 -0.703918
v 0.783913 0.014321 -0.710762
v 0.497299 -0.006139 -0.762141
v 0.560762 0.000651 -0.742364
v 0.627526 0.007782 -0.730709
v 0.681090 0.013507 -0.718359
v 0.726105 0.018319 -0.707967
v 0.753284 0.021228 -0.698633
v 0.773391 0.022781 -0.691662
v 0.785990 0.013702 -0.683966
v 0.786157 -0.065421 -0.658379
v 0.765191 -0.131659 -0.659758
v 0.761865 -0.137067 -0.637175
v 0.755347 0.021422 -0.718045
v 0.730938 0.018802 -0.731219
v 0.689023 0.014314 -0.746763
v 0.634602 0.008495 -0.760381
v 0.567779 0.001359 -0.771585
v 0.506131 -0.005226 -0.782627
v 0.470507 -0.009766 -0.787861
v 0.458947 -0.029379 -0.792835
v 0.466578 -0.077610 -0.786232
v 0.478034 -0.129136 -0.778104
v 0.496030 -0.175359 -0.776571
v 0.524879 -0.218624 -0.780547
v 0.572453 -0.254131 -0.787445
v 0.625005 -0.267652 -0.785388
v 0.688347 -0.256459 -0.766114
v 0.728412 -0.226059 -0.738895
v 0.754371 -0.181404 -0.717198
v 0.768964 -0.132266 -0.707791
v 0.778776 -0.063508 -0.711033
v 0.784318 -0.001054 -0.718804
v 0.779475 0.018393 -0.719724
v 0.485207 -0.118450 -0.725249
v 0.463641 -0.071300 -0.749244
v 0.469745 -0.065775 -0.618647
v 0.495709 -0.107628 -0.618272
v 0.452387 -0.029399 -0.618938
v 0.658506 -0.188519 -0.616784
v 0.723332 -0.170899 -0.616427
v 0.610563 -0.191430 -0.617095
v 0.566714 -0.172762 -0.617482
v 0.523250 -0.143492 -0.617915
v 0.752731 0.021614 -0.617139
v 0.772884 0.023135 -0.617010
v 0.785535 0.014020 -0.616881
v 0.785872 -0.065222 -0.616503
v 0.761724 -0.136969 -0.616327
v 0.725490 0.018749 -0.617311
v 0.680406 0.013984 -0.617594
v 0.626760 0.008316 -0.617932
v 0.559920 0.001238 -0.618352
v 0.496325 -0.005461 -0.618753
v 0.456185 -0.016182 -0.618975
vn -0.3009 -0.6763 0.6723
vn -0.1503 -0.7004 0.6977
vn -0.1402 -0.6991 0.7011
vn -0.2965 -0.6792 0.6714
vn -0.0390 -0.0919 -0.9950
vn 0.2013 -0.1032 -0.9741
vn 0.1073 -0.7245 -0.6808
vn -0.3520 -0.6426 -0.6806
vn 0.4383 -0.1147 -0.8915
vn 0.4951 -0.6295 -0.5989
vn -0.0370 -0.6847 0.7278
vn -0.0375 -0.6911 0.7218
vn -0.1210 -0.7340 0.6683
vn -0.2354 -0.7160 0.6573
vn -0.0431 -0.7358 0.6758
vn 0.0242 -0.8699 0.4926
vn -0.1313 -0.8799 0.4566
vn -0.3471 -0.7762 0.5264
vn -0.6008 -0.4967 -0.6264
vn -0.1723 -0.0856 -0.9813
vn -0.4851 -0.6029 0.6334
vn -0.4654 -0.6390 0.6124
vn -0.5963 -0.5447 0.5897
vn -0.6502 -0.4615 0.6036
vn -0.7001 -0.3443 -0.6256
vn -0.1886 -0.0940 -0.9776
vn 0.0373 -0.0138 -0.9992
vn 0.0532 0.0864 -0.9948
vn 0.1145 0.1524 -0.9817
vn 0.5472 -0.2006 -0.8126
vn 0.3475 -0.2204 -0.9114
vn 0.3697 -0.0547 -0.9276
vn 0.5954 -0.0533 -0.8017
vn 0.1903 -0.0222 -0.9815
vn -0.0034 0.8839 -0.4677
vn 0.1002 0.8789 -0.4664
vn 0.0698 0.0096 -0.9975
vn -0.0674 0.8821 -0.4662
vn -0.1718 -0.1552 -0.9728
vn -0.1810 -0.2106 -0.9607
vn 0.0035 -0.2011 -0.9796
vn 0.0233 -0.1233 -0.9921
vn -0.7392 -0.2375 -0.6303
vn -0.7284 -0.2782 -0.6262
vn 0.1151 -0.1370 -0.9839
vn 0.1229 -0.0310 -0.9919
vn 0.1337 0.0640 -0.9889
vn -0.7612 -0.0614 -0.6456
vn -0.2249 -0.0352 -0.9737
vn -0.1271 0.8478 -0.5149
vn -0.0361 0.0104 -0.9993
vn -0.2304 0.7444 -0.6267
vn 0.2742 0.0646 -0.9595
vn 0.1975 0.0687 -0.9779
vn 0.2006 -0.0349 -0.9791
vn 0.2999 -0.0293 -0.9535
vn 0.3120 0.1241 -0.9420
vn 0.1959 0.1512 -0.9689
vn 0.4840 -0.0338 -0.8744
vn 0.4498 0.0457 -0.8920
vn 0.3227 -0.1354 -0.9368
vn 0.5097 -0.1279 -0.8508
vn 0.1519 -0.7010 0.6968
vn 0.1446 -0.7502 0.6452
vn 0.6521 -0.1096 -0.7502
vn 0.7927 -0.4318 -0.4303
vn 0.2031 -0.2224 -0.9536
vn 0.2044 -0.1415 -0.9686
vn 0.7516 -0.1721 -0.6368
vn 0.7212 -0.1340 -0.6796
vn 0.7037 -0.1066 -0.7024
vn 0.3636 -0.7142 0.5981
vn 0.0617 -0.9015 0.4283
vn -0.1323 -0.9179 0.3741
vn -0.3901 -0.7855 0.4804
vn 0.1039 -0.2143 -0.9712
vn 0.7949 -0.0682 -0.6029
vn 0.9055 -0.2873 -0.3123
vn 0.4379 -0.6501 0.6210
vn 0.9288 -0.1785 -0.3247
vn -0.8514 -0.5195 0.0728
vn -0.8807 -0.3305 0.3393
vn -0.6587 -0.7243 0.2037
vn -0.9122 -0.4037 0.0705
vn -0.9222 -0.1668 0.3489
vn -0.9935 -0.0880 -0.0718
vn 0.1583 -0.9830 0.0924
vn 0.1503 -0.9797 0.1323
vn 0.3884 -0.9167 0.0941
vn 0.5108 -0.8597 0.0089
vn -0.1829 -0.9808 0.0673
vn -0.1649 -0.9818 0.0941
vn -0.4851 -0.8685 0.1015
vn -0.4642 -0.8716 0.1574
vn -0.7028 -0.7073 0.0761
vn -0.4013 0.8891 -0.2202
vn 0.2852 0.8423 -0.4574
vn 0.4487 0.8244 -0.3451
vn 0.9319 -0.1412 -0.3341
vn 0.9394 -0.0715 -0.3352
vn 0.7933 0.5714 -0.2102
vn -0.1032 0.9945 -0.0187
vn -0.1227 0.9924 -0.0008
vn -0.1014 0.9946 -0.0205
vn -0.0992 0.9948 -0.0224
vn -0.0903 0.9956 -0.0234
vn -0.0569 0.9980 -0.0275
vn 0.1980 0.9801 -0.0134
vn -0.0885 0.9960 -0.0083
vn 0.9779 0.2092 -0.0026
vn 0.9993 0.0340 -0.0173
vn 0.8413 0.5277 -0.1169
vn 0.9938 -0.1090 0.0208
vn 0.9920 -0.1214 0.0332
vn 0.8030 -0.5955 -0.0241
vn 0.8422 -0.5388 -0.0180
vn 0.8093 -0.4374 0.3921
vn 0.8202 -0.4288 0.3787
vn -0.1052 0.9944 -0.0045
vn -0.1053 0.9944 -0.0045
vn -0.1054 0.9944 -0.0045
vn -0.1051 0.9944 -0.0047
vn -0.1793 0.9838 -0.0010
vn -0.4884 0.8722 -0.0286
vn -0.9244 -0.2124 -0.3168
vn -0.8975 -0.2981 -0.3251
vn -0.8535 -0.4098 -0.3219
vn -0.7337 -0.5915 -0.3345
vn -0.4684 -0.8013 -0.3723
vn -0.0047 -0.9178 -0.3970
vn 0.4190 -0.8339 -0.3591
vn 0.7584 -0.5906 -0.2758
vn 0.9176 -0.3472 -0.1939
vn 0.9580 -0.1941 -0.2108
vn 0.9650 -0.1348 -0.2248
vn 0.9698 -0.0796 -0.2305
vn -0.7690 -0.2884 0.5705
vn -0.7764 -0.2747 0.5672
vn -0.8466 -0.1017 0.5225
vn -0.8478 -0.0935 0.5220
vn -0.8593 0.0406 0.5098
vn -0.8316 -0.5553 -0.0030
vn -0.8800 -0.4750 -0.0037
vn -0.9702 -0.2424 -0.0055
vn 0.4797 -0.8774 0.0074
vn 0.1846 -0.9828 0.0059
vn -0.2016 -0.9795 0.0033
vn -0.5030 -0.8643 0.0007
vn -0.7124 -0.7018 -0.0015
vn -0.0928 0.9957 -0.0053
vn 0.2088 0.9780 -0.0032
vn 0.9834 0.1813 0.0058
vn 0.9937 -0.1118 0.0073
vn 0.8929 -0.4502 0.0082
vn -0.1048 0.9945 -0.0054
vn -0.1050 0.9945 -0.0054
vn -0.1052 0.9944 -0.0054
vn -0.1699 0.9854 -0.0058
vn -0.4827 0.8758 -0.0074
vt 0.000000 0.000000
vt 0.000000 1.000000
vt 1.000000 1.000000
vt 1.000000 0.000000
vt 0.000000 0.500000
vt 1.000000 0.500000
vt 0.000000 0.576664
vt 0.000000 0.423336
vt 1.000000 0.420986
vt 1.000000 0.579014
vt 0.500000 1.000000
vt 0.500000 0.000000
s 1
f 19/1/1 1/1/2 2/1/3 18/1/4
f 20/1/5 21/1/6 111/1/7 110/1/8
f 21/1/6 59/1/9 112/1/10 111/1/7
f 1/1/2 23/1/11 22/1/12 2/1/3
f 2/1/3 3/1/13 68/1/14 18/1/4
f 2/1/3 22/1/12 4/1/15 3/1/13
f 4/1/15 31/1/16 35/1/17 3/1/13
f 35/1/17 56/1/18 68/1/14 3/1/13
f 109/1/19 6/1/20 20/1/5 110/1/8
f 5/1/21 19/1/1 18/1/4 62/1/22
f 5/1/21 62/1/22 54/1/23 69/1/24
f 108/1/25 10/1/26 6/1/20 109/1/19
f 6/1/20 10/1/26 11/1/27 63/1/28
f 6/1/20 63/1/28 26/1/29 20/1/5
f 70/1/30 24/1/31 25/1/32 64/1/33
f 25/1/32 45/1/34 7/1/35 66/1/36
f 45/1/34 38/1/37 36/1/38 7/1/35
f 8/1/39 39/1/40 40/1/41 9/1/42
f 106/1/43 39/1/40 8/1/39 107/1/44
f 8/1/39 9/1/42 11/1/27 10/1/26
f 8/1/39 10/1/26 108/1/25 107/1/44
f 9/1/42 42/1/45 43/1/46 11/1/27
f 11/1/27 43/1/46 44/1/47 63/1/28
f 44/1/47 26/1/29 63/1/28
f 105/1/48 16/1/49 39/1/40 106/1/43
f 15/1/50 37/1/51 16/1/49 14/1/52
f 36/1/38 38/1/37 37/1/51 15/1/50
f 16/1/49 37/1/51 40/1/41 39/1/40
f 17/1/53 51/1/54 49/1/55 50/1/56
f 17/1/53 60/1/57 58/1/58 51/1/54
f 50/1/56 30/1/59 28/1/60 17/1/53
f 17/1/53 28/1/60 60/1/57
f 48/1/61 27/1/62 30/1/59 50/1/56
f 18/1/4 68/1/14 56/1/18 62/1/22
f 26/1/29 58/1/58 21/1/6 20/1/5
f 58/1/58 60/1/57 59/1/9 21/1/6
f 22/1/12 23/1/11 34/1/63 32/1/64
f 22/1/12 32/1/64 31/1/16 4/1/15
f 112/1/10 59/1/9 29/1/65 113/1/66
f 70/1/30 27/1/62 48/1/61 24/1/31
f 24/1/31 46/1/67 45/1/34 25/1/32
f 48/1/61 47/1/68 46/1/67 24/1/31
f 70/1/30 65/1/69 53/1/70 27/1/62
f 44/1/47 51/1/54 58/1/58 26/1/29
f 30/1/59 27/1/62 53/1/70 71/1/71
f 31/1/16 32/1/64 52/1/72 33/1/73
f 33/1/73 61/1/74 35/1/17 31/1/16
f 61/1/74 55/1/75 56/1/18 35/1/17
f 38/1/37 41/1/76 40/1/41 37/1/51
f 45/1/34 46/1/67 41/1/76 38/1/37
f 41/1/76 42/1/45 9/1/42 40/1/41
f 46/1/67 47/1/68 42/1/45 41/1/76
f 42/1/45 47/1/68 49/1/55 43/1/46
f 43/1/46 49/1/55 51/1/54 44/1/47
f 48/1/61 50/1/56 49/1/55 47/1/68
f 54/1/23 62/1/22 56/1/18 55/1/75
f 70/1/30 64/2/33 67/3/77 65/4/69
f 59/1/9 60/1/57 28/1/60 29/1/65
f 29/1/65 28/1/60 30/1/59 71/1/71
f 113/5/66 29/2/65 71/3/71 114/6/78
f 34/1/63 72/2/79 52/3/72 32/4/64
f 53/1/70 115/5/80 114/6/78 71/4/71
f 75/1/81 119/7/82 54/4/83
f 119/8/82 75/2/81 76/3/84 120/9/85
f 57/5/86 120/10/85 76/4/84
f 77/1/87 33/2/88 52/3/89 74/4/90
f 78/1/91 61/2/92 33/3/88 77/4/87
f 79/1/93 55/2/94 61/3/92 78/4/91
f 80/1/95 54/2/83 55/3/94 79/4/93
f 14/1/52 16/2/49 105/11/48 104/12/96
f 82/1/97 64/2/33 25/3/32 66/4/36
f 83/1/98 67/2/77 64/3/33 82/4/97
f 65/1/69 116/5/99 115/6/80 53/4/70
f 116/5/99 65/2/69 67/3/77 117/6/100
f 117/5/100 67/2/77 83/3/98 118/6/101
f 102/11/102 36/3/38 15/4/50 103/12/103
f 101/11/104 7/3/35 36/4/38 102/12/102
f 100/11/105 66/3/36 7/4/35 101/12/104
f 99/11/106 82/3/97 66/4/36 100/12/105
f 98/11/107 83/3/98 82/4/97 99/12/106
f 93/2/108 83/4/98 98/12/107 92/1/109
f 94/2/110 85/3/111 86/4/112 93/1/108
f 95/2/113 84/3/114 85/4/111 94/1/110
f 80/12/95 75/2/81 54/3/83
f 52/1/89 96/2/115 97/3/116 74/4/90
f 96/1/115 95/11/113 97/4/116
f 73/1/117 96/2/118 52/3/72 72/4/79
f 96/1/118 73/2/117 84/3/114 95/4/113
f 93/2/108 86/3/112 118/6/101 83/4/98
f 103/11/103 15/3/50 14/4/52 104/12/96
f 92/2/109 98/11/107 99/12/106 91/1/119
f 91/2/119 99/11/106 100/12/105 90/1/120
f 90/2/120 100/11/105 101/12/104 89/1/121
f 89/2/121 101/11/104 102/12/102 88/1/122
f 88/2/122 102/11/102 103/12/103 87/1/123
f 81/1/124 87/2/123 103/11/103 104/12/96
f 105/11/48 57/3/86 81/4/124 104/12/96
f 12/1/125 57/1/86 105/1/48 106/1/43
f 13/1/126 12/1/125 106/1/43 107/1/44
f 108/1/25 69/1/127 13/1/126 107/1/44
f 5/1/128 69/1/127 108/1/25 109/1/19
f 5/1/128 109/1/19 110/1/8 19/1/129
f 111/1/7 1/1/130 19/1/129 110/1/8
f 112/1/10 23/1/131 1/1/130 111/1/7
f 23/1/131 112/1/10 113/1/66 34/1/132
f 34/1/132 113/5/66 114/6/78 72/4/133
f 115/5/80 73/2/134 72/3/133 114/6/78
f 116/5/99 84/2/135 73/3/134 115/6/80
f 84/1/135 116/5/99 117/6/100 85/4/136
f 85/1/136 117/5/100 118/6/101 86/4/112
f 119/7/137 13/2/138 69/3/24 54/4/23
f 13/1/138 119/8/137 120/9/139 12/4/140
f 57/5/141 12/3/140 120/10/139
f 76/1/84 75/4/81 122/3/142 121/2/143
f 57/1/86 76/4/84 121/3/143 123/2/144
f 77/1/87 74/4/90 125/3/145 124/2/146
f 78/1/91 77/4/87 124/3/146 126/2/147
f 79/1/93 78/4/91 126/3/147 127/2/148
f 80/1/95 79/4/93 127/3/148 128/2/149
f 93/1/108 92/4/109 129/3/150 130/2/151
f 94/1/110 93/4/108 130/3/151 131/2/152
f 95/1/113 94/4/110 131/3/152 132/2/153
f 75/1/81 80/4/95 128/3/149 122/2/142
f 74/1/90 97/4/116 133/3/154 125/2/145
f 97/1/116 95/4/113 132/3/153 133/2/154
f 92/1/109 91/4/119 134/3/155 129/2/150
f 91/1/119 90/4/120 135/3/156 134/2/155
f 90/1/120 89/4/121 136/3/157 135/2/156
f 89/1/121 88/4/122 137/3/156 136/2/157
f 88/1/122 87/4/123 138/3/158 137/2/156
f 87/1/123 81/4/124 139/3/159 138/2/158
f 81/1/124 57/4/86 123/3/144 139/2/159
