o south_button
v 0.611995 0.294809 -0.393448
v 0.661685 0.290589 -0.394057
v 0.661293 0.293194 -0.443817
v 0.657550 0.284472 -0.368417
v 0.675239 0.283527 -0.380533
v 0.585715 0.291812 -0.397329
v 0.597732 0.290008 -0.379642
v 0.611318 0.297419 -0.443042
v 0.686660 0.285259 -0.440543
v 0.686986 0.283345 -0.398494
v 0.674643 0.287064 -0.458228
v 0.615602 0.287979 -0.367935
v 0.614825 0.292600 -0.469453
v 0.597136 0.293545 -0.457338
v 0.585398 0.293727 -0.439377
v 0.656773 0.289093 -0.469936
v 0.612490 0.261838 -0.363987
v 0.659793 0.256987 -0.363788
v 0.679675 0.255485 -0.377082
v 0.692515 0.255142 -0.395996
v 0.693640 0.257615 -0.441803
v 0.680383 0.260008 -0.462766
v 0.659733 0.263396 -0.476819
v 0.611588 0.268020 -0.476203
v 0.591664 0.269048 -0.462047
v 0.578940 0.269281 -0.441320
v 0.580435 0.266733 -0.395562
v 0.593400 0.264569 -0.376766
v 0.697539 0.255900 -0.419030
v 0.690992 0.283953 -0.419564
v 0.663235 0.293223 -0.418839
v 0.610185 0.297698 -0.418201
v 0.581384 0.293118 -0.418307
v 0.575293 0.268949 -0.419030
v 0.635834 0.259358 -0.359164
v 0.636610 0.286035 -0.363993
v 0.636968 0.294127 -0.392056
v 0.636852 0.297409 -0.418370
v 0.636441 0.296906 -0.445040
v 0.635768 0.291037 -0.473878
v 0.635834 0.265977 -0.481368
v 0.659739 0.274917 -0.363646
v 0.679295 0.273721 -0.377025
v 0.692289 0.273454 -0.396869
v 0.696741 0.274156 -0.420156
v 0.691986 0.275721 -0.443343
v 0.678736 0.277911 -0.462895
v 0.659019 0.280391 -0.475845
v 0.635824 0.282785 -0.480210
v 0.612691 0.284728 -0.475332
v 0.593136 0.285924 -0.461953
v 0.580144 0.286191 -0.442109
v 0.575687 0.285489 -0.418822
v 0.580444 0.283924 -0.395633
v 0.593696 0.281735 -0.376078
v 0.613413 0.279254 -0.363132
v 0.636608 0.276860 -0.358766
vn -0.045554 0.983163 0.176962
vn -0.066749 0.996451 0.051277
vn -0.358717 0.932151 0.049151
vn -0.345348 0.911919 0.221670
vn 0.084935 0.977316 0.194011
vn 0.084780 0.995072 0.051414
vn -0.099199 0.877794 0.468654
vn 0.078323 0.872332 0.482600
vn -0.294312 0.862356 0.411974
vn 0.212319 0.961753 0.173065
vn 0.503949 0.836476 0.215273
vn 0.517729 0.854699 0.038048
vn 0.232108 0.971542 0.047234
vn 0.254757 0.846306 0.467830
vn 0.444312 0.798099 0.406970
vn 0.081963 0.991116 -0.104746
vn 0.071537 0.916100 -0.394516
vn -0.102823 0.920074 -0.378010
vn -0.052167 0.995036 -0.084744
vn 0.213672 0.972974 -0.087557
vn 0.500501 0.854318 -0.140140
vn 0.436618 0.835197 -0.334383
vn 0.245913 0.889202 -0.385807
vn 0.391041 0.165974 0.905285
vn 0.701461 0.182244 0.689013
vn -0.355114 0.168751 0.919466
vn 0.020261 0.160581 0.986815
vn 0.907551 0.198714 0.369953
vn -0.896823 0.204277 0.392403
vn -0.677967 0.185933 0.711189
vn -0.972763 0.230648 0.023096
vn -0.298253 0.898151 -0.323064
vn -0.348934 0.928558 -0.126592
vn 0.902103 0.227661 -0.366579
vn 0.696795 0.239239 -0.676197
vn 0.976576 0.215095 0.005834
vn 0.385040 0.255846 -0.886728
vn -0.364362 0.268024 -0.891854
vn -0.685784 0.262824 -0.678692
vn 0.009006 0.265803 -0.963985
vn -0.896856 0.252765 -0.362987
vn 0.396876 -0.007905 0.917838
vn 0.713817 0.014830 0.700176
vn 0.920633 0.032757 0.389053
vn 0.998593 0.045912 0.026538
vn 0.936069 0.053392 -0.347742
vn 0.732057 0.055488 -0.678980
vn 0.404303 0.062731 -0.912471
vn 0.006969 0.067118 -0.997721
vn -0.389694 0.067785 -0.918447
vn -0.722520 0.062581 -0.688512
vn -0.932474 0.050715 -0.357659
vn -0.999288 0.027187 0.026176
vn -0.914653 0.003698 0.404223
vn -0.696058 -0.010744 0.717905
vn -0.374643 -0.022189 0.926904
vn 0.009468 -0.022556 0.999701
s 1
f 1//1 32//2 33//3 6//4
f 1//1 37//5 38//6 32//2
f 1//1 12//7 36//8 37//5
f 1//1 6//4 7//9 12//7
f 2//10 10//11 30//12 31//13
f 2//10 4//14 5//15 10//11
f 39//16 40//17 13//18 8//19
f 3//20 9//21 11//22 16//23
f 4//14 42//24 43//25 5//15
f 56//26 57//27 36//8 12//7
f 5//15 43//25 44//28 10//11
f 6//4 54//29 55//30 7//9
f 6//4 33//3 53//31 54//29
f 7//9 55//30 56//26 12//7
f 8//19 13//18 14//32 15//33
f 9//21 46//34 47//35 11//22
f 44//28 45//36 30//12 10//11
f 11//22 47//35 48//37 16//23
f 13//18 50//38 51//39 14//32
f 13//18 40//17 49//40 50//38
f 14//32 51//39 52//41 15//33
f 9//21 30//12 45//36 46//34
f 31//13 30//12 9//21 3//20
f 32//2 38//6 39//16 8//19
f 33//3 32//2 8//19 15//33
f 52//41 53//31 33//3 15//33
f 4//14 36//8 57//27 42//24
f 37//5 36//8 4//14 2//10
f 38//6 37//5 2//10 31//13
f 39//16 38//6 31//13 3//20
f 3//20 16//23 40//17 39//16
f 48//37 49//40 40//17 16//23
f 43//25 42//24 18//42 19//43
f 44//28 43//25 19//43 20//44
f 29//45 45//36 44//28 20//44
f 46//34 45//36 29//45 21//46
f 47//35 46//34 21//46 22//47
f 48//37 47//35 22//47 23//48
f 41//49 49//40 48//37 23//48
f 50//38 49//40 41//49 24//50
f 51//39 50//38 24//50 25//51
f 52//41 51//39 25//51 26//52
f 34//53 53//31 52//41 26//52
f 54//29 53//31 34//53 27//54
f 55//30 54//29 27//54 28//55
f 56//26 55//30 28//55 17//56
f 35//57 57//27 56//26 17//56
f 42//24 57//27 35//57 18//42
