o south_button
v 0.611995 0.294809 -0.393448
v 0.661685 0.290589 -0.394057
v 0.661293 0.293194 -0.443817
v 0.657550 0.284472 -0.368417
v 0.675239 0.283527 -0.380533
v 0.585715 0.291812 -0.397329
v 0.597732 0.290008 -0.379642
v 0.611318 0.297419 -0.443042
v 0.686660 0.285259 -0.440543
v 0.686986 0.283345 -0.398494
v 0.674643 0.287064 -0.458228
v 0.615602 0.287979 -0.367935
v 0.614825 0.292600 -0.469453
v 0.597136 0.293545 -0.457338
v 0.585398 0.293727 -0.439377
v 0.656773 0.289093 -0.469936
v 0.612490 0.261838 -0.363987
v 0.659793 0.256987 -0.363788
v 0.679675 0.255485 -0.377082
v 0.692515 0.255142 -0.395996
v 0.693640 0.257615 -0.441803
v 0.680383 0.260008 -0.462766
v 0.659733 0.263396 -0.476819
v 0.611588 0.268020 -0.476203
v 0.591664 0.269048 -0.462047
v 0.578940 0.269281 -0.441320
v 0.580435 0.266733 -0.395562
v 0.593400 0.264569 -0.376766
v 0.697539 0.255900 -0.419030
v 0.690992 0.283953 -0.419564
v 0.663235 0.293223 -0.418839
v 0.610185 0.297698 -0.418201
v 0.581384 0.293118 -0.418307
v 0.575293 0.268949 -0.419030
v 0.635834 0.259358 -0.359164
v 0.636610 0.286035 -0.363993
v 0.636968 0.294127 -0.392056
v 0.636852 0.297409 -0.418370
v 0.636441 0.296906 -0.445040
v 0.635768 0.291037 -0.473878
v 0.635834 0.265977 -0.481368
v 0.659739 0.274917 -0.363646
v 0.679295 0.273721 -0.377025
v 0.692289 0.273454 -0.396869
v 0.696741 0.274156 -0.420156
v 0.691986 0.275721 -0.443343
v 0.678736 0.277911 -0.462895
v 0.659019 0.280391 -0.475845
v 0.635824 0.282785 -0.480210
v 0.612691 0.284728 -0.475332
v 0.593136 0.285924 -0.461953
v 0.580144 0.286191 -0.442109
v 0.575687 0.285489 -0.418822
v 0.580444 0.283924 -0.395633
v 0.593696 0.281735 -0.376078
v 0.613413 0.279254 -0.363132
v 0.636608 0.276860 -0.358766
vn -0.0456 0.9832 0.1770
vn -0.0667 0.9965 0.0513
vn -0.3587 0.9321 0.0491
vn -0.3454 0.9119 0.2217
vn 0.0849 0.9773 0.1941
vn 0.0848 0.9951 0.0513
vn -0.0992 0.8778 0.4687
vn 0.0758 0.8725 0.4827
vn -0.2943 0.8623 0.4120
vn 0.2123 0.9618 0.1731
vn 0.5040 0.8365 0.2153
vn 0.5177 0.8547 0.0387
vn 0.2322 0.9715 0.0472
vn 0.2548 0.8463 0.4679
vn 0.4443 0.7981 0.4070
vn 0.0820 0.9911 -0.1048
vn 0.0716 0.9161 -0.3946
vn -0.1028 0.9201 -0.3780
vn -0.0522 0.9950 -0.0848
vn 0.2137 0.9730 -0.0876
vn 0.5005 0.8543 -0.1402
vn 0.4366 0.8352 -0.3344
vn 0.2459 0.8892 -0.3858
vn 0.3910 0.1660 0.9053
vn 0.7015 0.1822 0.6890
vn -0.3551 0.1688 0.9195
vn 0.0203 0.1606 0.9868
vn 0.9075 0.1988 0.3700
vn -0.8968 0.2043 0.3924
vn -0.6780 0.1860 0.7112
vn -0.9728 0.2307 0.0231
vn -0.2983 0.8981 -0.3231
vn -0.3490 0.9285 -0.1266
vn 0.9021 0.2277 -0.3666
vn 0.6968 0.2392 -0.6762
vn 0.9766 0.2151 0.0058
vn 0.3850 0.2559 -0.8867
vn -0.3644 0.2680 -0.8918
vn -0.6858 0.2628 -0.6787
vn 0.0090 0.2658 -0.9640
vn -0.8969 0.2528 -0.3630
vn 0.3968 -0.0079 0.9179
vn 0.7138 0.0148 0.7002
vn 0.9206 0.0328 0.3891
vn 0.9986 0.0459 0.0265
vn 0.9361 0.0534 -0.3478
vn 0.7321 0.0555 -0.6790
vn 0.4043 0.0627 -0.9125
vn 0.0074 0.0671 -0.9977
vn -0.3897 0.0678 -0.9184
vn -0.7224 0.0626 -0.6886
vn -0.9325 0.0507 -0.3577
vn -0.9993 0.0272 0.0262
vn -0.9147 0.0037 0.4042
vn -0.6961 -0.0107 0.7179
vn -0.3747 -0.0222 0.9269
vn 0.0095 -0.0226 0.9997
vt 0.000000 0.000000
vt 1.000000 0.000000
vt 1.000000 1.000000
vt 0.000000 1.000000
s 1
f 1/1/1 32/2/2 33/3/3 6/4/4
f 1/1/1 37/2/5 38/3/6 32/4/2
f 1/1/1 12/2/7 36/3/8 37/4/5
f 1/1/1 6/2/4 7/3/9 12/4/7
f 2/1/10 10/2/11 30/3/12 31/4/13
f 2/1/10 4/2/14 5/3/15 10/4/11
f 39/1/16 40/2/17 13/3/18 8/4/19
f 3/1/20 9/2/21 11/3/22 16/4/23
f 4/1/14 42/2/24 43/3/25 5/4/15
f 56/1/26 57/2/27 36/3/8 12/4/7
f 5/1/15 43/2/25 44/3/28 10/4/11
f 6/1/4 54/2/29 55/3/30 7/4/9
f 6/1/4 33/2/3 53/3/31 54/4/29
f 7/1/9 55/2/30 56/3/26 12/4/7
f 8/1/19 13/2/18 14/3/32 15/4/33
f 9/1/21 46/2/34 47/3/35 11/4/22
f 44/1/28 45/2/36 30/3/12 10/4/11
f 11/1/22 47/2/35 48/3/37 16/4/23
f 13/1/18 50/2/38 51/3/39 14/4/32
f 13/1/18 40/2/17 49/3/40 50/4/38
f 14/1/32 51/2/39 52/3/41 15/4/33
f 9/1/21 30/2/12 45/3/36 46/4/34
f 31/1/13 30/2/12 9/3/21 3/4/20
f 32/1/2 38/2/6 39/3/16 8/4/19
f 33/1/3 32/2/2 8/3/19 15/4/33
f 52/1/41 53/2/31 33/3/3 15/4/33
f 4/1/14 36/2/8 57/3/27 42/4/24
f 37/1/5 36/2/8 4/3/14 2/4/10
f 38/1/6 37/2/5 2/3/10 31/4/13
f 39/1/16 38/2/6 31/3/13 3/4/20
f 3/1/20 16/2/23 40/3/17 39/4/16
f 48/1/37 49/2/40 40/3/17 16/4/23
f 43/1/25 42/2/24 18/3/42 19/4/43
f 44/1/28 43/2/25 19/3/43 20/4/44
f 29/1/45 45/2/36 44/3/28 20/4/44
f 46/1/34 45/2/36 29/3/45 21/4/46
f 47/1/35 46/2/34 21/3/46 22/4/47
f 48/1/37 47/2/35 22/3/47 23/4/48
f 41/1/49 49/2/40 48/3/37 23/4/48
f 50/1/38 49/2/40 41/3/49 24/4/50
f 51/1/39 50/2/38 24/3/50 25/4/51
f 52/1/41 51/2/39 25/3/51 26/4/52
f 34/1/53 53/2/31 52/3/41 26/4/52
f 54/1/29 53/2/31 34/3/53 27/4/54
f 55/1/30 54/2/29 27/3/54 28/4/55
f 56/1/26 55/2/30 28/3/55 17/4/56
f 35/1/57 57/2/27 56/3/26 17/4/56
f 42/1/24 57/2/27 35/3/57 18/4/42
