o start_button
v 0.367177 0.293343 -0.667940
v 0.367119 0.290418 -0.711547
v 0.324669 0.294150 -0.667939
v 0.324687 0.291853 -0.710022
v 0.314099 0.292539 -0.703430
v 0.312829 0.294065 -0.676284
v 0.367177 0.293359 -0.688729
v 0.331580 0.294240 -0.688727
v 0.308594 0.293517 -0.688717
v 0.367055 0.287187 -0.661935
v 0.324253 0.287926 -0.662589
v 0.309227 0.287800 -0.671940
v 0.303160 0.286923 -0.688727
v 0.310384 0.286191 -0.707470
v 0.324855 0.285432 -0.715617
v 0.367005 0.284383 -0.716183
v 0.366886 0.278580 -0.661729
v 0.323298 0.279021 -0.662282
v 0.309065 0.279350 -0.671875
v 0.302998 0.278617 -0.688727
v 0.310052 0.277305 -0.707361
v 0.324038 0.276428 -0.715581
v 0.366822 0.275234 -0.716353
v 0.409684 0.292487 -0.667939
v 0.409575 0.290192 -0.710022
v 0.420184 0.290464 -0.703430
v 0.421518 0.291939 -0.676284
v 0.402786 0.292847 -0.688727
v 0.425725 0.291226 -0.688717
v 0.409854 0.286252 -0.662589
v 0.424865 0.285538 -0.671940
v 0.430894 0.284424 -0.688727
v 0.423646 0.283975 -0.707470
v 0.409156 0.283783 -0.715617
v 0.410461 0.277315 -0.662282
v 0.424698 0.277088 -0.671875
v 0.430731 0.276118 -0.688727
v 0.423634 0.275083 -0.707361
v 0.409619 0.274754 -0.715581
vt 0.000000 0.000000
vt 0.000000 0.526712
vt 1.000000 0.526712
vt 1.000000 0.000000
vt 0.473288 1.000000
vt 1.000000 1.000000
vt 1.000000 0.000000
vt 0.473288 0.000000
vt 0.000000 1.000000
vt 1.000000 1.000000
vt 0.000000 0.000000
vt 0.000000 1.000000
vt 0.000000 0.000000
vt 0.000000 0.481997
vt 1.000000 0.481997
vt 1.000000 0.000000
vt 0.000000 0.000000
vt 0.000000 0.481997
vt 1.000000 0.481997
vt 1.000000 0.000000
vt 0.000000 0.000000
vt 0.000000 0.481997
vt 1.000000 0.481997
vt 1.000000 0.000000
vt 0.000000 0.000000
vt 0.000000 0.481997
vt 1.000000 0.481997
vt 1.000000 0.000000
vt 0.000000 0.000000
vt 0.000000 0.481997
vt 1.000000 0.481997
vt 1.000000 0.000000
vt 0.000000 0.000000
vt 0.000000 0.481997
vt 1.000000 0.481997
vt 1.000000 0.000000
vt 0.000000 0.000000
vt 0.000000 1.000000
vt 1.000000 1.000000
vt 1.000000 0.000000
vt 0.000000 0.000000
vt 0.000000 1.000000
vt 1.000000 1.000000
vt 1.000000 0.000000
vt 0.000000 0.000000
vt 0.000000 1.000000
vt 1.000000 1.000000
vt 1.000000 0.000000
vt 0.000000 0.000000
vt 0.000000 1.000000
vt 1.000000 1.000000
vt 1.000000 0.000000
vt 0.000000 0.000000
vt 0.000000 1.000000
vt 1.000000 1.000000
vt 1.000000 0.000000
vt 0.000000 0.000000
vt 0.000000 1.000000
vt 1.000000 1.000000
vt 1.000000 0.000000
vt 0.000000 0.000000
vt 1.000000 0.000000
vt 1.000000 0.526712
vt 0.000000 0.526712
vt 0.473288 1.000000
vt 0.473288 0.000000
vt 1.000000 0.000000
vt 1.000000 1.000000
vt 1.000000 1.000000
vt 0.000000 1.000000
vt 0.000000 0.000000
vt 0.000000 1.000000
vt 0.000000 0.000000
vt 1.000000 0.000000
vt 1.000000 0.481997
vt 0.000000 0.481997
vt 0.000000 0.000000
vt 1.000000 0.000000
vt 1.000000 0.481997
vt 0.000000 0.481997
vt 0.000000 0.000000
vt 1.000000 0.000000
vt 1.000000 0.481997
vt 0.000000 0.481997
vt 0.000000 0.000000
vt 1.000000 0.000000
vt 1.000000 0.481997
vt 0.000000 0.481997
vt 0.000000 0.000000
vt 1.000000 0.000000
vt 1.000000 0.481997
vt 0.000000 0.481997
vt 0.000000 0.000000
vt 1.000000 0.000000
vt 1.000000 0.481997
vt 0.000000 0.481997
vt 0.000000 0.000000
vt 1.000000 0.000000
vt 1.000000 1.000000
vt 0.000000 1.000000
vt 0.000000 0.000000
vt 1.000000 0.000000
vt 1.000000 1.000000
vt 0.000000 1.000000
vt 0.000000 0.000000
vt 1.000000 0.000000
vt 1.000000 1.000000
vt 0.000000 1.000000
vt 0.000000 0.000000
vt 1.000000 0.000000
vt 1.000000 1.000000
vt 0.000000 1.000000
vt 0.000000 0.000000
vt 1.000000 0.000000
vt 1.000000 1.000000
vt 0.000000 1.000000
vt 0.000000 0.000000
vt 1.000000 0.000000
vt 1.000000 1.000000
vt 0.000000 1.000000
vn -0.030127 0.937960 -0.345432
vn 0.016028 0.998076 -0.059892
vn 0.019523 0.997925 -0.061350
vn 0.018449 0.943123 -0.331931
vn -0.258058 0.931056 -0.257956
vn -0.339405 0.938810 -0.058653
vn -0.043373 0.956523 0.288415
vn 0.018952 0.968735 0.247374
vn -0.265822 0.949171 0.168561
vn 0.006226 0.318024 -0.948062
vn -0.121605 0.312557 -0.942083
vn -0.137698 0.354240 0.924961
vn 0.007162 0.366094 0.930550
vn -0.953074 0.299427 -0.044636
vn -0.738781 0.319341 0.593484
vn -0.732482 0.299214 -0.611507
vn -0.181063 0.038377 0.982722
vn 0.000585 0.029891 0.999553
vn -0.542435 0.052905 0.838431
vn -0.940797 0.019495 0.338409
vn -0.940797 0.019495 0.338409
vn -0.933423 0.024522 -0.357939
vn -0.933423 0.024522 -0.357939
vn -0.158290 0.013367 -0.987302
vn -0.497370 0.024896 -0.867181
vn 0.000150 0.007913 -0.999969
vn 0.066785 0.936075 -0.345403
vn 0.023021 0.997940 -0.059890
vn 0.375890 0.924805 -0.058678
vn 0.294291 0.920236 -0.257990
vn 0.080748 0.954103 0.288386
vn 0.302807 0.938020 0.168602
vn 0.133742 0.307573 -0.942078
vn 0.151420 0.348572 0.924970
vn 0.750656 0.290097 0.593598
vn 0.964073 0.261858 -0.044640
vn 0.743557 0.270358 -0.611579
vn 0.182418 0.031282 0.982723
vn 0.544037 0.031702 0.838462
vn 0.940840 -0.017215 0.338414
vn 0.940840 -0.017215 0.338414
vn 0.933685 -0.011777 -0.357902
vn 0.933685 -0.011777 -0.357902
vn 0.497875 0.005498 -0.867231
vn 0.158687 0.007182 -0.987303
s 1
f 4/1/1 8/2/2 7/3/3 2/4/4
f 8/5/2 4/6/1 5/7/5 9/8/6
f 8/2/2 3/9/7 1/10/8 7/3/3
f 6/11/9 3/12/7 8/5/2 9/8/6
f 2/13/4 16/14/10 15/15/11 4/16/1
f 3/17/7 11/18/12 10/19/13 1/20/8
f 9/21/6 13/22/14 12/23/15 6/24/9
f 4/25/1 15/26/11 14/27/16 5/28/5
f 6/29/9 12/30/15 11/31/12 3/32/7
f 5/33/5 14/34/16 13/35/14 9/36/6
f 11/37/12 18/38/17 17/39/18 10/40/13
f 12/41/15 19/42/19 18/43/17 11/44/12
f 13/45/14 20/46/20 19/47/21 12/48/15
f 14/49/16 21/50/22 20/51/23 13/52/14
f 15/53/11 22/54/24 21/55/25 14/56/16
f 16/57/10 23/58/26 22/59/24 15/60/11
f 25/61/27 2/62/4 7/63/3 28/64/28
f 28/65/28 29/66/29 26/67/30 25/68/27
f 28/64/28 7/63/3 1/69/8 24/70/31
f 27/71/32 29/66/29 28/65/28 24/72/31
f 2/73/4 25/74/27 34/75/33 16/76/10
f 24/77/31 1/78/8 10/79/13 30/80/34
f 29/81/29 27/82/32 31/83/35 32/84/36
f 25/85/27 26/86/30 33/87/37 34/88/33
f 27/89/32 24/90/31 30/91/34 31/92/35
f 26/93/30 29/94/29 32/95/36 33/96/37
f 30/97/34 10/98/13 17/99/18 35/100/38
f 31/101/35 30/102/34 35/103/38 36/104/39
f 32/105/36 31/106/35 36/107/40 37/108/41
f 33/109/37 32/110/36 37/111/42 38/112/43
f 34/113/33 33/114/37 38/115/44 39/116/45
f 16/117/10 34/118/33 39/119/45 23/120/26
