o start_button
v 0.367177 0.293343 -0.667940
v 0.367119 0.290418 -0.711547
v 0.324669 0.294150 -0.667939
v 0.324687 0.291853 -0.710022
v 0.314099 0.292539 -0.703430
v 0.312829 0.294065 -0.676284
v 0.367177 0.293359 -0.688729
v 0.331580 0.294240 -0.688727
v 0.308594 0.293517 -0.688717
v 0.367055 0.287187 -0.661935
v 0.324253 0.287926 -0.662589
v 0.309227 0.287800 -0.671940
v 0.303160 0.286923 -0.688727
v 0.310384 0.286191 -0.707470
v 0.324855 0.285432 -0.715617
v 0.367005 0.284383 -0.716183
v 0.366886 0.278580 -0.661729
v 0.323298 0.279021 -0.662282
v 0.309065 0.279350 -0.671875
v 0.302998 0.278617 -0.688727
v 0.310052 0.277305 -0.707361
v 0.324038 0.276428 -0.715581
v 0.366822 0.275234 -0.716353
v 0.409684 0.292487 -0.667939
v 0.409575 0.290192 -0.710022
v 0.420184 0.290464 -0.703430
v 0.421518 0.291939 -0.676284
v 0.402786 0.292847 -0.688727
v 0.425725 0.291226 -0.688717
v 0.409854 0.286252 -0.662589
v 0.424865 0.285538 -0.671940
v 0.430894 0.284424 -0.688727
v 0.423646 0.283975 -0.707470
v 0.409156 0.283783 -0.715617
v 0.410461 0.277315 -0.662282
v 0.424698 0.277088 -0.671875
v 0.430731 0.276118 -0.688727
v 0.423634 0.275083 -0.707361
v 0.409619 0.274754 -0.715581
vn -0.0301 0.9380 -0.3454
vn 0.0160 0.9981 -0.0599
vn 0.0195 0.9979 -0.0613
vn 0.0184 0.9431 -0.3319
vn -0.2581 0.9310 -0.2580
vn -0.3394 0.9388 -0.0586
vn -0.0434 0.9565 0.2884
vn 0.0189 0.9687 0.2474
vn -0.2658 0.9492 0.1686
vn 0.0062 0.3180 -0.9481
vn -0.1216 0.3126 -0.9421
vn -0.1377 0.3542 0.9250
vn 0.0072 0.3661 0.9305
vn -0.9531 0.2994 -0.0446
vn -0.7388 0.3193 0.5935
vn -0.7325 0.2992 -0.6115
vn -0.1811 0.0384 0.9827
vn 0.0006 0.0299 0.9996
vn -0.5425 0.0529 0.8384
vn -0.9408 0.0195 0.3384
vn -0.9334 0.0246 -0.3579
vn -0.1583 0.0134 -0.9873
vn -0.4973 0.0249 -0.8672
vn 0.0002 0.0079 -1.0000
vn 0.0668 0.9361 -0.3454
vn 0.0230 0.9979 -0.0599
vn 0.3759 0.9248 -0.0587
vn 0.2943 0.9202 -0.2580
vn 0.0808 0.9541 0.2884
vn 0.3029 0.9380 0.1686
vn 0.1338 0.3076 -0.9421
vn 0.1514 0.3486 0.9250
vn 0.7507 0.2901 0.5936
vn 0.9641 0.2619 -0.0446
vn 0.7435 0.2704 -0.6116
vn 0.1824 0.0313 0.9827
vn 0.5441 0.0317 0.8384
vn 0.9408 -0.0172 0.3384
vn 0.9337 -0.0118 -0.3579
vn 0.4979 0.0055 -0.8672
vn 0.1587 0.0083 -0.9873
vt 0.000000 0.000000
vt 0.000000 0.526712
vt 1.000000 0.526712
vt 1.000000 0.000000
vt 0.473288 1.000000
vt 1.000000 1.000000
vt 0.473288 0.000000
vt 0.000000 1.000000
vt 0.000000 0.481997
vt 1.000000 0.481997
s 1
f 4/1/1 8/2/2 7/3/3 2/4/4
f 8/5/2 4/6/1 5/4/5 9/7/6
f 8/2/2 3/8/7 1/6/8 7/3/3
f 6/1/9 3/8/7 8/5/2 9/7/6
f 2/1/4 16/9/10 15/10/11 4/4/1
f 3/1/7 11/9/12 10/10/13 1/4/8
f 9/1/6 13/9/14 12/10/15 6/4/9
f 4/1/1 15/9/11 14/10/16 5/4/5
f 6/1/9 12/9/15 11/10/12 3/4/7
f 5/1/5 14/9/16 13/10/14 9/4/6
f 11/1/12 18/8/17 17/6/18 10/4/13
f 12/1/15 19/8/19 18/6/17 11/4/12
f 13/1/14 20/8/20 19/6/20 12/4/15
f 14/1/16 21/8/21 20/6/21 13/4/14
f 15/1/11 22/8/22 21/6/23 14/4/16
f 16/1/10 23/8/24 22/6/22 15/4/11
f 25/1/25 2/4/4 7/3/3 28/2/26
f 28/5/26 29/7/27 26/4/28 25/6/25
f 28/2/26 7/3/3 1/6/8 24/8/29
f 27/1/30 29/7/27 28/5/26 24/8/29
f 2/1/4 25/4/25 34/10/31 16/9/10
f 24/1/29 1/4/8 10/10/13 30/9/32
f 29/1/27 27/4/30 31/10/33 32/9/34
f 25/1/25 26/4/28 33/10/35 34/9/31
f 27/1/30 24/4/29 30/10/32 31/9/33
f 26/1/28 29/4/27 32/10/34 33/9/35
f 30/1/32 10/4/13 17/6/18 35/8/36
f 31/1/33 30/4/32 35/6/36 36/8/37
f 32/1/34 31/4/33 36/6/38 37/8/38
f 33/1/35 32/4/34 37/6/39 38/8/39
f 34/1/31 33/4/35 38/6/40 39/8/41
f 16/1/10 34/4/31 39/6/41 23/8/24
